<svg width="1920" height="1080" viewBox="0 0 1920 1080" fill="none" xmlns="http://www.w3.org/2000/svg">
<g id="track">
<path id="out" fill-rule="evenodd" clip-rule="evenodd" d="M1094.92 845.795L532.86 845.805C532.86 845.805 518.634 845.488 505.86 842.1C493.087 838.712 481.136 834.048 466.86 826.6C455.36 820.6 292.86 714.1 292.86 714.1C292.86 714.1 279.86 705.6 274.86 697.6C270.798 691.1 266.86 684.1 266.36 674.1C265.86 664.1 268.236 569.393 268.236 569.393C268.236 569.393 267.323 558.448 272.076 553.24C277.36 548.6 279.86 548.1 284.803 546.611C290.494 545.932 292.441 546.622 297.602 548.313C302.764 550.005 306.832 551.648 310.86 556.1C320.36 566.6 429.86 699.1 442.36 712.1C453.405 723.587 462.028 729.305 475.36 736.1C488.693 742.895 509.36 743.1 509.36 743.1L857.361 773.6C857.361 773.6 878.547 775.355 892.129 773.82C905.71 772.285 925.026 766.811 938.361 761.6C951.695 756.39 983.493 736.861 994.861 724.1C1004.89 712.846 1015.23 700.734 1021.05 686.935C1026.87 673.137 1032.19 657.776 1034.36 643.1C1036.53 628.424 1036.5 616.79 1035.86 600.1C1035.22 583.411 1027.96 554.67 1024.71 539.018C1021.45 523.366 1018.71 511.493 1013.24 501.179C1007.76 490.864 1001.31 482.558 994.056 477.441C986.8 472.325 979.525 470.816 972.685 469.869C965.846 468.921 961.271 470.781 954.861 472.6C948.45 474.419 943.574 477.998 936.861 482.6C930.147 487.202 923.361 492.1 911.971 499.565C900.582 507.031 891.184 512.427 877.861 515.6C864.537 518.773 852.396 520.951 839.36 522.1C826.325 523.249 814.473 520.262 801.178 517.902C787.882 515.542 778.813 510.009 760.86 502.1C743.86 491.1 729.86 474.6 729.86 474.6L638.119 369.465C638.119 369.465 628.679 356.966 628.295 350.912C627.911 344.858 627.417 339.124 630.86 333.147C634.304 327.171 636.86 324.6 646.86 319.1C656.86 313.6 1023.79 175.788 1023.79 175.788L1296.88 67.0442C1296.88 67.0442 1311.46 62.6995 1317.64 63.825C1323.82 64.9505 1328.22 67.5557 1332.1 72.0212C1335.97 76.4866 1335.54 79.2025 1337.36 89.6001C1337.36 100.6 1337.33 110.794 1335.36 126.6C1333.39 142.407 1332.69 159.311 1327.46 175.173C1322.22 191.036 1317.88 208 1310.36 221.1C1302.84 234.201 1292.11 244.4 1282.86 252.6C1273.61 260.8 1265.66 265.119 1253.36 270.6C1241.06 276.081 1223.36 278.6 1223.36 278.6L1102.86 300.6C1102.86 300.6 1090.29 303.786 1089.12 314.838C1087.94 325.89 1095.31 333.147 1095.31 333.147L1207 460.5C1207 460.5 1217 471 1224 473.5C1230.5 475 1236.21 476.635 1243 475C1249.79 473.364 1264.51 461.603 1264.51 461.603L1463.84 269.167C1463.84 269.167 1470.7 263.582 1476.83 262.901C1482.96 262.22 1490.31 262.634 1494.1 264.376C1497.89 266.118 1504.03 271.767 1506.36 275.92C1508.69 280.074 1509.99 290.405 1509.99 290.405L1526.57 599.071C1526.57 599.071 1528.13 609.312 1531.29 615.286C1534.45 621.261 1538.53 631.033 1545.86 639.1C1565.86 661.1 1679.86 767.1 1712.36 803.1C1718.33 809.708 1720.12 813.901 1721.36 818.6C1722.6 823.299 1720.38 828.311 1718.86 832.6C1717.34 836.889 1713.96 840.362 1708.86 843.1C1703.76 845.839 1690.36 845.795 1690.36 845.795L1094.92 845.795Z" stroke="black" stroke-width="25"/>
<g id="full">
<path fill-rule="evenodd" clip-rule="evenodd" d="M1094.92 845.795L532.86 845.805C532.86 845.805 518.634 845.488 505.86 842.1C493.087 838.712 481.136 834.048 466.86 826.6C455.36 820.6 292.86 714.1 292.86 714.1C292.86 714.1 279.86 705.6 274.86 697.6C270.798 691.1 266.86 684.1 266.36 674.1C265.86 664.1 268.236 569.393 268.236 569.393C268.236 569.393 267.323 558.448 272.076 553.24C277.36 548.6 279.86 548.1 284.803 546.611C290.494 545.932 292.441 546.622 297.602 548.313C302.764 550.005 306.832 551.648 310.86 556.1C320.36 566.6 429.86 699.1 442.36 712.1C453.405 723.587 462.028 729.305 475.36 736.1C488.693 742.895 509.36 743.1 509.36 743.1L683.36 758.35L857.361 773.6C857.361 773.6 878.547 775.355 892.129 773.82C905.71 772.285 925.026 766.811 938.361 761.6C951.695 756.39 983.493 736.861 994.861 724.1C1004.89 712.846 1015.23 700.734 1021.05 686.935C1026.87 673.137 1032.19 657.776 1034.36 643.1C1036.53 628.424 1036.5 616.79 1035.86 600.1C1035.22 583.411 1027.96 554.67 1024.71 539.018C1021.45 523.366 1018.71 511.493 1013.24 501.179C1007.76 490.864 1001.31 482.558 994.056 477.441C986.8 472.325 979.525 470.816 972.685 469.869C965.846 468.921 961.271 470.781 954.861 472.6C948.45 474.419 943.574 477.998 936.861 482.6C930.147 487.202 923.361 492.1 911.971 499.565C900.582 507.031 891.184 512.427 877.861 515.6C864.537 518.773 852.396 520.951 839.36 522.1C826.325 523.249 814.473 520.262 801.178 517.902C787.882 515.542 778.813 510.009 760.86 502.1C743.86 491.1 729.86 474.6 729.86 474.6L638.119 369.465C638.119 369.465 628.679 356.966 628.295 350.912C627.911 344.858 627.417 339.124 630.86 333.147C634.304 327.171 636.86 324.6 646.86 319.1C656.86 313.6 1023.79 175.788 1023.79 175.788L1160.34 121.416L1296.88 67.0442C1296.88 67.0442 1311.46 62.6995 1317.64 63.825C1323.82 64.9505 1328.22 67.5557 1332.1 72.0212C1335.97 76.4866 1335.54 79.2025 1337.36 89.6001C1337.36 100.6 1337.33 110.794 1335.36 126.6C1333.39 142.407 1332.69 159.311 1327.46 175.173C1322.22 191.036 1317.88 208 1310.36 221.1C1302.84 234.201 1292.11 244.4 1282.86 252.6C1273.61 260.8 1265.66 265.119 1253.36 270.6C1241.06 276.081 1223.36 278.6 1223.36 278.6L1102.86 300.6C1102.86 300.6 1090.29 303.786 1089.12 314.838C1087.94 325.89 1095.31 333.147 1095.31 333.147L1207 460.5C1207 460.5 1217 471 1224 473.5C1230.5 475 1236.21 476.635 1243 475C1249.79 473.364 1264.51 461.603 1264.51 461.603L1329.5 398.863L1463.84 269.167C1463.84 269.167 1470.7 263.582 1476.83 262.901C1482.96 262.22 1490.31 262.634 1494.1 264.376C1497.89 266.118 1504.03 271.767 1506.36 275.92C1508.69 280.074 1509.99 290.405 1509.99 290.405L1526.57 599.071C1526.57 599.071 1528.13 609.312 1531.29 615.286C1534.45 621.261 1538.53 631.033 1545.86 639.1C1565.86 661.1 1679.86 767.1 1712.36 803.1C1718.33 809.708 1720.12 813.901 1721.36 818.6C1722.6 823.299 1720.38 828.311 1718.86 832.6C1717.34 836.889 1713.96 840.362 1708.86 843.1C1703.76 845.839 1690.36 845.795 1690.36 845.795L1094.92 845.795Z" stroke="white" stroke-width="15"/>
<path fill-rule="evenodd" clip-rule="evenodd" d="M1094.92 845.795L532.86 845.805C532.86 845.805 518.634 845.488 505.86 842.1C493.087 838.712 481.136 834.048 466.86 826.6C455.36 820.6 292.86 714.1 292.86 714.1C292.86 714.1 279.86 705.6 274.86 697.6C270.798 691.1 266.86 684.1 266.36 674.1C265.86 664.1 268.236 569.393 268.236 569.393C268.236 569.393 267.323 558.448 272.076 553.24C277.36 548.6 279.86 548.1 284.803 546.611C290.494 545.932 292.441 546.622 297.602 548.313C302.764 550.005 306.832 551.648 310.86 556.1C320.36 566.6 429.86 699.1 442.36 712.1C453.405 723.587 462.028 729.305 475.36 736.1C488.693 742.895 509.36 743.1 509.36 743.1L857.361 773.6C857.361 773.6 878.547 775.355 892.129 773.82C905.71 772.285 925.026 766.811 938.361 761.6C951.695 756.39 983.493 736.861 994.861 724.1C1004.89 712.846 1015.23 700.734 1021.05 686.935C1026.87 673.137 1032.19 657.776 1034.36 643.1C1036.53 628.424 1036.5 616.79 1035.86 600.1C1035.22 583.411 1027.96 554.67 1024.71 539.018C1021.45 523.366 1018.71 511.493 1013.24 501.179C1007.76 490.864 1001.31 482.558 994.056 477.441C986.8 472.325 979.525 470.816 972.685 469.869C965.846 468.921 961.271 470.781 954.861 472.6C948.45 474.419 943.574 477.998 936.861 482.6C930.147 487.202 923.361 492.1 911.971 499.565C900.582 507.031 891.184 512.427 877.861 515.6C864.537 518.773 852.396 520.951 839.36 522.1C826.325 523.249 814.473 520.262 801.178 517.902C787.882 515.542 778.813 510.009 760.86 502.1C743.86 491.1 729.86 474.6 729.86 474.6L638.119 369.465C638.119 369.465 628.679 356.966 628.295 350.912C627.911 344.858 627.417 339.124 630.86 333.147C634.304 327.171 636.86 324.6 646.86 319.1C656.86 313.6 1023.79 175.788 1023.79 175.788L1296.88 67.0442C1296.88 67.0442 1311.46 62.6995 1317.64 63.825C1323.82 64.9505 1328.22 67.5557 1332.1 72.0212C1335.97 76.4866 1335.54 79.2025 1337.36 89.6001C1337.36 100.6 1337.33 110.794 1335.36 126.6C1333.39 142.407 1332.69 159.311 1327.46 175.173C1322.22 191.036 1317.88 208 1310.36 221.1C1302.84 234.201 1292.11 244.4 1282.86 252.6C1273.61 260.8 1265.66 265.119 1253.36 270.6C1241.06 276.081 1223.36 278.6 1223.36 278.6L1102.86 300.6C1102.86 300.6 1090.29 303.786 1089.12 314.838C1087.94 325.89 1095.31 333.147 1095.31 333.147L1207 460.5C1207 460.5 1217 471 1224 473.5C1230.5 475 1236.21 476.635 1243 475C1249.79 473.364 1264.51 461.603 1264.51 461.603L1463.84 269.167C1463.84 269.167 1470.7 263.582 1476.83 262.901C1482.96 262.22 1490.31 262.634 1494.1 264.376C1497.89 266.118 1504.03 271.767 1506.36 275.92C1508.69 280.074 1509.99 290.405 1509.99 290.405L1526.57 599.071C1526.57 599.071 1528.13 609.312 1531.29 615.286C1534.45 621.261 1538.53 631.033 1545.86 639.1C1565.86 661.1 1679.86 767.1 1712.36 803.1C1718.33 809.708 1720.12 813.901 1721.36 818.6C1722.6 823.299 1720.38 828.311 1718.86 832.6C1717.34 836.889 1713.96 840.362 1708.86 843.1C1703.76 845.839 1690.36 845.795 1690.36 845.795L1094.92 845.795Z" stroke="white" stroke-width="15"/>
<path fill-rule="evenodd" clip-rule="evenodd" d="M1094.92 845.795L532.86 845.805C532.86 845.805 518.634 845.488 505.86 842.1C493.087 838.712 481.136 834.048 466.86 826.6C455.36 820.6 292.86 714.1 292.86 714.1C292.86 714.1 279.86 705.6 274.86 697.6C270.798 691.1 266.86 684.1 266.36 674.1C265.86 664.1 268.236 569.393 268.236 569.393C268.236 569.393 267.323 558.448 272.076 553.24C277.36 548.6 279.86 548.1 284.803 546.611C290.494 545.932 292.441 546.622 297.602 548.313C302.764 550.005 306.832 551.648 310.86 556.1C320.36 566.6 429.86 699.1 442.36 712.1C453.405 723.587 462.028 729.305 475.36 736.1C488.693 742.895 509.36 743.1 509.36 743.1L857.361 773.6C857.361 773.6 878.547 775.355 892.129 773.82C905.71 772.285 925.026 766.811 938.361 761.6C951.695 756.39 983.493 736.861 994.861 724.1C1004.89 712.846 1015.23 700.734 1021.05 686.935C1026.87 673.137 1032.19 657.776 1034.36 643.1C1036.53 628.424 1036.5 616.79 1035.86 600.1C1035.22 583.411 1027.96 554.67 1024.71 539.018C1021.45 523.366 1018.71 511.493 1013.24 501.179C1007.76 490.864 1001.31 482.558 994.056 477.441C986.8 472.325 979.525 470.816 972.685 469.869C965.846 468.921 961.271 470.781 954.861 472.6C948.45 474.419 943.574 477.998 936.861 482.6C930.147 487.202 923.361 492.1 911.971 499.565C900.582 507.031 891.184 512.427 877.861 515.6C864.537 518.773 852.396 520.951 839.36 522.1C826.325 523.249 814.473 520.262 801.178 517.902C787.882 515.542 778.813 510.009 760.86 502.1C743.86 491.1 729.86 474.6 729.86 474.6L638.119 369.465C638.119 369.465 628.679 356.966 628.295 350.912C627.911 344.858 627.417 339.124 630.86 333.147C634.304 327.171 636.86 324.6 646.86 319.1C656.86 313.6 1023.79 175.788 1023.79 175.788L1296.88 67.0442C1296.88 67.0442 1311.46 62.6995 1317.64 63.825C1323.82 64.9505 1328.22 67.5557 1332.1 72.0212C1335.97 76.4866 1335.54 79.2025 1337.36 89.6001C1337.36 100.6 1337.33 110.794 1335.36 126.6C1333.39 142.407 1332.69 159.311 1327.46 175.173C1322.22 191.036 1317.88 208 1310.36 221.1C1302.84 234.201 1292.11 244.4 1282.86 252.6C1273.61 260.8 1265.66 265.119 1253.36 270.6C1241.06 276.081 1223.36 278.6 1223.36 278.6L1102.86 300.6C1102.86 300.6 1090.29 303.786 1089.12 314.838C1087.94 325.89 1095.31 333.147 1095.31 333.147L1207 460.5C1207 460.5 1217 471 1224 473.5C1230.5 475 1236.21 476.635 1243 475C1249.79 473.364 1264.51 461.603 1264.51 461.603L1463.84 269.167C1463.84 269.167 1470.7 263.582 1476.83 262.901C1482.96 262.22 1490.31 262.634 1494.1 264.376C1497.89 266.118 1504.03 271.767 1506.36 275.92C1508.69 280.074 1509.99 290.405 1509.99 290.405L1526.57 599.071C1526.57 599.071 1528.13 609.312 1531.29 615.286C1534.45 621.261 1538.53 631.033 1545.86 639.1C1565.86 661.1 1679.86 767.1 1712.36 803.1C1718.33 809.708 1720.12 813.901 1721.36 818.6C1722.6 823.299 1720.38 828.311 1718.86 832.6C1717.34 836.889 1713.96 840.362 1708.86 843.1C1703.76 845.839 1690.36 845.795 1690.36 845.795L1094.92 845.795Z" stroke="white" stroke-width="15"/>
</g>
<path id="sec-4" d="M1094.92 845.795L1690.36 845.795C1690.36 845.795 1703.76 845.839 1708.86 843.1C1713.96 840.362 1717.34 836.889 1718.86 832.6C1720.38 828.311 1722.6 823.299 1721.36 818.6C1720.12 813.901 1718.33 809.708 1712.36 803.1C1679.86 767.1 1565.86 661.1 1545.86 639.1C1538.53 631.033 1534.45 621.261 1531.29 615.286C1528.13 609.312 1526.57 599.071 1526.57 599.071L1509.99 290.405C1509.99 290.405 1508.69 280.074 1506.36 275.92C1504.03 271.767 1497.89 266.118 1494.1 264.376C1490.31 262.634 1482.96 262.22 1476.83 262.901C1470.7 263.582 1463.84 269.167 1463.84 269.167L1329.5 398.863" stroke="black" stroke-width="15"/>
<path id="sec-3" d="M1160.34 121.416L1296.88 67.0442C1296.88 67.0442 1311.46 62.6995 1317.64 63.825C1323.82 64.9505 1328.22 67.5557 1332.1 72.0211C1335.97 76.4866 1335.54 79.2025 1337.36 89.6001C1337.36 100.6 1337.33 110.794 1335.36 126.6C1333.39 142.407 1332.69 159.311 1327.46 175.173C1322.22 191.036 1317.88 208 1310.36 221.1C1302.84 234.201 1292.11 244.4 1282.86 252.6C1273.61 260.8 1265.66 265.119 1253.36 270.6C1241.06 276.081 1223.36 278.6 1223.36 278.6L1102.86 300.6C1102.86 300.6 1090.29 303.786 1089.12 314.838C1087.94 325.89 1095.31 333.147 1095.31 333.147L1207 460.5C1207 460.5 1217 471 1224 473.5C1230.5 475 1236.21 476.635 1243 475C1249.79 473.364 1264.51 461.603 1264.51 461.603L1329.5 398.863" stroke="black" stroke-width="15"/>
<path id="sec-2" d="M683.36 758.35L857.361 773.6C857.361 773.6 878.547 775.355 892.129 773.82C905.71 772.285 925.026 766.811 938.361 761.6C951.695 756.39 983.493 736.861 994.861 724.1C1004.89 712.846 1015.23 700.734 1021.05 686.935C1026.87 673.137 1032.19 657.776 1034.36 643.1C1036.53 628.424 1036.5 616.79 1035.86 600.1C1035.22 583.411 1027.96 554.67 1024.71 539.018C1021.45 523.366 1018.71 511.493 1013.24 501.179C1007.76 490.864 1001.31 482.558 994.056 477.441C986.8 472.325 979.525 470.816 972.685 469.869C965.846 468.921 961.271 470.781 954.86 472.6C948.45 474.419 943.574 477.998 936.86 482.6C930.147 487.202 923.36 492.1 911.971 499.565C900.582 507.031 891.184 512.427 877.861 515.6C864.537 518.773 852.396 520.951 839.36 522.1C826.325 523.249 814.473 520.262 801.178 517.902C787.882 515.542 778.812 510.009 760.86 502.1C743.86 491.1 729.86 474.6 729.86 474.6L638.119 369.465C638.119 369.465 628.679 356.966 628.295 350.912C627.911 344.858 627.417 339.124 630.86 333.147C634.304 327.171 636.86 324.6 646.86 319.1C656.86 313.6 1023.79 175.788 1023.79 175.788L1160.34 121.416" stroke="black" stroke-width="15"/>
<path id="sec-1" d="M1094.92 845.795L532.86 845.805C532.86 845.805 518.634 845.488 505.86 842.1C493.087 838.712 481.136 834.048 466.86 826.6C455.36 820.6 292.86 714.1 292.86 714.1C292.86 714.1 279.86 705.6 274.86 697.6C270.798 691.1 266.86 684.1 266.36 674.1C265.86 664.1 268.236 569.393 268.236 569.393C268.236 569.393 267.323 558.448 272.076 553.24C277.36 548.6 279.86 548.1 284.803 546.611C290.494 545.932 292.441 546.622 297.602 548.313C302.764 550.005 306.832 551.648 310.86 556.1C320.36 566.6 429.86 699.1 442.36 712.1C453.405 723.587 462.028 729.305 475.36 736.1C488.693 742.895 509.36 743.1 509.36 743.1L683.36 758.35" stroke="black" stroke-width="15"/>
<g id="set-4-start" filter="url(#filter0_d_5_5)">
<path d="M1318.81 385L1343.24 411.504" stroke="#B8DC02" stroke-width="10" stroke-linecap="round"/>
</g>
<g id="set-3-start" filter="url(#filter1_d_5_5)">
<path d="M1154.07 104L1167.74 137.352" stroke="#B8DC02" stroke-width="10" stroke-linecap="round"/>
</g>
<g id="sec-2-start" filter="url(#filter2_d_5_5)">
<path d="M684.722 740L681.664 775.915" stroke="#B8DC02" stroke-width="10" stroke-linecap="round"/>
</g>
<g id="set-1-start" filter="url(#filter3_d_5_5)">
<path d="M1093.19 828L1093.69 864.042" stroke="black" stroke-width="10" stroke-linecap="round"/>
</g>
</g>
<defs>
<filter id="filter0_d_5_5" x="1309.81" y="380" width="42.4298" height="44.5035" filterUnits="userSpaceOnUse" color-interpolation-filters="sRGB">
<feFlood flood-opacity="0" result="BackgroundImageFix"/>
<feColorMatrix in="SourceAlpha" type="matrix" values="0 0 0 0 0 0 0 0 0 0 0 0 0 0 0 0 0 0 127 0" result="hardAlpha"/>
<feOffset dy="4"/>
<feGaussianBlur stdDeviation="2"/>
<feComposite in2="hardAlpha" operator="out"/>
<feColorMatrix type="matrix" values="0 0 0 0 0 0 0 0 0 0 0 0 0 0 0 0 0 0 0.25 0"/>
<feBlend mode="normal" in2="BackgroundImageFix" result="effect1_dropShadow_5_5"/>
<feBlend mode="normal" in="SourceGraphic" in2="effect1_dropShadow_5_5" result="shape"/>
</filter>
<filter id="filter1_d_5_5" x="1145.07" y="98.9987" width="31.6732" height="51.3548" filterUnits="userSpaceOnUse" color-interpolation-filters="sRGB">
<feFlood flood-opacity="0" result="BackgroundImageFix"/>
<feColorMatrix in="SourceAlpha" type="matrix" values="0 0 0 0 0 0 0 0 0 0 0 0 0 0 0 0 0 0 127 0" result="hardAlpha"/>
<feOffset dy="4"/>
<feGaussianBlur stdDeviation="2"/>
<feComposite in2="hardAlpha" operator="out"/>
<feColorMatrix type="matrix" values="0 0 0 0 0 0 0 0 0 0 0 0 0 0 0 0 0 0 0.25 0"/>
<feBlend mode="normal" in2="BackgroundImageFix" result="effect1_dropShadow_5_5"/>
<feBlend mode="normal" in="SourceGraphic" in2="effect1_dropShadow_5_5" result="shape"/>
</filter>
<filter id="filter2_d_5_5" x="672.664" y="735" width="21.0588" height="53.9157" filterUnits="userSpaceOnUse" color-interpolation-filters="sRGB">
<feFlood flood-opacity="0" result="BackgroundImageFix"/>
<feColorMatrix in="SourceAlpha" type="matrix" values="0 0 0 0 0 0 0 0 0 0 0 0 0 0 0 0 0 0 127 0" result="hardAlpha"/>
<feOffset dy="4"/>
<feGaussianBlur stdDeviation="2"/>
<feComposite in2="hardAlpha" operator="out"/>
<feColorMatrix type="matrix" values="0 0 0 0 0 0 0 0 0 0 0 0 0 0 0 0 0 0 0.25 0"/>
<feBlend mode="normal" in2="BackgroundImageFix" result="effect1_dropShadow_5_5"/>
<feBlend mode="normal" in="SourceGraphic" in2="effect1_dropShadow_5_5" result="shape"/>
</filter>
<filter id="filter3_d_5_5" x="1084.19" y="823" width="18.4944" height="54.0417" filterUnits="userSpaceOnUse" color-interpolation-filters="sRGB">
<feFlood flood-opacity="0" result="BackgroundImageFix"/>
<feColorMatrix in="SourceAlpha" type="matrix" values="0 0 0 0 0 0 0 0 0 0 0 0 0 0 0 0 0 0 127 0" result="hardAlpha"/>
<feOffset dy="4"/>
<feGaussianBlur stdDeviation="2"/>
<feComposite in2="hardAlpha" operator="out"/>
<feColorMatrix type="matrix" values="0 0 0 0 0 0 0 0 0 0 0 0 0 0 0 0 0 0 0.25 0"/>
<feBlend mode="normal" in2="BackgroundImageFix" result="effect1_dropShadow_5_5"/>
<feBlend mode="normal" in="SourceGraphic" in2="effect1_dropShadow_5_5" result="shape"/>
</filter>
</defs>
</svg>
