<svg id="Background_Details" data-name="Background Details" xmlns="http://www.w3.org/2000/svg" viewBox="0 0 1920 1080"><defs><style>.cls-1{fill:#636466;}.cls-2{fill:#c7c8ca;}</style></defs><title>background</title><g id="Pavement"><path class="cls-1" d="M0,0V1080H1920V0ZM1757.1,751.17c-25.51,67-62.06,115.79-80.4,132.22a309.61,309.61,0,0,1-93.27,57.73c-46.14,18.44-99,27.73-157.48,27.74q-14.85,0-30.17-.8c-60.86,0-769.53-7.64-787.83-7.84-4.43.09-43.29.59-96.48-6C436.8,945,372.45,927,320.2,900.57l-1-.52c-24.37-14-71.55-46.26-113.69-104.6-45.55-63.06-73.12-139-81.94-225.61l0-.3c-.12-1.4-2.84-34.74,6.41-85.66,8.44-46.46,29-117.52,78.77-192.24l.25-.37c8.87-12.67,35-45.83,86.14-80C345,177.86,401.44,155,462.79,143.19l.19,0c16.1-2.93,27.71-4.65,29.5-4.92l403-67,153.83-28.41c5.49-.89,135.72-21.13,246.16,36.54,92.32,46.56,290.51,207,301.46,215.88,8,6.21,134.16,105.18,171.26,223.28C1798.17,608,1778.72,694.39,1757.1,751.17Z"/><path class="cls-1" d="M607.74,920.22h.33c7.31.08,730.9,7.84,788.24,7.84l1.06,0c106.17,5.64,191.17-19.42,252.64-74.48,12.52-11.22,46-54.51,69.71-116.66,19.31-50.71,36.79-127.6,10.46-205.9l-.13-.4c-33.62-107.32-156.53-202.94-157.76-203.89l-.41-.33c-2.05-1.66-205.54-166.59-294.57-211.43l-.26-.14c-96.72-50.57-215.88-33.4-221.21-32.6L902.18,110.63,498.65,177.77l-.21,0c-.12,0-11.85,1.72-28.19,4.69C346.19,206.32,268.43,276.28,241.91,314c-45.51,68.35-64.43,133.12-72.28,175.45-8.28,44.64-6.35,74.45-6.2,76.56C183.33,760.59,302,843.84,338.72,865.11c115.17,57.94,267.15,55.16,268.68,55.12Z"/></g><g id="Buildings"><polygon class="cls-2" points="180.47 817.52 194.04 809.42 211.13 838.8 197.56 847.2 180.47 817.52"/><path class="cls-2" d="M218,846.32l71,71-28.12,28.41-10.54-10.16-17.18,17-10-10,17.18-16.89-2.15-2.05-25.09,25.09-18.74-18.36,9.86-9.56-8.2-8.11L186.62,922l-14.93-14.64,9.66-9.57-27.63-27.63-4.19-23.62s4.29-2.35,5.85-6.45c.78,4.1,5.08,26.85,5.08,26.85l18,18.26Z"/><polygon class="cls-2" points="1588.51 969.67 1623.83 1068.25 1650.48 1056.41 1657.48 1070.83 1680.3 1060.03 1673.87 1046.03 1678.98 1043.39 1702.38 1028.48 1711.19 1041.66 1732.45 1028.15 1723.8 1014.81 1728.99 1011.1 1731.46 1008.96 1741.59 1021.15 1749.75 1014.23 1739.53 1002.04 1772.15 973.04 1785.99 957.14 1812.52 969.66 1831.55 948.08 1832.95 949.07 1842.26 936.79 1840.78 935.55 1848.68 924.19 1828.17 902.68 1843.08 880.69 1862.94 841.81 1876.86 849.05 1881.56 839.66 1867.88 831.84 1871.34 824.01 1885.35 828.87 1894.32 805.39 1879.41 800.2 1890.37 769.23 1905.12 772.44 1910.47 747.56 1895.48 744.43 1898.11 731.66 1912.86 734.55 1914.67 724.17 1900.42 721.45 1901.74 714.69 1911.71 715.6 1914.92 685.61 1920 686.35 1920 660.24 1907.18 658.67 1907.34 598.78 1902.15 559.32 1911.79 557.92 1909.73 542.19 1900.01 543.42 1899.43 540.04 1893.83 516.4 1904.21 513.76 1900.5 498.03 1903.88 497.04 1900.09 483.04 1898.86 462.61 1887.4 435.01 1869.53 442.18 1864.42 428.91 1834.93 378.5 1826.94 367.87 1834.85 361.86 1825.54 349.09 1733.35 417.13 1748.26 438.39 1769.85 476.86 1785.75 518.54 1795.47 558.25 1800.99 602.16 1801.94 650.56 1798.09 693.83 1787.84 743.03 1772.77 787.1 1751.78 828.61 1729.18 863.06 1696.81 901.36 1663.8 930.05 1628.22 952.64 1588.51 969.67"/><polygon class="cls-2" points="1572.13 966.69 1550.97 972.18 1550.33 968.49 1526.29 973.97 1527.1 978.38 1520.86 980 1505.91 979.84 1505.91 975.31 1492.19 975.31 1492.19 979.69 1458.68 979.34 1458.68 984.58 1425.87 984.38 1425.87 977.85 1412.15 977.85 1412.15 984.3 1377.26 984.09 1377.26 977.74 1363.54 977.74 1363.54 984 1329.66 983.8 1329.66 977.17 1315.94 977.17 1315.94 983.72 1281.83 983.51 1281.83 977.36 1268.11 977.36 1268.11 983.43 1249.1 983.32 1249.25 1051.77 1528.06 1053.3 1586.74 1040.43 1572.13 966.69"/><polygon class="cls-2" points="1220.27 978.66 729.42 978.66 729.42 1046.68 948.67 1046.68 948.67 1052.69 998.23 1052.69 998.23 1046.68 1220.27 1046.68 1220.27 978.66"/><polygon class="cls-2" points="680.11 979.57 680.11 974.52 667.92 974.52 667.92 979.56 630.37 979.52 630.37 973.9 618.18 973.9 618.18 979.51 582.59 979.47 582.59 973.9 570.4 973.9 570.4 979.46 532.85 979.42 532.85 973.69 520.66 973.69 520.66 979.41 484.55 979.37 484.55 973.48 472.37 973.48 472.37 979.36 463.52 979.35 442.21 975.77 443.09 970.28 431.06 968.34 430.19 973.75 400.97 968.85 397.2 967.26 399.2 962.52 387.96 957.8 385.97 962.53 351.38 947.97 353.18 943.68 341.95 938.96 340.14 943.25 339.14 942.83 312.88 1006.81 379.25 1034.5 456.84 1047.39 698.91 1048.35 698.91 979.59 680.11 979.57"/><rect class="cls-2" x="728.81" y="647.27" width="235.88" height="34.04" transform="translate(-8.77 11.33) rotate(-0.76)"/><rect class="cls-2" x="953.05" y="502.64" width="18.05" height="17.28"/><rect class="cls-2" x="939.68" y="493.06" width="5.38" height="4.7"/><rect class="cls-2" x="938.4" y="515.2" width="5.84" height="15.01"/><rect class="cls-2" x="949.01" y="520.88" width="7.96" height="2.73"/><rect class="cls-2" x="961.14" y="522.85" width="3.26" height="2.5"/><rect class="cls-2" x="971.37" y="521.26" width="5.31" height="2.73"/><rect class="cls-2" x="980.85" y="520.27" width="7.88" height="4.17"/><rect class="cls-2" x="997.3" y="520.2" width="7.88" height="6.82"/><rect class="cls-2" x="1005.71" y="522.17" width="5.46" height="4.62"/><rect class="cls-2" x="979.86" y="526.95" width="6.6" height="2.5"/><rect class="cls-2" x="981.76" y="708.87" width="61.21" height="15.33"/><rect class="cls-2" x="1079.38" y="753.55" width="25.03" height="22.88"/><rect class="cls-2" x="1029.55" y="806.25" width="22.16" height="32.1"/><rect class="cls-2" x="1053.27" y="806.49" width="8.98" height="33.06"/><rect class="cls-2" x="1077.22" y="811.04" width="15.21" height="22.16"/><rect class="cls-2" x="963.67" y="803.14" width="50.67" height="46.71"/><rect class="cls-2" x="632.24" y="647.32" width="18.25" height="26.4" transform="translate(-171.59 228.4) rotate(-17.85)"/><rect class="cls-2" x="988.83" y="759.82" width="43.02" height="13.44"/></g></svg>