<svg id="Inactive_Configs" data-name="Inactive Configs" xmlns="http://www.w3.org/2000/svg" viewBox="0 0 1920 1080"><defs><style>.cls-1{fill:#a7a9ac;}</style></defs><path class="cls-1" d="M1847.62,373.25c-5.3-12.85-20.13-17.58-23-18.4-12.15-3.4-32.76-9.63-47.21-14a72.84,72.84,0,0,0-15.87-6.42c-27.59-7.94-109.55-36.95-110.38-37.24h0c-31.72-11.1-80.18-26.73-127-41.84-19.71-6.35-38.33-12.35-54.85-17.75-42.24-13.79-63.26,3.44-78.6,16q-2.19,1.8-4.27,3.47c-6.38,5-16.54,14.1-24.7,21.38-2.83,2.53-5.42,4.83-7.51,6.67-45.5,40-77.29,26.21-108,12.86l-5.48-2.37c-26.5-11.33-51.73-15.57-66.8-18.11-24.87-4.18-68.79-9.86-91.44-12.15-44.42-4.49-63.33-3.2-84.57,1-23.22,4.54-39.89,14.66-49.56,30.08-17.19,27.42-7.35,64.72-3.65,78.76,12.18,46.2,4.55,73.46-2.18,97.52l-.58,2.09c-.48,1.71-1,3.39-1.49,5.06a2.07,2.07,0,0,0-.15.25c-8.78,17.32-31.87,38.69-44.13,48.58-22,17.79-88.52,69.4-92.2,72.26l-26.41,17.17c-19.66,12.23-28.64,14.64-38.33,14.8-77.33,1.3-292-2.08-300.91-2.22-43.54-5.37-78.06-28.34-81.86-30.95l-.1-.07c-61.36-42.32-91.63-63.46-113.73-78.89-21.22-14.82-35.24-24.61-62.28-43-21.71-14.76-44.95-20-65.44-14.87-14.72,3.71-27,12.69-32.92,24-23.69,45.58,15.84,72.65,32.72,84.2,8.26,5.66,19.92,14.16,32.26,23.17,18.52,13.5,37.67,27.47,50.54,35.7,17.94,11.47,65.26,36.65,85.4,47.27,23.42,20.5,61.9,45.81,92.63,65.35,3.35,2.14,6,3.82,7.46,4.79a5,5,0,0,0,2.75.82,3.59,3.59,0,0,0,.47,0c34,23.18,70,46.51,94.81,59.26C511.59,823.17,537.18,829,558.81,829c28.33,0,49.86-9.93,67-20.48,56.64-34.79,88.41-44.86,118.55-52.84,11.32-2.46,19.38-1.82,24,1.92,6,4.92,5.86,15.32,5.75,22.91,0,1.62-.05,3.15,0,4.52.71,26,18.36,25.92,25.91,25.9h.57c14.61,0,38.77,1.07,60.13,2,9.94.44,19.34.86,26.36,1.1,59.9,2,217.07,4.74,277.17,5.72a199.52,199.52,0,0,0,24.08.39c58.77-2.28,78.58-21.05,97.74-39.2,3.94-3.72,7.65-7.24,11.71-10.62,29.82-24.79,63.88-34.78,101.24-29.67,6.65.91,16.19,2.46,26.3,4.1l8.82,1.43c8.76,1.41,17.11,2.71,23.15,3.48,53.75,6.83,69.84-3.69,88.48-15.88l1.55-1c20-13,33.93-12.37,46.22-11.79l3.7.16h0c11,.44,23.62,1,37,1.64,12.71.58,25.94,1.19,39,1.74,7.7,1.55,16.64,5.86,31.34,17.21,8,6.16,23.66,16,34,22.47l3.91,2.45a4.91,4.91,0,0,0,1.07.9,52.7,52.7,0,0,0,25.34,6.7,36.71,36.71,0,0,0,15.47-3.18c6.8-3.13,15.49-10.29,18.24-26.54,3.68-21.74,2.36-57.76,1.4-84.07-.27-7.2-.52-14-.63-19.53-.18-9.08-.4-19.35-.67-30.48,0-41.13-.21-91.71-1.81-121.25-1.13-20.68,2.25-28.43,6.45-35.76,3.9-6.8,11.15-17.08,18.17-27,7.38-10.46,15-21.27,19.22-28.71C1849.75,388.93,1850.7,380.7,1847.62,373.25Zm-62.07,1.31c0,1.05,0,2.09.08,3.09,2.41,58.45,5.49,162.83,7.14,232.89v5.77a28.77,28.77,0,0,0-4-3.48c-10.79-7.72-24.7-6-32-4.25-14.32,3.37-38.2,8.12-59.26,12.32-11.88,2.36-23.1,4.6-31.29,6.32-43.88,9.24-175.38,37.73-178.64,38.44-16.94,3.29-27.17,4.84-35.31,5.35-66.18,4.14-165.26,3.44-249.32-1.68l-.62,0-8-.5c-40.22-2.63-73.76-20.79-94.44-51.13-18.45-27.07-24.87-61.8-16.35-88.47,9.63-30.16,27.13-51.65,52-63.88,27.16-13.34,58.28-12.43,77.08-5.61,12.66,4.6,29,10.81,46.28,17.39,47,17.91,105.56,40.19,141.71,49.64,52.43,13.7,78.84,9.13,103.41,2.78,42.33-10.94,69.34-34.52,84.55-52.38,10.57-12.4,64.24-76.11,84.63-114.06.78-1.23,1.61-2.61,2.49-4.08,9.58-16,19.73-30,38.46-25.88,2.5.7,39.51,11,51.91,14.75l3.79,1.15,3.65,1.11C1785.16,357.17,1785.36,366,1785.55,374.56Zm7.19,270.36v6.23c0,18.78-12.3,28.49-36.56,28.85-54.28.82-139.35-.89-214.41-2.39-20.27-.4-39.85-.8-57.66-1.11l5.4-1,.11,0c1.33-.29,134.45-29.13,178.63-38.44,8.13-1.71,19.33-3.94,31.18-6.3,21.15-4.21,45.11-9,59.6-12.39,5.69-1.33,16.35-2.77,23.93,2.66,5.36,3.83,8.56,10.74,9.51,20.51C1792.57,642.54,1792.66,643.69,1792.74,644.92Zm-114.93-322.2a39.89,39.89,0,0,0-3.43-6.78c7.06,2.46,15,5.22,23.25,8a41.33,41.33,0,0,0-17.17,11.29A39.54,39.54,0,0,0,1677.81,322.72Zm-1525,263.49c-12.4-9.05-24.12-17.6-32.5-23.33-17.16-11.76-49.11-33.63-29.5-71.35,4.6-8.85,14.5-15.93,26.49-19,17.69-4.46,38.06.32,57.37,13.45,27,18.37,41,28.14,62.19,42.94,22.11,15.44,52.4,36.59,113.79,78.93l2.94-4,3.94,2.85a5,5,0,0,1-6.77,1.27c4,2.75,40.54,27.06,86.56,32.66l.53,0c2.22,0,222.77,3.54,301.5,2.22,11.21-.19,21.92-2.92,43.53-16.36l26.66-17.34.14-.11c.07-.05.14-.08.2-.13.7-.54,69.9-54.24,92.52-72.5a273.51,273.51,0,0,0,20.5-18.53,124.25,124.25,0,0,1-19.06,22.77c-24.51,23-77.28,62.85-101.75,80.72-35.16,25.67-54.52,27.92-75.91,27.92h-.68c-45.87-.09-201.37-.64-276.71-3.55-51.36-2-75.43-18.25-96.66-32.6l-3-2c-43-28.9-124.12-84.3-168-114.52-15.94-11-31.07-15.31-45-12.85a42.5,42.5,0,0,0-26.8,16.91c-7.83,10.74-9,23.2-3.25,36a61.72,61.72,0,0,0,18.42,22.92h0c26.11,19.44,67.22,49.63,107,78.61-11.77-6.53-22.35-12.6-28.81-16.73C190.19,613.5,170.31,599,152.77,586.21Zm110.43,48.5a16.54,16.54,0,0,0-2.7,12.21c-46.2-33.49-98.78-72-130-95.26h0c-8.27-6.16-26.75-26.27-13.06-45,4.75-6.51,23-25.88,58-1.72,43.85,30.24,125,85.67,168,114.59l2.95,2c6.46,4.36,13.18,8.9,20.76,13.19-21.15-4.68-44.52-9.5-59.5-11.08C306.35,623.44,273.4,620.14,263.2,634.71ZM887.39,804c-7-.24-16.34-.65-26.26-1.09-21.42-.95-45.68-2-60.48-2H800c-7.61,0-15.45,0-15.9-16.18,0-1.15,0-2.58,0-4.09.14-9.09.35-22.83-9.41-30.81-.38-.31-.78-.6-1.19-.89C838.89,736,894.31,739.56,932,743.75c42.73,4.75,98.42,29.39,135.27,45.69,4.33,1.92,8.4,3.72,12.17,5.37,13.51,5.89,25.28,10.5,35.84,14.09C1042.41,807.63,934.61,805.61,887.39,804Zm539.5-69.15c-10.17-1.65-19.78-3.21-26.55-4.14-40.25-5.5-76.92,5.23-109,31.89-4.31,3.58-8.32,7.38-12.19,11C1261.36,790.52,1243,808,1188,810.11l-24.08-.39c-18.89-1.69-42.44-7.47-80.51-24.08-3.75-1.64-7.81-3.43-12.12-5.34-37.41-16.56-93.95-41.57-138.21-46.49-43.94-4.88-111.56-8.94-191.17,12.13-30.92,8.19-63.47,18.48-121.33,54-29.79,18.3-69.13,32.43-135.11-1.41-44.9-23-130.42-83.87-166.94-109.85-11.08-7.88-24.22-17.32-38.47-27.6-3.89-4-6.55-7.47-7.93-10.29-3.3-6.77-1.4-9.48-.78-10.37,4.74-6.76,23.88-8.12,35.32-6.91,20.37,2.15,57.42,10.61,81.94,16.21L399,652.1c14.54,3.28,47.55,3.66,49.44,3.68,75.54,2.91,231.09,3.46,277,3.55,22.73.08,44.6-2.16,82.52-29.85,24.64-18,77.82-58.18,102.69-81.5,19.29-18.08,32.65-41.15,40.84-70.53l.59-2.08c6.72-24,15.08-53.93,2.21-102.76-3.4-12.89-12.43-47.15,2.46-70.9,8.14-13,22.6-21.59,43-25.58s38.47-5.18,81.65-.82c22.49,2.27,66.09,7.91,90.78,12.07,15.58,2.62,39.12,6.58,64.53,17.44l5.42,2.34c16.19,7,33.47,14.54,53.1,14.54,19.21,0,40.66-7.19,65.53-29.06,2.1-1.85,4.71-4.17,7.56-6.72,8.06-7.19,18.1-16.15,24.23-21,1.45-1.13,2.91-2.34,4.42-3.58C1412,249,1429.08,235,1466.12,247.09c16.53,5.4,35.16,11.4,54.88,17.76,46.79,15.09,95.17,30.69,126.77,41.75h0c5.6,2,16.25,8.33,20.69,19.74,3.65,9.37,2.3,20.08-4,31.84-15.37,28.69-53.22,76.9-83.51,112.46a154.13,154.13,0,0,1-79.44,49.18c-24.14,6.23-48.2,10.33-98.38-2.78-35.63-9.31-93.88-31.48-140.69-49.3-17.32-6.6-33.68-12.83-46.42-17.45-19.26-7-53.06-9.61-84.9,6-27,13.28-46.78,37.42-57.13,69.81-9.41,29.49-2.5,67.62,17.62,97.14,22.45,32.94,58.69,52.64,102,55.48l8,.5.52,0c76.61,4.68,160.79,5.65,222.87,6.36l27.4.33c24.7.32,56,1,89.08,1.61,61.64,1.23,130,2.6,182.66,2.6,11.54,0,22.32-.06,32.1-.21,18.86-.28,30.13-5.87,36.84-13-.14,6.35-.38,12.3-.71,17-.59,8.23-1.57,22-41.74,22.46-19.62.23-47.58-.7-76.4-1.92a50.89,50.89,0,0,0-6.06-.73c-13.33-.8-36.39-1.55-54.92-2.15-5.95-.2-11.36-.37-15.7-.53l-3.37-.15c-12.77-.64-28.57-1.44-50.33,12.06-.7.44-1.4.88-2.11,1.35l-1.56,1c-1.1.73-2.2,1.44-3.28,2.14-16.29,10.5-31.51,18.15-78.47,12.19C1450.64,738.71,1438.57,736.75,1426.89,734.85Zm283.83-1.07c-4.15-3.2-8-5.94-11.51-8.29,19.58.69,37.66,1.11,51.62,1,20.79-.23,34.65-3.75,42.75-11.26.05,10.84-.25,22.77-2.37,29.32-2.65,8.15-7.73,13.64-15.1,16.31-10.51,3.81-22.61.89-27.85-2.41l-4.31-2.7C1733.74,749.3,1718.31,739.64,1710.72,733.78Zm125.37-341c-4,7-11.44,17.6-18.68,27.86-7.48,10.6-14.54,20.61-18.67,27.82-.18.3-.35.61-.52.91-.89-27.23-1.78-52.3-2.59-72.11,0-.94-.06-1.91-.09-2.9-.11-5.4-.26-12-3.38-18.58,10.81,3.24,22,6.55,29.71,8.72,4.76,1.33,13.58,5.48,16.51,12.58C1840.23,381.53,1839.46,386.81,1836.09,392.76Z"/></svg>