<svg id="Inactive_Configs" data-name="Inactive Configs" xmlns="http://www.w3.org/2000/svg" viewBox="0 0 1920 1080"><defs><style>.cls-1{fill:#a7a9ac;}</style></defs><title>inactive</title><path class="cls-1" d="M1753.89,523.12C1735,462.91,1690.77,407.33,1657,371.29c-35.75-38.1-67.73-63-69.38-64.31-3.88-3.15-208-168.47-299-214.29C1262.46,79,1235,70,1208.84,64.14a4.74,4.74,0,0,0-1.32-.29,441.47,441.47,0,0,0-77.63-9.77c-45.2-1.73-76.88,3.3-78.21,3.52L898.08,86,494.8,153.06c-.9.14-12.81,1.89-29.18,4.86-59.37,11.39-113.92,33.52-162.13,65.78-49,32.79-73.8,64.19-82.19,76.17l-.06.09c-48.39,72.59-68.3,141.54-76.49,186.6-8.89,49-6.34,80.37-6.22,81.76,7.28,71.49,27.81,135.7,61,190.86a393.09,393.09,0,0,0,24,35.3c.05.08.12.15.17.22a373.11,373.11,0,0,0,69.77,70.13A274.25,274.25,0,0,0,355.07,900c114.37,47.24,248.54,45.29,252.81,45.2,11.1.12,730,7.82,788.3,7.84q15.13.8,29.78.8c56.55,0,107.54-8.94,151.9-26.67a294.58,294.58,0,0,0,88.83-55C1701.36,841.16,1807.12,681.51,1753.89,523.12ZM148.49,567.39c0-.31-2.55-31.68,6.17-79.44,8-44,27.56-111.4,74.87-182.39,27.71-39.56,109-113.07,237.93-137.81,16.7-3,28.71-4.78,28.83-4.8L899.81,95.82l153.52-28.36c1.39-.22,32.94-5.06,76.42-3.38a430.74,430.74,0,0,1,75.85,9.58c32.64,17.91,227.87,158,232,160.92,2.4,1.81,81.18,61.41,94,72.75l.36.28c81.48,59.57,127.76,121,128.22,121.56l.17.22c16.11,19.29,47.59,89.18,42.07,182a.33.33,0,0,0,0,.1s0,.06,0,.1c-1.82,90-29.63,135.06-54.17,174.83l-.11.19c-34.42,61.58-106.21,89.18-160.38,101.49-59.26,13.47-111,12.1-111.5,12.08h-.07l-640-1c-.78,0-80-.2-232.91-16C424,875,354.06,849.45,309.39,829.48c-43.58-19.48-72.27-37.58-77.85-41.2C194.2,739.13,158.68,667.53,148.49,567.39ZM1660,864.77c-64.52,57.81-153.16,84.15-263.43,78.29h-.27c-57.42,0-781.09-7.76-788.4-7.84h-.17c-1.33,0-135.19,2.5-248.85-44.44a264.46,264.46,0,0,1-59.35-33.9,352.26,352.26,0,0,1-49.16-45.72c13.51,7.55,32,17.21,54.71,27.35,45.39,20.31,116.43,46.27,197.15,54.63,153.47,15.91,233.16,16.1,233.93,16.1l639.85,1c.37,0,2,0,4.78,0a519.5,519.5,0,0,0,108.93-12.33c35.64-8.08,67-19.76,93.18-34.71,33-18.83,57.82-42.92,73.88-71.61,24-38.81,53.71-87.12,55.6-179.7,5.66-95.64-27.34-168.42-44.3-188.83-2.32-3.07-49.1-64.18-130-123.41-13.77-12.06-91.2-70.61-94.5-73.11l-.1-.07c-6.85-4.92-141.56-101.59-205.24-144a294.3,294.3,0,0,1,45.86,19.09c90.48,45.58,295.21,211.52,297.27,213.19l.11.08c.31.24,32.37,25,68.35,63.4,33,35.26,76.29,89.53,94.57,147.9l0,.1c27.74,82.51,9.52,163-10.66,216C1710,804.68,1675.91,850.53,1660,864.77Z"/></svg>