<svg width="1920" height="1080" viewBox="0 0 1920 1080" fill="none" xmlns="http://www.w3.org/2000/svg">
<g id="track">
<path id="out" d="M859.105 627.987C847.499 627.057 825 626 791 626L719.5 624.5H691H668L539 622C432 620.5 378 620.5 359.767 620.5C341.533 620.5 329.722 621.218 317.494 616.247C302.509 610.118 293.018 599.312 289.02 583.86C285.412 569.841 289.761 554.537 302.064 537.951C305.599 533.17 309 530.5 317.5 524C324.5 518.647 329.789 513.5 329.789 513.5C329.789 513.5 336.624 506.931 340 501.5C343.376 496.069 348.411 486.281 350.392 481C353.5 469 353.188 466.13 350.392 447.602C347.516 428.486 350.645 412.6 359.767 399.935C365.744 391.668 375.5 387.5 391.597 379.179L413 369.5C423.5 365.5 430.413 362.531 435.5 358.5C450.679 346.421 460.65 333.568 458.671 315.35C457.543 305.095 452.849 296.28 444.58 288.895C437.048 282.135 427.093 277.064 414.71 273.693C402.987 270.469 390.408 269.071 376.978 269.5C363.508 269.966 350.933 272.195 339.245 276.2C317.473 283.697 303.111 295.428 291 307C280.984 316.555 272 327.829 267 341C262.03 355.216 242.5 415.5 231 447.602C222.466 471.423 211.228 508.5 201 540C195 558.478 196.855 552.064 192.894 564.026C188.935 575.988 186.41 585.309 185.325 591.992C181.52 614.87 188.47 632.895 206.17 646.058C223.83 659.229 255.326 667.804 304.743 670.87C319.726 671.804 338 674.5 360.526 677C383.051 679.5 393 681.062 400 681.5C412.5 682.283 503.5 691 556.5 695.5C629.109 701.665 639 701.5 682.144 706.859C704.992 709.697 717.651 713.24 739.5 720.5C760.255 727.396 770 733.221 791 742.5C812.5 752 837.039 749.714 849 748C864.175 745.861 878.942 738.833 889 731C901 721.655 910.623 706.226 915 692.87C919.581 678.966 919.425 665.45 914.533 652.322C910.03 640.28 900.213 636.156 891.71 632.706C888.092 631.271 883.345 630.204 877.448 629.498L859.105 627.987Z" stroke="black" stroke-width="25"/>
<path id="full" d="M859.105 627.987C847.499 627.057 825 626 791 626L719.5 624.5H691H668L539 622C432 620.5 378 620.5 359.767 620.5C341.533 620.5 329.722 621.218 317.494 616.247C302.509 610.118 293.018 599.312 289.02 583.86C285.412 569.841 289.761 554.537 302.064 537.951C305.599 533.17 309 530.5 317.5 524C324.5 518.647 329.789 513.5 329.789 513.5C329.789 513.5 336.624 506.931 340 501.5C343.376 496.069 348.411 486.281 350.392 481C353.5 469 353.188 466.13 350.392 447.602C347.516 428.486 350.645 412.6 359.767 399.935C365.744 391.668 375.5 387.5 391.597 379.179L413 369.5C423.5 365.5 430.413 362.531 435.5 358.5C450.679 346.421 460.65 333.568 458.671 315.35C457.543 305.095 452.849 296.28 444.58 288.895C437.048 282.135 427.093 277.064 414.71 273.693C402.987 270.469 390.408 269.071 376.978 269.5C363.508 269.966 350.933 272.195 339.245 276.2C317.473 283.697 303.111 295.428 291 307C280.984 316.555 272 327.829 267 341C262.03 355.216 242.5 415.5 231 447.602C222.466 471.423 211.228 508.5 201 540C195 558.478 196.855 552.064 192.894 564.026C188.935 575.988 186.41 585.309 185.325 591.992C181.52 614.87 188.47 632.895 206.17 646.058C223.83 659.229 255.326 667.804 304.743 670.87C319.726 671.804 338 674.5 360.526 677C383.051 679.5 393 681.062 400 681.5C412.5 682.283 503.5 691 556.5 695.5C629.109 701.665 639 701.5 682.144 706.859C704.992 709.697 717.651 713.24 739.5 720.5C760.255 727.396 770 733.221 791 742.5C812.5 752 837.039 749.714 849 748C864.175 745.861 878.942 738.833 889 731C901 721.655 910.623 706.226 915 692.87C919.581 678.966 919.425 665.45 914.533 652.322C910.03 640.28 900.213 636.156 891.71 632.706C888.092 631.271 883.345 630.204 877.448 629.498L859.105 627.987Z" stroke="white" stroke-width="15"/>
</g>
</svg>
