<svg width="1920" height="1080" viewBox="0 0 1920 1080" fill="none" xmlns="http://www.w3.org/2000/svg">
<g id="track">
<path id="out" d="M168 504C168 706.136 334 864.5 525 864.5L1435.5 870C1633.5 849 1758.5 709.5 1751 503.5C1751 301.364 1581.5 138 1381.5 142L527.5 142C325.364 142 168 301.864 168 504Z" stroke="black" stroke-width="25"/>
<path id="full" d="M168 504C168 706.136 334 864.5 525 864.5L1435.5 870C1633.5 849 1758.5 709.5 1751 503.5C1751 301.364 1581.5 138 1381.5 142L527.5 142C325.364 142 168 301.864 168 504Z" stroke="white" stroke-width="15"/>
</g>
</svg>
