<svg width="1920" height="1080" viewBox="0 0 1920 1080" fill="none" xmlns="http://www.w3.org/2000/svg">
<g id="track">
<path id="out" d="M1016.5 959.5C952.5 956.5 927.5 953.5 896.5 952.5C871 951 831 948 771 944.5C734.5 942 655 936 635.5 935C635.5 935 569.684 930.61 527.5 928C479 925 420 920.5 401 919C374.065 916.874 290.5 916 275 899.5C265 888.5 259.116 876.75 265 852C267.259 842.406 270.5 835 276.5 826C282 819 287 812.5 292 808C296.687 803.782 302.548 797.306 314.5 790C330.861 780 341 774.527 356.5 769.5C393.5 757.5 425 754.885 447 751.5C466.5 748.5 504.5 751.5 560.5 761.5L708 789.5L771 801C795.012 803.38 816.828 807.674 830 808C848.769 808.442 866.268 806.73 880 804C895.804 800.89 906.995 796.862 919.5 789C942.369 774.684 947.5 766.5 959.5 746.5C961.236 743.607 963 740.5 968.5 730C970.772 725.663 972.5 722 977 711.5C981.5 701 988.769 681.5 1004.5 654.5C1008.87 647 1021 630.5 1028.5 620C1032.07 615 1040 604 1051 589L1080 552.5C1092.5 535.5 1122.5 494.5 1128.5 485.5C1134.5 475 1150.58 446.624 1174.5 408C1198.34 369.395 1217.32 346 1227.5 335.5C1236.05 326.689 1262.5 305 1293 296.5C1308.99 290.35 1352.5 282.5 1362 280.5C1370 278.816 1383.15 276.108 1398.5 272C1412.9 268.192 1422.86 266.637 1429.5 264C1440.04 259.892 1448.36 256.521 1453.5 251C1460 244.019 1463 242.5 1464.64 232C1467.29 215 1462.21 194.839 1446.5 180.5C1436.66 171.54 1432 165.5 1413.5 155C1408.5 151.5 1404.33 150.306 1395.5 147.5C1385.92 144.498 1380.94 143.051 1377.5 141.5C1370.87 138.54 1366 136.5 1360.5 131.5C1356.2 126.459 1351.5 120 1349.5 111C1347.47 93.4826 1346.94 80.2384 1359.01 67.1281C1371.77 53.2731 1399.5 40 1414 38.8461C1430.6 37.5249 1431.5 35.4488 1447.5 37.5C1458 38.8461 1457 38.8461 1474.86 43.4606C1496 47 1515.5 73 1520 86L1535.5 120.5C1542.13 132.24 1544 136.5 1549.5 146C1556.13 154.523 1560 162 1568 170C1576 178 1583.1 186.144 1597.5 191L1640.73 208.491C1656.86 214.169 1670.1 219.344 1680.44 224.062C1703 237 1709.5 241.5 1723.39 256.841C1731 267.5 1733.83 273.733 1736.5 281C1740.8 292.709 1744.72 304.894 1747.5 318C1754.61 351.634 1752.76 431 1750.5 448C1744 497 1737.1 541.5 1734.94 557.5C1733.26 570 1727 613 1724 634C1722.42 645.053 1714.12 709.205 1701.5 756C1689.5 800.5 1671.28 852.28 1666.5 869C1657.78 894.28 1652.16 913.144 1644.5 926.5C1631.07 949.941 1614.61 967.684 1595 979.5C1575.98 990.937 1538.5 1002 1491.5 995C1473.5 993.5 1440.13 990.954 1419.31 989.017C1403 987.5 1402.5 987.714 1386.5 986C1372.5 984.5 1338.5 982 1258 975.5L1082.5 963.5C1065.5 962.5 1034.5 960.344 1016.5 959.5Z" stroke="black" stroke-width="25"/>
<path id="full" d="M1016.5 959.5C952.5 956.5 927.5 953.5 896.5 952.5C871 951 831 948 771 944.5C734.5 942 655 936 635.5 935C635.5 935 569.684 930.61 527.5 928C479 925 420 920.5 401 919C374.065 916.874 290.5 916 275 899.5C265 888.5 259.116 876.75 265 852C267.259 842.406 270.5 835 276.5 826C282 819 287 812.5 292 808C296.687 803.782 302.548 797.306 314.5 790C330.861 780 341 774.527 356.5 769.5C393.5 757.5 425 754.885 447 751.5C466.5 748.5 504.5 751.5 560.5 761.5L708 789.5L771 801C795.012 803.38 816.828 807.674 830 808C848.769 808.442 866.268 806.73 880 804C895.804 800.89 906.995 796.862 919.5 789C942.369 774.684 947.5 766.5 959.5 746.5C961.236 743.607 963 740.5 968.5 730C970.772 725.663 972.5 722 977 711.5C981.5 701 988.769 681.5 1004.5 654.5C1008.87 647 1021 630.5 1028.5 620C1032.07 615 1040 604 1051 589L1080 552.5C1092.5 535.5 1122.5 494.5 1128.5 485.5C1134.5 475 1150.58 446.624 1174.5 408C1198.34 369.395 1217.32 346 1227.5 335.5C1236.05 326.689 1262.5 305 1293 296.5C1308.99 290.35 1352.5 282.5 1362 280.5C1370 278.816 1383.15 276.108 1398.5 272C1412.9 268.192 1422.86 266.637 1429.5 264C1440.04 259.892 1448.36 256.521 1453.5 251C1460 244.019 1463 242.5 1464.64 232C1467.29 215 1462.21 194.839 1446.5 180.5C1436.66 171.54 1432 165.5 1413.5 155C1408.5 151.5 1404.33 150.306 1395.5 147.5C1385.92 144.498 1380.94 143.051 1377.5 141.5C1370.87 138.54 1366 136.5 1360.5 131.5C1356.2 126.459 1351.5 120 1349.5 111C1347.47 93.4826 1346.94 80.2384 1359.01 67.1281C1371.77 53.2731 1399.5 40 1414 38.8461C1430.6 37.5249 1431.5 35.4488 1447.5 37.5C1458 38.8461 1457 38.8461 1474.86 43.4606C1496 47 1515.5 73 1520 86L1535.5 120.5C1542.13 132.24 1544 136.5 1549.5 146C1556.13 154.523 1560 162 1568 170C1576 178 1583.1 186.144 1597.5 191L1640.73 208.491C1656.86 214.169 1670.1 219.344 1680.44 224.062C1703 237 1709.5 241.5 1723.39 256.841C1731 267.5 1733.83 273.733 1736.5 281C1740.8 292.709 1744.72 304.894 1747.5 318C1754.61 351.634 1752.76 431 1750.5 448C1744 497 1737.1 541.5 1734.94 557.5C1733.26 570 1727 613 1724 634C1722.42 645.053 1714.12 709.205 1701.5 756C1689.5 800.5 1671.28 852.28 1666.5 869C1657.78 894.28 1652.16 913.144 1644.5 926.5C1631.07 949.941 1614.61 967.684 1595 979.5C1575.98 990.937 1538.5 1002 1491.5 995C1473.5 993.5 1440.13 990.954 1419.31 989.017C1403 987.5 1402.5 987.714 1386.5 986C1372.5 984.5 1338.5 982 1258 975.5L1082.5 963.5C1065.5 962.5 1034.5 960.344 1016.5 959.5Z" stroke="white" stroke-width="15"/>
</g>
</svg>
