<?xml version="1.0" encoding="utf-8"?>
<!-- Generator: Adobe Illustrator 24.0.1, SVG Export Plug-In . SVG Version: 6.00 Build 0)  -->
<svg version="1.1" id="Charlotte_Roval_2019" xmlns="http://www.w3.org/2000/svg" xmlns:xlink="http://www.w3.org/1999/xlink"
	 x="0px" y="0px" viewBox="0 0 1920 1080" style="enable-background:new 0 0 1920 1080;" xml:space="preserve">
<style type="text/css">
	.st0{fill:#A7A9AC;}
</style>
<title>inactive</title>
<g>
	<path class="st0" d="M1856.2,420.3c-1-17.1-3-27.7-3.3-29.2c-0.1-0.8-0.3-1.6-0.4-2.4c-0.2-1.2-0.4-2.3-0.6-3.5
		c-0.1-0.6-0.2-1.2-0.3-1.9c-0.2-1.3-0.5-2.7-0.7-4c-0.1-0.4-0.2-0.8-0.2-1.2c-0.3-1.5-0.6-3.1-0.9-4.6c0-0.2-0.1-0.4-0.1-0.6
		c-0.3-1.7-0.7-3.4-1.1-5.1c0,0,0,0,0,0c-24.1-112.4-86.9-195.4-187.1-247.1c-2.4-1.2-4.8-2.5-7.3-3.7c-2.9-1.4-5.8-2.8-8.8-4.2
		c-1-0.5-2-0.9-3-1.4c-1.9-0.9-3.9-1.8-5.8-2.6c-1.2-0.5-2.5-1-3.7-1.6c-1.7-0.7-3.5-1.5-5.2-2.2c-1.3-0.5-2.7-1.1-4-1.6
		c-1.7-0.7-3.3-1.3-5-2c-1.4-0.5-2.8-1.1-4.2-1.6c-1.6-0.6-3.2-1.2-4.8-1.8c-1.4-0.5-2.9-1-4.3-1.6c-1.5-0.6-3.1-1.1-4.6-1.6
		c-1.5-0.5-3-1-4.5-1.5c-1.5-0.5-3-1-4.5-1.5c-1.5-0.5-3.1-1-4.6-1.4c-1.5-0.5-2.9-0.9-4.4-1.4c-1.6-0.5-3.1-0.9-4.7-1.4
		c-1.4-0.4-2.9-0.9-4.3-1.3c-1.6-0.5-3.2-0.9-4.8-1.3c-1.4-0.4-2.8-0.8-4.2-1.2c-1.6-0.4-3.2-0.8-4.8-1.3c-1.4-0.4-2.8-0.7-4.1-1.1
		c-1.6-0.4-3.3-0.8-4.9-1.2c-1.4-0.3-2.7-0.7-4.1-1c-1.7-0.4-3.3-0.8-5-1.1c-1.3-0.3-2.6-0.6-4-0.9c-1.7-0.4-3.3-0.7-5-1.1
		c-1.3-0.3-2.6-0.5-3.9-0.8c-1.7-0.3-3.4-0.7-5.1-1c-1.3-0.2-2.5-0.5-3.8-0.7c-1.7-0.3-3.4-0.6-5.1-0.9c-1.2-0.2-2.4-0.4-3.7-0.7
		c-1.7-0.3-3.4-0.6-5.2-0.9c-1.2-0.2-2.4-0.4-3.6-0.6c-1.7-0.3-3.5-0.5-5.2-0.8c-1.2-0.2-2.3-0.4-3.5-0.5c-1.7-0.3-3.5-0.5-5.2-0.7
		c-1.1-0.2-2.2-0.3-3.4-0.5c-1.7-0.2-3.5-0.5-5.2-0.7c-1.1-0.1-2.2-0.3-3.3-0.4c-1.7-0.2-3.5-0.4-5.2-0.6c-1.1-0.1-2.1-0.2-3.2-0.4
		c-1.7-0.2-3.5-0.4-5.2-0.5c-1-0.1-2.1-0.2-3.1-0.3c-1.7-0.2-3.4-0.3-5.2-0.5c-1-0.1-2-0.2-3-0.3c-1.7-0.1-3.4-0.3-5.1-0.4
		c-1-0.1-2-0.2-2.9-0.2c-1.7-0.1-3.4-0.2-5.1-0.4c-1-0.1-1.9-0.1-2.9-0.2c-1.7-0.1-3.3-0.2-5-0.3c-1-0.1-1.9-0.1-2.9-0.2
		c-1.6-0.1-3.3-0.2-4.9-0.2c-0.9,0-1.9-0.1-2.8-0.1c-1.6-0.1-3.2-0.1-4.7-0.2c-0.9,0-1.9-0.1-2.8-0.1c-1.5-0.1-3.1-0.1-4.6-0.1
		c-1,0-1.9-0.1-2.8-0.1c-1.5,0-2.9-0.1-4.4-0.1c-1,0-1.9,0-2.9-0.1c-1.4,0-2.8,0-4.2-0.1c-1,0-2,0-3,0c-1.3,0-2.6,0-3.9,0
		c-0.5,0-0.9,0-1.4,0c-1.1,0-2.2,0-3.2,0c-0.1,0-0.3,0-0.4,0c0,0,0,0,0,0c-19.1,0.1-38.1,0.2-57.2,0.3
		c-196.4,0.9-398.2,1.8-662.9,13.4c-52.5,1.2-113.3,4.9-163.8,8.1c-9,0.6-17.7,1.1-26,1.6c-7.4,0.4-14.8,0.9-22.4,1.3c0,0,0,0,0,0
		c0,0,0,0,0,0c-91,3.7-168.2,25.4-229.7,64.5c-49.3,31.4-88.5,73.9-116.6,126.5c-47.1,88.1-46.6,172.9-46.5,178.6c0,0,0,0.1,0,0.1
		c0,0.3,0,0.6,0,1c0,2.3,0,4.6,0,6.9c0.3,39.4,7.2,78.2,20.5,115.5c12.6,35.3,30.9,69.2,54.5,100.9c13.1,17.6,27.8,34.5,43.7,50.2
		c0.3,0.9,0.9,1.6,1.7,2.2c0.6,0.4,1.2,0.8,1.8,1.3c30.3,29.3,64.5,54.3,98.9,71.7c0.1,0.1,0.3,0.1,0.4,0.2l0,0
		c69.5,35.1,214.8,86.7,292.9,114.4l9,3.2c78.6,27.9,132.4,35.8,133,35.9l0.5,0c16,0.7,31.6,1.2,47,1.7c1.9,0.1,3.8,0.1,5.8,0.2
		c1.3,0,2.5,0.1,3.8,0.1c13.5,0.7,28,1.1,43.2,1.1c3.7,0,7.5,0,11.3-0.1c17.5,0.2,35.2,0.3,53.6,0.3c58.7,0,124.2-0.9,209-2.1
		c28-0.4,58.3-0.8,91.1-1.3l0.6,0c9.8-1.4,18.4-2.7,26-3.9c27.5-3.1,46.4-8.5,61.1-12.7c2.5-0.7,4.8-1.4,7-2
		c20.7-5.7,39.2-13.5,55.2-23.1c17.1-6.5,35.4-13.5,53.5-20.4c47.8-18.3,97.1-37.2,124.3-46.9c47.1-16.8,90.2-36.8,128.7-59.7
		c41.3-20.9,77.3-46,107.4-75.2c42.4-41,73.5-90.1,92.4-145.8c7.4-21.9,12.4-43,15.7-62.6C1857.1,473.6,1857.8,444.1,1856.2,420.3z
		 M1386,71.7c3.6,0,7.3,0,11,0.1c2.5,0,5,0.1,7.5,0.1c1.3,0,2.5,0.1,3.8,0.1c30.7,0.8,64.6,3.5,99.6,9.3c0,0,0,0,0,0
		c1.5,0.2,2.9,0.5,4.4,0.7c0,0,0,0,0,0c1.4,0.3,2.9,0.5,4.3,0.8c0,0,0.1,0,0.1,0c1.4,0.3,2.9,0.5,4.3,0.8c0,0,0.1,0,0.1,0
		c1.4,0.3,2.9,0.5,4.3,0.8c0,0,0.1,0,0.1,0c1.4,0.3,2.9,0.6,4.3,0.9c0,0,0.1,0,0.1,0c1.4,0.3,2.9,0.6,4.3,0.9c0,0,0.1,0,0.1,0
		c1.4,0.3,2.9,0.6,4.3,0.9c0,0,0.1,0,0.1,0c1.4,0.3,2.9,0.6,4.3,1c0.1,0,0.1,0,0.2,0c1.4,0.3,2.9,0.7,4.3,1c0.1,0,0.1,0,0.2,0
		c1.4,0.3,2.9,0.7,4.3,1c0,0,0.1,0,0.1,0c1.4,0.4,2.9,0.7,4.3,1.1c0,0,0.1,0,0.1,0c1.4,0.4,2.9,0.7,4.3,1.1c0,0,0.1,0,0.1,0
		c1.4,0.4,2.9,0.8,4.3,1.2c0,0,0.1,0,0.1,0c1.5,0.4,2.9,0.8,4.4,1.2c0,0,0.1,0,0.1,0c1.5,0.4,2.9,0.8,4.4,1.2c0,0,0,0,0.1,0
		c1.5,0.4,2.9,0.9,4.4,1.3c0,0,0,0,0,0c1.5,0.4,2.9,0.9,4.4,1.3c0,0,0,0,0,0c116.7,36,228.7,116.3,258.7,287.4
		c0.4,2.1,0.7,4.3,1.1,6.5c0.2,1,0.3,1.9,0.4,2.9c1.5,10.5,6.1,50.3-1.4,102c-14.2,82.8-61.1,171.9-155.9,245.6
		c-40.7,29.2-91.8,55.9-156,77.3c-29.7,8.6-43.6,1.6-51.5-4.5c-8.2-6.3-11.5-13.1-12.4-19.1c8.7-9.3,18-17.9,28.2-25.3
		c10.8-7,25.4-14.5,41.8-22.3c24.9-10,45.7-20.3,61.4-28.7c16.9-8.1,33.1-16.5,46.8-24.9c0.2-0.1,0.5-0.3,0.7-0.4
		c31-19.3,74.7-72.6,81.9-120.1c0.5-3.2,0.8-6.3,1-9.4c0.2-4.5,0.1-8.8-0.4-12.9c-2.1-18-10.8-32.9-25.9-44.4
		c-1.3-1-2.6-1.9-4.1-2.9c-2-1.3-4.2-2.5-6.6-3.6c-8-3.7-18.1-6-29.9-3.6c-0.7,0.1-1.5,0.3-2.2,0.5c-1,0.3-2,0.5-3.1,0.9
		c-28.3,4-40.7,25.4-48.7,39.3c-1,1.8-2,3.4-2.9,4.9c-0.7,1.2-1.5,2.4-2.2,3.5c-3.3,4.9-6.6,10.2-9.8,15.8
		c-1.5,2.2-23.3,35.5-34.8,49.5c-0.4,0.5-0.8,1-1.2,1.4c-0.3,0.4-0.7,0.8-1.1,1.2c-0.1,0.1-0.1,0.2-0.2,0.3
		c-0.4,0.4-0.7,0.8-1.1,1.3c-0.1,0.1-0.2,0.2-0.2,0.3c-0.4,0.4-0.8,0.9-1.2,1.3c0,0-0.1,0.1-0.1,0.1c-0.4,0.5-0.9,0.9-1.3,1.4
		c-0.1,0.1-0.2,0.2-0.3,0.3c-0.4,0.5-0.9,0.9-1.3,1.4c-0.1,0.1-0.2,0.2-0.3,0.3c-0.4,0.4-0.9,0.9-1.3,1.3c-0.1,0.1-0.1,0.1-0.2,0.2
		c-0.5,0.5-1,1-1.5,1.4c-3.8,3.3-7.6,6.1-11.8,8.8c-57.1,36.8-108.4,18.8-126.6-5.7c-15.3-20.7-21.4-41.1-18-60.7
		c5-29.3,29.7-48.2,33.7-51c0.2-0.1,0.3-0.2,0.5-0.4c0,0,0,0,0,0c11.3-7.9,19.9-13.3,34.2-19.7c20.3-8.7,45.2-17.4,74.9-27.8
		l0.5-0.2l0.2-0.1c21-5.6,58.8-26.4,77.5-60.8c9.5-17.6,12.5-35.9,9-54.7c-0.1-0.3-0.1-0.6-0.2-0.9c-0.2-1.1-0.4-2.1-0.7-3.2
		c-0.1-0.6-0.3-1.2-0.4-1.8c-0.1-0.2-0.1-0.5-0.2-0.7c-0.1-0.4-0.2-0.8-0.3-1.2c-0.3-1.2-0.7-2.4-1.1-3.7c0,0,0,0,0,0
		c-7.6-23.2-25.1-53.9-43.5-82.1c-4.3-6.6-8.7-13.2-13-19.4c-2.1-3.1-4.3-6.2-6.4-9.2c-1-1.5-2.1-3-3.1-4.4
		c-8.2-11.6-15.8-21.7-21.9-29.5c-3.8-4.9-7.6-9.5-11.8-13.6c-7.6-7.7-16.7-14.8-28-19.1c-6.6-2.5-13.5-4-20.8-4.5
		c-17.7-3.2-40.9-4.4-72.9-3.1c-0.9,0-1.8,0.1-2.8,0.1c-0.2,0-0.7,0-1.5,0c0,0,0,0-0.1,0c-0.3,0-0.7,0-1.1,0c-0.1,0-0.2,0-0.3,0
		c-0.3,0-0.7,0-1.1,0c-3,0-7.6-0.1-13.4-0.2c-0.1,0-0.2,0-0.3,0c-0.9,0-1.8,0-2.8,0c-1.5,0-3,0-4.6-0.1c-0.2,0-0.5,0-0.7,0
		c-0.6,0-1.1,0-1.7,0c-1,0-2.1,0-3.1,0c-26.8-0.3-68.5-0.9-114.4-1.3c-4.3-1.1-8.1-1.6-11-1.8c-0.1,0-0.2,0-0.2,0
		c-0.1,0-0.1,0-0.2,0c-2.7-0.2-4.7,0-5.4,0l-123.5,1.1c-16.4,0-31.9,0-45.9,0.2c-0.1,0-0.3,0-0.4,0c-1.3,0-2.6,0-3.9,0
		c-14.5,0.1-27.3,0.3-37.7,0.6c-0.6,0-1.3,0-2,0.1c-3,0.1-6.5,0.2-10.2,0.3c-8.1,0.3-17.5,0.7-26.8,1.1c-0.6,0-1.2,0-1.7,0.1
		c-4.6,0.2-9.2,0.4-13.5,0.6c-0.9,0-1.8,0.1-2.7,0.1c-0.6,0-1.1,0-1.7,0.1c-6.6,0.3-12.6,0.5-17.4,0.6
		c-43.2,1.3-68.8,25.1-76.2,70.9c-0.2,1.5-0.5,3-0.7,4.5c-0.4,3.4-0.8,7.5-1.1,11.9c-0.2,2.2-0.3,4.5-0.4,6.9c0,0.6-0.1,1.2-0.1,1.8
		c-0.1,1.8-0.2,3.7-0.3,5.6c-0.1,1.9-0.2,3.8-0.2,5.8c-0.5,15.5-0.7,32.2-0.7,44.8c0,0,0,0,0,0c0,0.5,0,1,0,1.5c0,2.5,0,4.9,0,7
		c0,2.1,0,4,0,5.5c0,3.1,0,5.1,0.1,5.6l0,0c0,0.1,0,0.7,0,1.5c0.2,4.6,1.1,19.2,5.8,37.4c5.3,23.2,15.1,50.2,33.4,70
		c12.1,13.4,28,23.7,48.7,27.6l71.7,16c33.9,7.9,73.7,17,105,23.5c-0.1,0.3-0.2,0.6-0.2,0.9c-0.4,2.7,1.4,5.3,4.2,5.7
		c69,10.8,122.1,37.5,154.7,77.4c18.2,28.3,28.4,63.2,30.5,104.4l-0.5,13.2l-3.1,88.8c0,0,0,0,0,0l0,0.3l0,0c0,1.1,0,2.3,0.1,3.5
		c-0.1,4.5-1.1,12.9-6.6,19.3c-2.5,2.8-5.6,5-9.4,6.5l-425.3-3.4c-0.8-0.5-1.7-0.8-2.7-0.8l-140.5-1.9h-193l-54.5-0.4l-0.1,0
		c-6,0.1-12.1,0-18.3-0.2c-1.2,0-2.5-0.1-3.7-0.2c-0.1,0-0.1,0-0.2,0c-3.5-0.2-6.9-0.4-10.4-0.6c-0.4,0-0.8-0.1-1.2-0.1
		c-59.2-4.6-118.5-21.2-133.2-25.6c-2.1-0.6-3.3-1-3.4-1c0,0,0,0,0,0c-1.6-0.5-62.1-20.5-125.9-65c-62.8-60.7-120.4-152-118.6-270.1
		l0-0.1v0v0v0v0l0-0.1c0,0,0,0,0,0c0-2-0.7-85.9,45.6-171.4c61.5-113.6,178.3-178.7,337.6-188.1c3.3-0.1,143.2-4.1,206.2,4
		c3.1,0.4,6.4,0.7,10.2,1c15.8,1.3,39.6,3.3,77.7,16.8c4.8,1.7,10.5,4.6,16.5,7.6c12.9,6.5,27.6,13.8,43,15.2
		c18.3,1.7,33.8-5.8,46.2-22.2c0.9-1.2,1.9-2.5,2.9-4.1c7.9-11,20.5-28.6,38.7-32.8l490.4-10.2C1383.6,71.7,1384.8,71.7,1386,71.7z
		 M1392.9,166.3l0.1,0l0.1,0c12.9-0.5,24.4-0.7,34.6-0.5c-2.5,0.9-5.1,1.8-7.6,2.8c-1.5,0.6-2.9,1.3-4.5,2.1
		c-14.6,7.7-31,25.2-35.9,46c-0.8,3.6-1.4,7.6-1.5,12.1c0,0,0,0,0,0c-0.1,7.9,1.6,17,6.8,26.4c0.3,0.6,0.7,1.2,1,1.8
		c2.1,3.6,4.7,7.2,8,10.8v0c6.4,7.1,16,15.8,26.2,24.7c2.9,2.5,5.9,5.1,8.8,7.6c1.7,1.4,3.4,2.9,5,4.3c11.8,10.1,23.2,20.3,30,28
		c7.2,8.3,11.7,17,13.3,26c0.7,4.1,0.9,8.2,0.4,12.4c-1.5,14.8-10.1,28-19.5,37.4c-2.6,2.6-5.3,4.9-7.9,6.9
		c-6.9,5.2-13.9,9.8-20.8,13.7c-15.1,8.5-29.4,13.3-40.5,13.5c-0.6,0-1.2,0-1.8,0c-25.5,0-42.7-10.4-52.1-31.6
		c-2.5-5.6-4.4-12-5.8-19.2c-8.9-45.9-36.2-184.4-36.5-185.8l-0.1-0.3c-2-7.4-4.5-13.7-7.3-19.1c-5.1-9.8-11.3-16.6-17.4-21.4
		c67.5,0.7,121.5,1.5,124.6,1.5C1392.9,166.3,1392.9,166.3,1392.9,166.3z M1388.5,754.7c-2.3-8-4.9-16.6-7.6-25.6
		c2.4-0.7,4.6-1.9,6.7-3.7c2.5,7.2,5,13.7,7,19c2.8,7.1,5.1,13.1,7.3,18.4C1396.7,761.6,1392.3,758.6,1388.5,754.7z M1322.6,909.1
		c-16.3,6.2-31.5,11.9-44.3,16.7c-1.9,0.6-3.7,1.2-5.4,1.7c-46.5,13.8-72.7,18.5-99.3,20c-5.7,0.2-11.8,0.4-18.2,0.6
		c-3.7,0.1-7.4,0.1-11.3,0.1c-9.5,0-20.2,0-31.6,0.1c5.8-3.5,11.3-8,16-13.3c11.7-13.2,17.3-29.8,15.9-46.8
		c-0.7-8.8-4.7-22.5-13.7-34.6c-5.9-7.9-12.8-13.7-20.6-17.3c93.1,0.9,171.9,2.1,173.5,2.2l0.1,0l0.1,0c6.1-0.1,11.6-1,16.4-2.7
		l8.1,0.1c0,0,0,0,0,0l38.1,0.3c0.4,0.1,0.8,0.2,1.2,0.3c3.1,0.6,9.5,1.2,17.4,1.2c5.5,0,11.7-0.3,18-0.9c-2.4,7.8-5.7,16-10.5,24.3
		c-10.7,18.7-26.8,34.6-47.5,47.3C1324.2,908.4,1323.4,908.7,1322.6,909.1z M490.4,875.2l-75-26.6c-2.9-3.3-5.7-7.7-4.7-11.3
		c1.2-4.2,7.7-7,10.5-7.9h115.6l280.4,2.3c-16.7,7.2-33.3,22.4-37.2,50.7c-1.9,14.2,2,36.9,15.1,53c5.7,7,12.8,12.3,20.9,15.6
		c-16.7,0-27.3,0-29.1,0c-0.1,0-0.2,0-0.3,0l0,0c0,0,0,0,0,0c-24.5,0-36.1-25.2-36.6-43.1c-0.3-14-4.8-24.4-13.4-31
		c-8-6.2-17.9-7.7-25.4-7.7c-5.7,0-10,0.8-11,1.1c-3.4,0.5-62.9,9.9-92,13.3c-48.6,5.7-61.4,5.4-80.1,1.3
		C516,882.1,503.3,878.9,490.4,875.2z M1319.7,393.4c0.2,1.2,0.5,2.4,0.8,3.6c0.1,0.4,0.2,0.8,0.3,1.2c0.2,0.8,0.4,1.5,0.6,2.3
		c0.1,0.5,0.3,1,0.4,1.4c0.2,0.7,0.4,1.3,0.5,2c0.2,0.5,0.3,1,0.5,1.5c0.2,0.6,0.4,1.2,0.6,1.8c0.2,0.5,0.4,1,0.5,1.5
		c0.2,0.6,0.4,1.1,0.6,1.7c0.2,0.5,0.4,1,0.6,1.5c0.2,0.5,0.4,1,0.6,1.6c0.2,0.5,0.4,1,0.6,1.5c0.2,0.5,0.4,1,0.7,1.5
		c0.2,0.5,0.5,1,0.7,1.4c0.2,0.5,0.4,0.9,0.7,1.4c0.2,0.5,0.5,0.9,0.8,1.4c0.2,0.4,0.4,0.8,0.6,1.1c0,0.1,0.1,0.1,0.1,0.2
		c0.3,0.5,0.5,0.9,0.8,1.4c0.3,0.4,0.5,0.8,0.8,1.2c0.3,0.4,0.6,0.9,0.9,1.3c0.3,0.4,0.5,0.8,0.8,1.2c0.3,0.4,0.6,0.8,0.9,1.3
		c0.3,0.4,0.5,0.7,0.8,1.1c0.3,0.4,0.6,0.8,1,1.2c0.3,0.4,0.6,0.7,0.9,1c0.3,0.4,0.7,0.8,1,1.1c0.3,0.3,0.6,0.7,0.9,1
		c0.3,0.4,0.7,0.7,1.1,1.1c0.3,0.3,0.6,0.6,0.9,0.9c0.4,0.3,0.7,0.7,1.1,1c0.3,0.3,0.7,0.6,1,0.9c0.4,0.3,0.8,0.6,1.2,1
		c0.3,0.3,0.7,0.6,1,0.8c0.4,0.3,0.8,0.6,1.2,0.9c0.4,0.3,0.7,0.5,1.1,0.8c0.4,0.3,0.8,0.6,1.2,0.8c0.4,0.2,0.7,0.5,1.1,0.7
		c0.4,0.3,0.9,0.5,1.3,0.8c0.4,0.2,0.8,0.5,1.2,0.7c0.4,0.2,0.9,0.5,1.3,0.7c0.4,0.2,0.8,0.4,1.2,0.6c0.4,0.2,0.9,0.4,1.4,0.6
		c0.4,0.2,0.8,0.4,1.3,0.6c0.5,0.2,0.9,0.4,1.4,0.6c0.4,0.2,0.9,0.3,1.3,0.5c0.5,0.2,1,0.3,1.4,0.5c0.5,0.2,0.9,0.3,1.4,0.5
		c0.5,0.2,1,0.3,1.5,0.4c0.5,0.1,0.9,0.3,1.4,0.4c0.5,0.1,1,0.3,1.5,0.4c0.5,0.1,1,0.2,1.5,0.3c0.5,0.1,1,0.2,1.5,0.3
		c0.5,0.1,1,0.2,1.5,0.3c0.5,0.1,1.1,0.2,1.6,0.3c0.5,0.1,1.1,0.2,1.6,0.2c0.5,0.1,1.1,0.1,1.6,0.2c0.5,0.1,1.1,0.1,1.6,0.2
		c0.5,0.1,1.1,0.1,1.7,0.1c0.6,0,1.1,0.1,1.7,0.1c0.6,0,1.1,0.1,1.7,0.1c0.6,0,1.2,0,1.7,0.1c0.6,0,1.1,0,1.7,0c0.3,0,0.5,0,0.8,0
		c0,0,0,0,0,0s0,0,0,0c0.7,0,1.3,0,2,0c20.5-0.4,43-12.7,57.3-22.2c0.6-0.4,1.1-0.8,1.7-1.1c1.1-0.7,2.1-1.5,3.1-2.1
		c1.9-1.4,3.7-2.6,5.1-3.7c3.4-2.6,6.9-5.7,10.3-9.2c10.2-10.7,19.3-25.4,21-42c0.1-1.2,0.2-2.3,0.2-3.4c0.6-15-4.8-29.3-16.4-42.5
		c-8.2-9.4-22.4-21.6-36.1-33.4c-1.3-1.1-2.6-2.3-3.9-3.4c-11.7-10-23.2-20.1-30.2-27.9c-5.8-6.5-9.7-13.2-11.7-20.3
		c-2-7-2.1-14.3-0.3-21.8c3.8-16,16.1-30.5,27.9-37.8c0.4-0.3,0.9-0.5,1.3-0.8c0.9-0.5,1.7-1,2.6-1.4c0.4-0.2,0.9-0.4,1.3-0.6
		c0.4-0.2,0.8-0.4,1.3-0.5c3.8-1.5,7.4-2.8,10.8-3.8c1-0.3,2-0.6,3-0.9c0.3-0.1,0.6-0.2,0.8-0.2c10.5-2.9,19.7-4,27.9-3.7
		c19.8,3.6,31.4,9.6,40,16.9c4.9,4.4,9.2,9.4,13.2,14.4c0.6,0.7,1.2,1.5,1.7,2.2c23.7,30.4,72.3,99.1,86.2,141.5
		c0.4,1.1,0.7,2.2,1,3.4c0,0.1,0,0.2,0.1,0.2c0.1,0.3,0.2,0.6,0.2,0.9c0.2,0.8,0.4,1.6,0.6,2.4c0.1,0.4,0.2,0.8,0.3,1.2
		c0.2,0.8,0.3,1.6,0.5,2.3c0.1,0.4,0.1,0.8,0.2,1.1c0.2,1.1,0.3,2.1,0.5,3.2c0.1,0.5,0.1,1,0.2,1.5c0.1,0.6,0.1,1.1,0.2,1.6
		c0.1,0.7,0.1,1.4,0.1,2c0,0.3,0,0.6,0,0.8c0.2,6.3-0.4,12.3-1.8,18c0,0.1,0,0.1,0,0.2c-0.1,0.6-0.3,1.2-0.5,1.8
		c-0.1,0.3-0.1,0.5-0.2,0.8c-0.1,0.3-0.2,0.5-0.2,0.8c-3.4,11.6-10.1,22.8-19.8,33.5c-1.1,1.2-2.3,2.4-3.4,3.6
		c-16.4,16.5-37.2,28.2-52,33.8c-1,0.4-2,0.7-2.9,1.1c-68.8,18.2-138.4,35.1-191,46.3c-16.6,3.5-32.7,3.4-45.3-0.5
		c-6.7-2.1-25.3-11.5-31.9-15c-17.6-10-30.8-10.3-40.4-10.5c-1.3,0-2.6-0.1-3.8-0.1c-13.6-0.6-54.7-2.4-55.1-2.4
		c-55.8-2.6-147.9-10.9-208.8-21.2c-32.5-11.1-55.9-35.5-69.4-72.4c-1.6-4.4-3-8.7-4.1-12.8c-2.2-9-3.7-17.5-4.8-24.9
		c-0.1-0.7-0.2-1.3-0.3-2c-0.2-1.3-0.3-2.5-0.5-3.7c-0.1-1.2-0.3-2.4-0.4-3.5c-0.1-1.1-0.2-2.2-0.3-3.2c-0.1-1.5-0.2-2.9-0.3-4.2
		c0-0.5-0.1-1-0.2-1.4c0-1.9,0-5.1-0.1-9.2c0,0,0,0,0-0.1c0-0.4,0-0.7,0-1.1c0-0.1,0-0.2,0-0.3c0-0.4,0-0.8,0-1.3c0,0,0,0,0,0
		c0-0.4,0-0.8,0-1.2c0-0.1,0-0.2,0-0.2c0-0.5,0-0.9,0-1.4c0,0,0,0,0,0c0-0.5,0-1,0-1.5c0-0.1,0-0.2,0-0.3c0-0.4,0-0.9,0-1.3
		c0-0.1,0-0.1,0-0.2c0-0.4,0-0.8,0-1.2c0-0.2,0-0.4,0-0.6c0-0.4,0-0.7,0-1.1c0-0.1,0-0.3,0-0.4c0-0.4,0-0.8,0-1.3c0-0.1,0-0.3,0-0.4
		c0-0.4,0-0.8,0-1.2c0-0.2,0-0.4,0-0.6c0-0.4,0-0.8,0-1.1c0-0.2,0-0.4,0-0.5c0-0.5,0-1,0-1.5c0-0.1,0-0.1,0-0.2c0-0.5,0-1.1,0-1.6
		c0-0.2,0-0.4,0-0.6c0-0.4,0-0.9,0-1.3c0-0.2,0-0.3,0-0.5c0-0.4,0-0.9,0-1.3c0-0.2,0-0.4,0-0.6c0-0.4,0-0.8,0-1.2c0-0.2,0-0.5,0-0.7
		c0-0.4,0-0.7,0-1.1c0-0.3,0-0.5,0-0.8c0-0.3,0-0.7,0-1c0-0.3,0-0.6,0-0.9c0-0.3,0-0.7,0-1c0-0.3,0-0.5,0-0.8c0-0.4,0-0.9,0-1.3
		c0-0.2,0-0.4,0-0.6c0-0.4,0-0.9,0-1.3c0-0.2,0-0.4,0-0.6c0-0.6,0-1.3,0-1.9c0-0.1,0-0.1,0-0.2c0-0.6,0-1.1,0-1.7c0-0.2,0-0.4,0-0.7
		c0-0.4,0-0.8,0-1.2c0-0.3,0-0.5,0-0.8c0-0.4,0-0.7,0-1.1c0-0.3,0-0.6,0-0.9c0-0.3,0-0.7,0-1c0-0.3,0-0.6,0-0.9c0-0.4,0-0.7,0-1.1
		c0-0.3,0-0.5,0-0.8c0-0.4,0-0.7,0-1.1c0-0.3,0-0.5,0-0.8c0-0.4,0-0.7,0-1.1c0-0.2,0-0.5,0-0.7c0-0.5,0-1,0-1.4c0-0.1,0-0.3,0-0.4
		c0-0.6,0-1.2,0.1-1.8c0-0.2,0-0.4,0-0.5c0-0.4,0-0.9,0.1-1.3c0-0.2,0-0.4,0-0.6c0-0.4,0-0.8,0-1.1c0-0.2,0-0.5,0-0.7
		c0-0.4,0-0.7,0-1c0-0.2,0-0.5,0-0.7c0-0.4,0-0.7,0.1-1c0-0.2,0-0.5,0-0.7c0-0.3,0-0.7,0.1-1c0-0.2,0-0.5,0-0.7c0-0.3,0-0.7,0.1-1
		c0-0.2,0-0.5,0-0.7c0-0.4,0-0.7,0.1-1.1c0,0,0,0,0,0c0-0.2,0-0.4,0-0.6c0-0.4,0.1-0.8,0.1-1.2c0-0.1,0-0.3,0-0.4
		c0-0.5,0.1-1,0.1-1.6c0-0.2,0-0.4,0-0.7c0-0.3,0-0.6,0.1-0.9c0-0.2,0-0.5,0.1-0.7c0-0.3,0-0.5,0.1-0.8c0-0.3,0-0.5,0.1-0.7
		c0-0.2,0-0.5,0.1-0.7c0-0.3,0-0.5,0.1-0.7c0-0.2,0-0.5,0.1-0.7c0-0.3,0-0.5,0.1-0.8c0-0.2,0-0.4,0.1-0.6c0-0.3,0.1-0.5,0.1-0.8
		c0-0.2,0-0.4,0.1-0.6c0-0.3,0.1-0.5,0.1-0.8c0-0.2,0-0.3,0.1-0.5c0-0.3,0.1-0.5,0.1-0.8c0-0.1,0-0.2,0-0.3c0-0.3,0.1-0.6,0.1-0.9
		c5.7-43.7,27.7-65.5,67.2-66.6c0.1,0,0.3,0,0.4,0c7.8-0.2,18.5-0.7,30-1.2c1.7-0.1,3.4-0.1,5.1-0.2c0.9,0,1.9-0.1,2.8-0.1
		c2.7-0.1,5.4-0.2,8.1-0.3c0.2,0,0.4,0,0.6,0c11-0.5,21.5-0.9,29-1.1l87.9-0.8c43.3,0,93,0.3,138.6,0.7c12.3,3.7,29.2,14.1,37,43.2
		c0.1,0.6,0.5,2.5,1.1,5.6c4.6,23.4,22.2,112.5,31.7,161.7c0.1,0.4,0.1,0.7,0.2,1c0.3,1.6,0.6,3.2,0.9,4.7c0.6,2.9,1.1,5.6,1.6,8.1
		c0.1,0.5,0.2,1,0.3,1.5C1319.3,391.4,1319.5,392.4,1319.7,393.4z M1386,784.5c1.8,9.4,3.1,24.2-0.3,41.6c-0.4,0.1-0.8,0.1-1.2,0.1
		l-36.9-0.3c-12.2-3.1-18.1-10.8-20.8-17.5c0.3-3.8,0.4-8,0.2-12.5l3.5-130.5l0-0.2l0-0.2c-0.1-1.4-1.7-34.1-26.9-70.7
		c-2.8-4.1-5.8-8.1-9-11.9c-11.2-17.1-25.2-31.9-41.6-44c-4.4-3.3-8.8-6.2-13.1-8.8c3.9,1.2,7.7,2.5,11.2,3.7
		c13.7,5.7,24.7,11.7,31.5,17.7c0.4,0.4,0.8,0.8,1.2,1.1c1.7,1.7,3.5,3.3,5.2,5c7.1,6.7,14.2,13.4,21.3,22.8
		c7.4,10.8,14.8,24.8,23.1,44c3.6,9.6,7,20.7,10.4,33.7l18,63.3c0.6,2.7,5.3,24.2,17.9,38.8c2.1,7.2,3.8,13.8,5.2,19.5
		C1385.2,780.7,1385.6,782.5,1386,784.5z M1326.7,825.8l-4.6,0c0.6-1,1.1-2.1,1.5-3.2C1324.6,823.7,1325.6,824.8,1326.7,825.8z
		 M1354,648.9c-0.5-1.2-0.9-2.4-1.4-3.6c-3.4-9.1-6.7-17.3-9.9-24.8c-7.8-21.1-15.9-35.4-24.2-46.3c-10.9-16.1-21.5-25.6-33.6-34.3
		c-1.3-0.9-2.5-1.8-3.8-2.7c-0.9-0.6-1.7-1.2-2.6-1.8c-0.4-0.3-0.9-0.6-1.3-0.9c-2.2-1.5-4.7-2.9-7.5-4.3
		c-41.9-22.9-115.2-39.5-150.4-46.5c15.8,1.2,30.5,2.1,43.3,2.6c0.4,0,41.5,1.9,55.1,2.5c1.3,0.1,2.6,0.1,4,0.1
		c9.5,0.2,20.3,0.4,35.7,9.2l0.1,0.1c1,0.5,24.7,13,33.8,15.8c5.9,1.8,14.3,3.5,25,3.5c7.3,0,15.8-0.8,25.3-2.8
		c27.7-5.9,60-13.4,94.5-21.8c-13.3,8-20.6,14.2-22.1,15.6c-7.2,5.2-13.3,10.7-18.3,16.9c-8.1,7.6-9.4,9.2-12.8,13.4
		c-1.5,1.9-3.3,4.2-6.4,7.8c-18,21.1-17.2,53.1-15.2,70.4c0.5,7,1.4,13.5,2.2,19.5c0.2,1.4,0.4,2.8,0.6,4.1
		c2.6,19.2,11.4,49.1,19.9,74.1c-2,2.7-4,4.3-6,4.8C1370.2,694.8,1361.4,668.7,1354,648.9z M935.2,947.1
		c-20.6-0.1-40.5-0.3-59.4-0.3c-2.8,0-5.5,0-8.3,0c-11.8-0.5-23-1-33.2-1.7c-3.9-0.3-7.6-1-11.1-2c-25.7-10.1-31-36.9-32.1-46.5
		c-1.7-14.6,2.6-28.6,12.1-39.4c8.1-9.2,19.3-15.2,28.7-15.4c66.7-1.2,175.8-1.1,259.4,0.2h0c27.9,0.4,41.8,30.7,43.1,46.9
		c1.2,14.3-3.6,28.2-13.4,39.4c-9.1,10.3-22,17.3-32.8,17.7C1041.7,947.9,987.5,947.5,935.2,947.1z M1404,740.9
		c-2.6-6.8-5.8-15.4-9.1-24.9c0.6-1,1.1-2.1,1.6-3.2l0.8-1.7l-24.4-84.3c-0.2-0.8-1.1-5.3-1.9-11.9c-1-14.8-0.1-31,7.3-47.9
		c-2.2,18.2,1.2,37.2,9.7,53.4c10.9,20.8,29.1,35.3,52.4,42c1.2,0.4,2.5,0.7,3.7,1c0.3,0.1,0.7,0.2,1,0.2c1,0.2,2,0.5,2.9,0.7
		c0.3,0.1,0.5,0.1,0.8,0.2c1.2,0.3,2.4,0.5,3.6,0.7c0.3,0,0.5,0.1,0.8,0.1c0.9,0.2,1.9,0.3,2.8,0.5c0.3,0.1,0.7,0.1,1,0.1
		c1.1,0.1,2.1,0.3,3.2,0.4c0.1,0,0.2,0,0.3,0c1.1,0.1,2.3,0.2,3.4,0.3c0.3,0,0.7,0,1,0.1c0.9,0.1,1.7,0.1,2.6,0.1c0.3,0,0.6,0,0.9,0
		c1.1,0,2.2,0.1,3.2,0.1c0.1,0,0.1,0,0.2,0c0.1,0,0.3,0,0.4,0c1.2,0,2.3,0,3.4-0.1c0.2,0,0.4,0,0.7,0c1.2-0.1,2.4-0.1,3.6-0.2
		c0.3,0,0.6,0,0.8-0.1c1.2-0.1,2.4-0.2,3.6-0.4c0.2,0,0.3,0,0.5-0.1c1.1-0.1,2.2-0.3,3.3-0.5c0.2,0,0.4-0.1,0.7-0.1
		c1.1-0.2,2.3-0.4,3.4-0.6c0.3-0.1,0.5-0.1,0.8-0.2c1.1-0.2,2.3-0.5,3.4-0.8c0.1,0,0.2-0.1,0.3-0.1c1.1-0.3,2.1-0.5,3.1-0.8
		c0.2-0.1,0.5-0.1,0.7-0.2c1.1-0.3,2.1-0.6,3.2-1c0.2-0.1,0.5-0.2,0.7-0.2c1.1-0.3,2.1-0.7,3.2-1.1c0.1,0,0.1,0,0.2-0.1
		c1-0.4,2-0.7,3-1.1c0.2-0.1,0.4-0.2,0.7-0.3c1-0.4,2-0.8,2.9-1.2c0.2-0.1,0.4-0.2,0.6-0.3c0.9-0.4,1.9-0.8,2.8-1.3
		c0.1,0,0.1-0.1,0.2-0.1c1-0.5,1.9-0.9,2.8-1.4c0.2-0.1,0.4-0.2,0.6-0.3c0.9-0.5,1.8-0.9,2.7-1.4c0.2-0.1,0.4-0.2,0.6-0.3
		c0.8-0.5,1.7-0.9,2.5-1.4c0.1-0.1,0.2-0.1,0.3-0.2c0.9-0.5,1.7-1,2.6-1.5c0.2-0.1,0.4-0.2,0.6-0.4c0.8-0.5,1.6-1,2.4-1.6
		c0.2-0.1,0.3-0.2,0.5-0.3c0.7-0.5,1.5-1,2.2-1.5c0.1-0.1,0.2-0.2,0.4-0.2c0.8-0.5,1.5-1.1,2.3-1.6c0.2-0.1,0.4-0.3,0.6-0.4
		c0.7-0.5,1.5-1.1,2.2-1.6c0.1-0.1,0.3-0.2,0.4-0.3c0.6-0.5,1.3-1,1.9-1.5c0.1-0.1,0.3-0.2,0.4-0.3c0.7-0.5,1.3-1.1,2-1.6
		c0.2-0.1,0.3-0.3,0.5-0.4c0.6-0.5,1.3-1.1,1.9-1.6c0.1-0.1,0.2-0.2,0.3-0.3c0.6-0.5,1.1-1,1.7-1.5c0.1-0.1,0.2-0.2,0.4-0.3
		c0.6-0.5,1.2-1.1,1.7-1.6c0.1-0.1,0.3-0.3,0.4-0.4c0.2-0.2,0.3-0.3,0.5-0.5c15.8-13.9,29.8-34.5,57.4-79.3
		c9.7-14.4,19.4-25.4,29.1-32.9c0.6-0.5,1.3-1,1.9-1.5c1.9-1.4,3.9-2.7,5.8-3.8c3.5-2,6.9-3.6,10.4-4.7c5.9-0.8,12.6-0.6,20.4,0.7
		c5.3,0.9,18.7,4.5,27.9,18.6c9,13.9,10.6,33.7,4.6,57.1l-0.1,0.2c-0.1,0.6-13.1,59.2-85.9,107.1c-0.2,0.2-9.2,6.2-25.3,15.2
		c-11.3,5.4-23.1,10.7-34.8,16c-14.3,6.4-28.2,12.7-40.8,18.9l-34.6,10.6c-37.3,11.1-65,10.9-76,10.1
		C1410.7,757.8,1407.7,750.3,1404,740.9z M1480.6,768.9c-2.2,1.5-4.4,3-6.5,4.5C1476.2,771.1,1478.5,769.5,1480.6,768.9z
		 M308.8,800.8c0.1,0,1.3,0.4,3.5,1c0.1,0,0.3,0.1,0.4,0.1c0.2,0,0.3,0.1,0.5,0.1c12.8,3.8,52.1,14.7,97.1,21.4
		c-3.8,2.3-7.6,5.9-9.1,10.9c-1.1,3.7-0.8,7.5,0.8,11.5c-9.7-3.6-19.1-7.2-28.1-10.7c-52.1-21-88.4-37.4-90.7-38.4
		c-0.3-0.1-0.6-0.3-0.9-0.4c-11.4-5.8-23.9-13.1-37-21.9C280.2,791.9,308.4,800.6,308.8,800.8z M652.5,932.7l-98.4-34.9
		c12.9,0.1,29.2-1.3,55.5-4.4c30-3.5,91.9-13.3,92.5-13.4l0.3-0.1c0.2,0,17.2-3.8,28.2,4.7c6.1,4.7,9.3,12.6,9.5,23.4
		c0.3,14,6.4,31.5,18.8,42.5c-16.2-1.1-30.6-2.5-42.8-3.9C695.8,943.6,674.6,938.9,652.5,932.7z M1396.1,824.2
		c2.7-15.9,2.2-32.1-1.6-47.5c-0.5-2.1-1.1-4.3-1.7-6.6c4.1,2,8.7,3.1,13.8,3.2c6.3,13.7,11.7,21.7,21.4,32.6
		c0.4,0.5,0.8,0.9,1.2,1.3c-6.2,4.6-12,8.5-18.1,11.7C1406.9,821.3,1401.7,823,1396.1,824.2z M1435.4,799.3
		c-7.7-8.6-12.4-15.2-17.3-25c1.6,0,3.2,0.1,5.1,0.1c9.8,0,23.6-0.8,40.5-4c-3.3,4.6-5.8,10-6.9,15.7c-4.6,3.5-8.9,6.8-13,10
		c-2.3,1.8-4.5,3.5-6.6,5.1C1436.6,800.6,1436,800,1435.4,799.3z M1458.4,805.7c2.3,6,6.6,12.3,14.2,18.2c1.2,0.9,2.4,1.8,3.7,2.6
		c-8.1-2.1-16.5-6-25.1-12.4C1453.6,811.3,1456,808.5,1458.4,805.7z M692.3,85c28.8,0,74.7-1.1,115.1-2c20.7-0.5,41.8-1,56.6-1.2
		l-1.5,0.7l6.3-0.1c-10.7,8.2-18.5,19.1-23.7,26.4c-1,1.4-2,2.8-2.8,3.9c-23.1,30.8-51.5,16.6-76.7,4c-6.3-3.2-12.3-6.1-17.7-8.1
		c-39.3-13.9-64-16-80.2-17.3c-3.7-0.3-6.9-0.6-9.8-0.9c-10.6-1.3-23.3-2.4-37.1-3.1c14.1-0.7,27.9-1.3,41.7-1.9
		C672.8,85.1,682.8,85,692.3,85z M1372.8,884.5c-3,1.7-6.1,3.4-9.2,5c6.8-7.4,12.7-15.3,17.6-23.8c5.4-9.3,9.5-19.3,12.3-29.4
		l27,0.2C1404.3,856.8,1388.9,875.4,1372.8,884.5z M1418.2,826.5c6-3.4,11.9-7.4,18-12c0.3,0.3,0.6,0.6,1,0.9c-3,3.8-6,7.5-8.9,11.2
		L1418.2,826.5z M1444.9,821.8c2.4,1.8,4.9,3.5,7.3,5l-11.2-0.1C1442.3,825,1443.6,823.4,1444.9,821.8z M1503.3,840.6
		c-24.6,8.8-67.2,25-110.4,41.6c13.5-11.9,26.4-28.2,39.9-45.2c0.1-0.1,0.2-0.2,0.3-0.4l44.7,0.3c5,1,9.9,1.4,14.7,1.4
		c11.1,0,21.3-2.3,30.1-4.9C1516.2,835.9,1509.8,838.3,1503.3,840.6z"/>
	<path class="st0" d="M564.2,275.6l0-0.5c-1-8.1-8.7-23.4-30.6-22.7l-84.3,4.2l-0.3,0c-1.9,0.2-19,1.3-22.3-24.7
		c-0.5-4-1.8-16.3-1.8-16.5l-0.1-0.6l-0.2-0.6c-3.4-9.7-16.6-26.3-42.6-20.4c-30,6.9-69.6,18.2-88.3,33.4c-3.1,2-22.2,16-22.2,54.4
		c0,6.4,0.3,12.4,0.6,18.1c0.8,15.4,1.5,27.5-5,34.5c-5.2,5.7-15.8,8.8-32.3,9.3c-2.1,0.1-4.4,0.1-6.8,0.1c-14.7,0-34.8,0-48.9,14.5
		C168,369.8,162.9,388,163.7,414c1.1,36.9,8.8,129.7,56.7,196.1c5.5,7.7,17.3,20.7,33.9,21.8c0.7,0,1.4,0.1,2.1,0.1
		c12.2,0,24.6-6.6,36.6-19.5c18.3-19.6,50.1-62.9,65.8-85.6c16.8-24.2,38.2-50,79.4-50c15.1,0,61.1,6.4,61.6,6.5
		c0.7,0.1,18.4,2.3,30.6-7.3c6.3-5,10-12.1,11-21.2l0-0.3l-1-32.6l0-0.2c0-0.7-1.2-16.7-12.8-24.8c-7.2-5-16.5-5.7-27.6-2.2
		l-0.6,0.2l-0.5,0.3c-1.8,1.1-17.5,10.4-22.4,14.5c-0.4,0.4-0.9,0.8-1.4,1.2c-5.3,4.6-9.8,8.5-24.4,0.3c-1.1-0.6-27.3-15.4-48.9-6.2
		l-0.4,0.2l-0.4,0.3c-0.6,0.4-13.8,9.3-27.3,27.9c-9.9,13.6-43.8,51.9-44.1,52.3c-3.3,3.7-14.2,13.4-24.3,13.8
		c-4.2,0.2-7.9-1.3-11.2-4.4c-3.8-3.6-8.1-7.6,0.5-25.9c11.4-24.2,38.2-97.4,39.3-100.5l0.1-0.5c0.2-0.7,5-17.9,28.6-20l177.6-3.6
		c0.4,0,10.8-0.3,18.2-8.5c5.5-6.2,7.9-14.9,6.9-26C564.6,301.8,564.2,275.9,564.2,275.6z M551.2,329.4c-4.4,5-11,5.3-11,5.3
		l-177.8,3.6l-0.3,0c-29.5,2.5-36.7,24.2-37.5,27.2c-1.6,4.3-27.9,76.3-38.9,99.5c-9.7,20.6-6.3,29.9,1.7,37.4
		c5.3,5,11.5,7.4,18.5,7.1c16.3-0.7,30.7-16.4,31.4-17.1c1.4-1.6,34.6-39.1,44.7-53.1c11.2-15.4,22.3-23.7,24.4-25.2
		c17-6.8,39.3,5.7,39.6,5.9c20.7,11.6,29.8,3.7,35.8-1.5c0.4-0.4,0.8-0.7,1.2-1c3.5-2.9,15.6-10.3,20.6-13.3c7.8-2.3,14-2,18.4,1
		c7.4,5.1,8.5,16.3,8.6,17.1l1,31.8c-0.7,6.2-3.1,10.7-7.2,14c-8.9,7-23,5.3-23.1,5.3c-1.9-0.3-47.1-6.6-62.9-6.6
		c-49.9,0-74.5,35.3-87.7,54.3c-16.7,24.1-47.9,66.2-64.9,84.4c-10.6,11.4-21,16.9-30.8,16.3c-12.5-0.8-21.9-11.4-26.5-17.6
		c-46.2-64.2-53.7-154.7-54.8-190.6c-0.7-22.8,3.6-39.1,12.7-48.5c11.1-11.5,28.1-11.5,41.7-11.5c2.5,0,4.9,0,7.1-0.1
		c19.6-0.7,32.1-4.7,39.3-12.6c9.3-10.1,8.5-24.8,7.6-41.8c-0.3-5.6-0.6-11.5-0.6-17.6c0-34.8,17-45.6,17.7-46.1l0.3-0.2l0.3-0.2
		c13.4-11,43.4-22.2,84.5-31.6c3.1-0.7,5.8-1,8.4-1c15.5,0,21.2,11.6,22.4,14.5c0.3,2.7,1.3,12.4,1.7,16.1
		c4.4,34.3,29.7,33.6,33.1,33.4l84.1-4.1c17.1-0.4,19.9,11.6,20.3,13.8c0.1,3.2,0.5,26.7,1.2,35l0,0
		C556.2,319.2,554.7,325.4,551.2,329.4z"/>
</g>
</svg>
