<?xml version="1.0" encoding="utf-8"?>
<!-- Generator: Adobe Illustrator 24.0.1, SVG Export Plug-In . SVG Version: 6.00 Build 0)  -->
<svg version="1.1" id="Background_Details" xmlns="http://www.w3.org/2000/svg" xmlns:xlink="http://www.w3.org/1999/xlink" x="0px"
	 y="0px" viewBox="0 0 1920 1080" style="enable-background:new 0 0 1920 1080;" xml:space="preserve">
<style type="text/css">
	.st0{fill:none;}
	.st1{fill:#636466;}
	.st2{fill:#C7C8CA;}
</style>
<title>background</title>
<g id="Bridge">
	
		<rect x="603.3" y="134.3" transform="matrix(0.9999 -1.623132e-02 1.623132e-02 0.9999 -2.1785 10.2789)" class="st0" width="57.8" height="10.1"/>
	
		<rect x="605.3" y="178.2" transform="matrix(0.9999 -1.221654e-02 1.221654e-02 0.9999 -2.1914 7.7613)" class="st0" width="57.8" height="10.1"/>
</g>
<g id="Pavement">
	<polygon class="st1" points="1428.6,532.7 1412.6,749.9 1418.5,750.5 1433.9,531.5 	"/>
	<polygon class="st1" points="1382.3,552.6 1373.4,721.7 1380.6,724.1 1388.8,550.2 	"/>
	<polygon class="st1" points="601.9,122.6 616.3,136.3 652.1,133.1 658.2,110.8 676.6,105.4 672.4,69.3 579.4,78.2 586.4,120.8 	"/>
	<path class="st1" d="M1713,377c0,0-39.6-97.8-139.6-148.4c0,0-100-48.9-244.9-50.2l-333.8,9.3l-122,2.5l-4.2-1.2l-13.4,15
		l-60.8-11.4l-150.1,4.7l-0.3-3.6l-16,1.2l0.2,2.9l-115.6,3.6l-20,10.7l-38.7,7.1l-107.1,40.5c0,0-72,40.4-94.7,75.1
		c0,0-75.1,75.5-60.9,220l1.3,6.7l14.7-12c0,0,4,82.7,76,157.8l60.9,83.1l5.3-10.2l-67.6-95.5c0,0-57.8-72.9-62.7-146.2l-13.3-2.7
		c0,0-22.2-53.8,27.1-154.2c0,0,51.1-94.7,145.3-121.3c0,0,76.5-30.2,127.1-43.1l101.8-4.4l21.9-0.6l6,89.7c0,0-6.5,16-29.6,14.8
		c0,0-3.5,0.6-5.9-15.4l5.9-43.9c0,0,5.9-19-7.1-19c0,0-0.1,0-0.4,0c-35.5-1.7-79.7,6.5-79.7,6.5c-53.9,8.9-69.3,17.2-69.3,17.2
		l-2.4,4.1l18.4,7.7c3.6-7.7,27.2-14.2,27.2-14.2l12.9-1.5l9.7,292l-24.9,1.6l-7.7-132.7l6.5-13l-5.9-27.9l-1.8-40.3v-10.7
		l-14.8-19.6l5.3,120.9l1.8,119.1l-5.2,35.5c-3.9,3.5-7.9,8.8-11.3,17l-12.3,7.8l-2.6-6.4L431.8,410l-5.3-135.7l-5.9,5.3l14.9,333.9
		L404,633.4c-2.4,1.3-4.9,2.6-7.4,3.9l-0.4-18.6l4.2-21.3l-1.8-35.6l-2-27.5l-11.2,8.8l-0.4,33.5l-1.8,18.4l5.3,23.1l1.2,22.5
		c-10.1,4.5-20.7,8.2-31.5,10.9v-0.2l-0.2,0.2c-0.2,0.1-0.4,0.1-0.6,0.2l-6.2-121l30.1-28.2l1.2,12.5l9.5-4.7l-3.5-129.8l-5.3-91.8
		l-5.9,3.5l3,104.9l-44.5,3l-19.5,11.3h24.9l12,241.5c-1.4,0.3-2.9,0.6-4.3,0.9l-8.3,6.5c3.9,0.4,8,0.2,12.2-0.3l-1,1.5l-1.8,39.1
		l-5.3-1.2L326.9,682l-4.1-10.7l-10.7-5.2l-5.6-139.9c4.1-1.6,6.4-3.7,5.1-4.1c8.9-9.5,14.2-3,14.2-3c3,11.9,20.7,16.9,20.7,16.9
		l-0.6-12.7c-27.3-30.9-39.1-11.9-39.1-11.9c-0.3,0.3-0.6,0.6-0.9,0.8l-6.5-161.9c10-11.7,24-24.9,43.5-39.2l7.1-15.4
		c0,0-105.5,62.5-104.6,140.7l29.3-31.1c0,0-3.8-19.2,20.6-50.1l6.6,159.9c-10.5,5.5-17.7-6.7-17.7-6.7
		c-24.3-24.3-41.2-17.2-41.2-17.2l1.8,16.1c24.3-3,34,10.7,34,10.7c6.8,9.9,16.4,10.9,23.5,9.4l5.6,136.8l-4.8-2.3
		c11.4,18.3,25.2,35,40.9,49.8c0,0,27.5,22.8,49.4,34.8c-3.4,7.5-5.5,12.1-5.5,12.1L354.2,816l16.6,5.9l34.4-65.2l13.6-33.8l34.4-3
		l7.1,3l0.2,23.3l-5.7,0v12h-20l0.4,19.1h25.5l0.1,17.2h40.7l-60.2,11.8l24.3,5.9l68.7,3l0.6,4.7l-64-1.2l-37.3-2.4l-40.3-6.5
		l-2.4,13.6l62.5,17.8l85.3,5.3l232,0.9h535.1v-27.6l-0.6-15.4l0,0l4.7-103.1c0,0-7.4-66.1-58.2-114.3c5.1-2.7,30.9-12.8,90.2,11.9
		l2.4-7.7c0,0-7.5-6.1-27.3-11.5V383.2l33.3-0.5l0.9,155.7l7.6-0.4l-1.4-155.3l35.2-0.5l1.3,150.1l8.9-0.4l-1.8-149.8l33.4-0.5
		l0.9,140.5l8-0.5l-1.3-140.2l26.9-0.4l8.9-0.2l2.4,130.2l8.9-2.2l-3.5-128.2l67.2-1.7l-9.5-19l-8.5,4.7
		c-5.3,10.2-37.8,11.2-49.3,11.3l-3-108.9l-6.7-1.3l2,110.2h-35.8l-1.3-138.1l19.5,0.1c136.3,14.8,197.3,123.3,197.3,123.3
		c36.1,55.7,31.4,89.5,36.1,154.7c0.3,4.5,0.4,9,0.3,13.5l-20-12.4c0.6-107.2-46.2-158.2-46.2-158.2c-65.2-83-145.3-97.2-145.3-97.2
		l8.4,12.5c52.7,4.7,121.5,79.4,121.5,79.4c43.9,46.2,51.6,125.6,51.6,125.6l0.9,31.2l-39.8-3c4.7-42.7-10.9-86.9-10.9-86.9
		c-23.1-51.6-82.2-93.1-82.2-93.1l5.9,11.8c24.9,13.6,62.7,67.6,62.7,67.6c23.3,34.7,19.9,87.3,18.7,100.1l-57.5-4.4l2.7-43.8
		l-7.1,7.4l-4.9,35.7l-31.1-2.4l0.1-1.9l-5.9,1.2L1504.5,747c-20.8,1.7-38,0.3-46.4-0.7l23.3-230.5l-8.3,1.2l-21.9,240.8l0.1-0.1
		l0,0.3l18.4,0.6c65.8,1.8,113.2-26.1,113.2-26.1c128-77,118.5-225.8,118.5-225.8c6.5-137.5-85.3-206.8-85.3-206.8
		c-81.8-68.1-163-69.3-163-69.3l-424.9-3l-134.5,2.4c0,0-7.8-1.8-14.3-16l0.5,0c0,0,6.2-10.7,22.7-12l286.7-7.1l111.1-1.8
		c0,0,64.9,2.2,131.1,10.7c0,0,97.8,6.7,166.7,60.4c0,0,81.8,59.6,109.8,140.5c0,0,16.9,67.1,12.4,132.4c0,0,2.7,20.9-20,72.4
		c0,0-28.4,70.2-59.1,98.7c0,0-57.8,48-111.1,68.5l-11.1,4.4l-16.4-3.1l-0.4,8.9l-25.3,16.4c0,0-25.3,14.2-44.9,18.2l-104.5-0.4
		l-10.7-2.2l1.3,13.8l101.8,2.2c0,0,47.6-3.6,111.1-44.9c0,0,91.1-51.6,110.2-66.2l16.4-15.6c0,0,63.1-95.5,69.3-136
		C1726.8,572.1,1757,461,1713,377z M345.2,411.2h33.3l2.4,73.5l-16.6,11l-13.1,32L345.2,411.2z M387.4,703.9l-16.6-13l-12.5-10.7
		v-21.3c11-2.1,22.2-6.4,31.9-10.9l3.1,56.5C393.3,704.5,391.5,708.7,387.4,703.9z M411,707.4c-1.8,0.3-4.1,0.2-7.1-0.4l-4.7-9.5
		l-1.8-17.2l-0.7-35.5c12.3-6.2,20.8-11.9,20.8-11.9l18.3-10.2l1.2,26C428.9,667.3,419.5,688.6,411,707.4z M449.2,619.6l-1.5-3.6
		l3.8-2.1C450.8,615.6,450.1,617.6,449.2,619.6z M587.3,251.8c-0.1,1.3-0.2,2.6-0.2,4.1l-1.8,64.6l13,13c0,0,1.8-11.8,21.9-10.1
		l12.4,1.2c0,0,5.9,4.2,5.9,17.8l0.6,25.5c0,0-1.2,19-14.2,19c0,0-21.3,3.5-26.1-13c0,0,3,19.5-13.6,24.3l11.8,1.7l5.9,144.3
		l-37.7,2.5l-14.8-294.3C572.5,248.6,583,250.3,587.3,251.8z M600.3,400.4l25.3,3.7l0.6,0l2.8,138.4l-21,1.4L600.3,400.4z
		 M604,568.5l-37.5,2.5l-0.3-6.1l37.6-1.7L604,568.5z M629.3,562l0.1,4.8l-20.2,1.3l-0.3-5.2L629.3,562z M561.6,571.3l-40.2,2.7
		l-0.3-7.1l40.2-1.8L561.6,571.3z M510,257.4l36.1-4.3L560.4,547l-39.9,2.6L510,257.4z M493,575.9l-2.5-7.6l24.9-1.1l0.2,7.2
		L493,575.9z M707.3,805L707.3,805l-140.3-0.3l-65.2-10.1l12.4-11.2l1.2-32.6h3c0,0,4,19.5,27.6,22.7v6.7l112-1.8l16.9,7.1h23.5
		C698.4,785.5,708.6,792.1,707.3,805z M652.9,321.7l25.5-1.6l3.5,69.1l-10.9,0.3l-13.3-23.3L652.9,321.7z M682.1,246.6l24.7-0.7
		c0,0,9.5,0.6,11.3,13l1.1,42.2l-20.6,5.8l-13,0.3L682.1,246.6z M805.3,259.9l-10.5,11.8c0,0-27.6,31.1-25.8,92.4
		c0,0,1.8,23.1-18.7,23.1l-60.2,1.7l-3.9-69.3l14.1-0.9l19.5,10.9l0.6,23.5c0,0-3.6,31.4-26.1,35.5l56-1.5c0,0-20.4-2.1-19.3-14.5
		l-3-108.4c0,0-0.6-15.4,19-19l49.8-2.4C796.9,242.8,808.4,242.3,805.3,259.9z M822.9,216.3l-0.6,13.6l-140.8,7l0-0.2l-7.3,0.4
		l3.6,70.4l-24.9,0.6l-7.5-96.7l173.8-5.1l1.8,8.9l18.3-0.4L822.9,216.3z M1551.3,737.9c-13.4,4.4-26.7,6.9-39,8.3l8.8-240.1
		l33.2,2.7L1551.3,737.9z M1590.4,718c-18.3,12.2-32,17.4-32,17.4c-0.1,0-0.2,0.1-0.3,0.1l0.2-0.1l1.8-226.1l37.8,3L1590.4,718z
		 M1639.6,673.2c-13.1,16.4-27.4,29.1-40.3,38.6l5.2-198.9l37.4,3L1639.6,673.2z M1656.2,648.9c-3.2,5.5-6.6,10.8-10.1,15.7
		l0.6-148.3l18.3,1.5l0.1,3.1l27.9,22.7C1687.1,598.9,1656.2,648.9,1656.2,648.9z M1433.4,237.6l0.9,138.1h-33.4l-1.6-138.2
		L1433.4,237.6z M1361.6,237.4l29.6,0.1l1.2,138.2h-35.2l-1.2-133.9C1358.1,240.1,1359.9,238.7,1361.6,237.4z M1224.6,566.3
		c-16.6-10.3-36.3-18.6-59.8-23.5l1.8-8.3l25.4,4.2l-1.7-68.2l35.1,0.7L1224.6,566.3z M1263.7,572.2c-9.2-0.5-19.2-0.6-30.3-0.4
		l1.4,1.2c-0.7-0.5-1.4-1-2.2-1.5V471.3l18.2,0.4l-0.6-86.5v-0.9l14-0.2L1263.7,572.2z M1332,237.3c-8.2,7.8-13.8,20.3-17.5,31.8
		l-0.7-31.9L1332,237.3z M1320.7,324.7l2.4-30.8c1-18.1,14.2-34.6,26.4-46.2l0.8,128h-43.1C1333.5,356.4,1320.7,324.7,1320.7,324.7z
		 M1271.2,237.1l36.1,0.1l0.9,43.3h3.1c-2.2,9.1-3.1,15.7-3.1,15.7v46.2c-5.9,27.8-23.7,25.5-23.7,25.5l-13.7,0.8L1271.2,237.1z
		 M1270.8,383.9l38.6-0.6l-0.9,194.6c-10.1-2.2-22.7-4.2-38.2-5.2L1270.8,383.9z M1185.6,236.9l79,0.2l-0.3,132.1l-14,0.8v-0.9
		l-21.9,0.8v-126h-8.3v126.3l-34.4,1.3V236.9z M1176.1,236.9v135.1l-75.5,2.8l-2.6-138.1L1176.1,236.9z M1089.7,236.6l3.6,138.4
		l-1.9,0.1c0,0-22.5,1.8-29.6-25.5l-1.2-81.2l-1.9-31.9L1089.7,236.6z M1043.1,236.5l5,143.3l-14.8-1.2l-3.6-131.6l-0.9-10.6
		L1043.1,236.5z"/>
</g>
<g id="Buildings">
	<path class="st2" d="M197.4,742.8c0,0-112.9-129.8-64.9-341.3L73,380.1c0,0-47.1,211.6,39.1,340.5c0,0,70.2,142.2,298.7,239.1
		l18.7-57.8C429.4,901.9,281.9,840.6,197.4,742.8z"/>
	<path class="st2" d="M1722.8,727.7l-43.7,41.5l-131.4,78.1l-48.2,25.2l-3.4-8.9L1281,945.4c0,0-81.8,34.7-143.1,28.5L804.6,981
		c0,0-69.3,0-142.2-24l-211.5-72l-1.8,5.3l-26.7,65.8l208.9,72c0,0,77.3,32,168.9,30.2l303.1-5.3l1.8,25.8h80l-0.9-30.2l34.7-4.4
		l5.3,23.1c0,0,73.8-12.4,306.7-115.5l-20.5-50.7l-5.5-14.5l13.5,18.9l31.1-19.5l9.8,24l138.7-88l13.3-8.9l3.6,3.6l36.4-40.9l-7.1-8
		l8-10.7L1722.8,727.7z"/>
	<polygon class="st2" points="1755.7,685 1729.9,720.6 1751.2,733 1742.3,743.7 1760.1,756.1 1801.9,703.7 1822.3,658.3 
		1779.7,642.3 	"/>
	<path class="st2" d="M1869.4,396.1l-20.4-11.5l-6.2-19.6l31.1-13.3l-13.3-39.1h-3.6c-20.4,2.7,1.8-16,1.8-16l29.3-15.1l-9.8-20.4
		L1769,316.1c26.7,72,39.1,141.3,39.1,141.3c15.1,86.2-24.9,169.8-24.9,169.8l48.9,17.8c42.7-94.2,30.2-185.8,30.2-185.8l15.1-20.4
		L1869.4,396.1z"/>
	<path class="st2" d="M1453.4,103.7c0,0,248.9,56,305.8,200.9l83.6-43.6c0,0-41.8-89.8-154.7-155.6c0,0-143.1-92.4-279.1-103.1
		l-230.2-1.8l3.6,91.5C1182.3,92.1,1284.6,77,1453.4,103.7z"/>
	<rect x="1086.3" y="96.6" class="st2" width="218.7" height="23.1"/>
	<rect x="549.7" y="730" class="st2" width="95.4" height="23.1"/>
	<rect x="460.9" y="747.2" class="st2" width="43.8" height="30.2"/>
	<rect x="710.9" y="653.6" class="st2" width="34.4" height="72.3"/>
	<rect x="820.6" y="600.8" class="st2" width="35" height="185.5"/>
	<path class="st2" d="M974.6,615.7v108.4h45v-38.5h6.5c9.2-10.7,0.6-24.6,0.6-24.6h-7.1v-45.3H974.6z"/>
	<rect x="952.1" y="644.7" class="st2" width="17.2" height="31.4"/>
	<rect x="1142.9" y="597.9" class="st2" width="35.6" height="187.3"/>
	<polygon class="st2" points="1051.3,564.1 1000.7,549.9 997.2,563.5 1047.5,578.9 	"/>
	<ellipse class="st2" cx="1030.8" cy="760.4" rx="18.8" ry="16.4"/>
	<rect x="956.3" y="586.3" class="st2" width="18.7" height="25.8"/>
	<rect x="941.2" y="619.2" class="st2" width="16.9" height="19"/>
	<rect x="1066.5" y="570.3" class="st2" width="5.9" height="6.5"/>
	<polygon class="st2" points="865.6,456.3 858.2,449.1 841,468.1 848.7,474.9 	"/>
	<rect x="950.9" y="744.6" class="st2" width="56.9" height="18.4"/>
	<rect x="955.1" y="765.3" class="st2" width="19.8" height="17.5"/>
	<rect x="979.1" y="774.2" class="st2" width="32" height="11.8"/>
	<rect x="1204.6" y="402.3" class="st2" width="33.8" height="58.7"/>
	<rect x="581.2" y="824.3" class="st2" width="699.3" height="14.8"/>
</g>
</svg>
