<?xml version="1.0" encoding="utf-8"?>
<!-- Generator: Adobe Illustrator 24.0.1, SVG Export Plug-In . SVG Version: 6.00 Build 0)  -->
<svg version="1.1" id="Background_Details" xmlns="http://www.w3.org/2000/svg" xmlns:xlink="http://www.w3.org/1999/xlink" x="0px"
	 y="0px" viewBox="0 0 1920 1080" style="enable-background:new 0 0 1920 1080;" xml:space="preserve">
<style type="text/css">
	.st0{fill:none;}
	.st1{fill:#636466;}
	.st2{fill:#C7C8CA;}
</style>
<title>background</title>
<g id="Bridge">
	
		<rect x="571.6" y="46.5" transform="matrix(0.9999 -1.623237e-02 1.623237e-02 0.9999 -0.7582 9.7538)" class="st0" width="57.8" height="10.1"/>
	
		<rect x="574.3" y="135.3" transform="matrix(0.9999 -1.221654e-02 1.221654e-02 0.9999 -1.6695 7.3788)" class="st0" width="57.8" height="10.1"/>
</g>
<g id="Pavement">
	<path class="st1" d="M1802.8,448.4c5.3-201.8-165.3-289.8-165.3-289.8c-88-55.1-280-62.2-280-62.2l-128.9,0.9l-352,8.9l-0.9,14.9
		l-35.2,6.7l1.4-2l-64-16l-317.3,8l-8.9,13.3c0,0-274.7,37.3-325.3,232c0,0-40,106.7,37.3,238.2c0,0,72,112.9,125.3,172.5l7.1-6.2
		c0,0-84.4-117.3-128.9-191.1c0,0-17.8-53.3-24-96l-0.2-0.2l23.9-17.8c3.9,41.8,23.5,144.9,119.9,225.1l44,29.7l-31.1,66.3l11.9,4.7
		l11.8-26.1c7.7-10.7,18.4-10.7,18.4-10.7c28.5,32.6,66.4,37.9,66.4,37.9l1.5-0.7c29.2,5,85.6,7.2,85.6,7.2l3.6,10.7l-82.7,0.9
		l-86.2-12.5l87.1,43.6l900.3,5.3l1.9-135c6.5-73.5-22.5-105.7-22.5-105.7c-25.5-61-113.5-88.4-113.5-88.4l-74.7-15.2l4.7,13.7
		l-30.2,13l-14.2-0.6l0.6-7.1l-3.6-5.9l0.6-23l-11.8-3l-0.6,28.9l-87.1-27.3c-41.5-12.4-69.3-30.8-69.3-30.8
		c-51.5-36.7-53.3-91.9-53.3-91.9L814,330.2l4.4-35.2l11.9-26.1l21.3-88l4.4-15.1l11.2,9.7c-8.4,9.1-14,20.7-14.8,35.6L821.4,324
		l-3.5,8.9l32.9,4.4c0,0,39.7,124.9,112.9,127L1209,481l0.9-63.7l63.1-0.9l-3.6-106.7l-176.9,5.3v-3.5l-56.9,2.7l-3.6-141.3
		l0.9-32.9l-70.2,2.7c0,0-26.1,0-53,8.3l3.2-2.1l-29.3,3.5L868.6,140l47.1-6.2l-2.2-0.8l204-9c192.9-13.3,351.1,7.1,351.1,7.1
		c27.9,2.8,53.3,8.4,75,14.7l-15.4,8.3l-13.6,8.9l9.5,5.9l21.3,3.5l28.4,6.5c83,27.3,143.4,120.9,143.4,120.9
		c49.8,59.9,33.8,192.6,33.8,192.6c-5.9,39.1-28,59.5-28,59.5s-0.6,20.8,4.7,19s33.9-64.2,33.9-64.2l21.4-12.7l-3.3,37
		C1735.2,641.3,1677.4,692,1677.4,692l-53.3,33.8l-122.7,56.9c-13.3,11.5,0.9,24.9,0.9,24.9l133.3-69.3
		c51.6-28.4,73.8-50.7,73.8-50.7C1813.4,563.1,1802.8,448.4,1802.8,448.4z M134.2,472.9l-7.9-6.6c0,0-12.4-67.5,34.7-147.5
		c0,0,40.9-112,272.9-176l31.1-7.1l9.8,0.9l321.8-8l6.2,10.7l1.8,18.7l-147,3.3l0-0.3l-5.8,0.4l-7.3,0.2v0.4l-3,0.2l4.5,75.1
		l-8.6,0.3l-18.7-1.3c-4.1-3.6-6.5-8.8-6.7-14.2v-22.7l0.9-56.9h-16.9l1.3,59.1l-0.4,24.4c0,0-6.7,26.7-33.8,19.6l-1.2,0l1.2-37.8
		l8.5-27.6c0,0,0.9-13.3-2.7-15.6c0,0-83.6-4.4-188,27.1c0,0-135.6,32-189.3,131.5c0,0-36.4,48.9-25.8,120.5c0,0,0,0.4,0,1.2
		C148.1,457.9,138.4,468,134.2,472.9z M664.4,324.9c-2.7-1.6-5.1-3.4-7.4-5.4l0.2-65.2l23.3-0.5l9.7,4.4l-0.4,36.5l-20.7,30.2
		L664.4,324.9z M557,354.2c0.4,10.2,2.7,91.6,2.7,91.6s2.7,34.7-8,36.4l0.8,17.8l-17.1,1.1l0.2-0.2l-11.2,0.7l-6-156.7l14-0.6
		l12.9-0.1C549.8,345,556.7,347.4,557,354.2z M478.8,674.6l-44,0.5c0,0-13.3-2.3-24.1,2.6l-3.4-1.3l23.1-21.8l0,0h8l16.9-6.7v-8h5.3
		l0.4-7.1l14.2,21.3l5.8-4.4l-5.8-5.8l13.8-11.6l2.7-16.4L469,599.6l4.4-11.1l18.7,7.6l1.3-21.8l-27.5-14.7l-0.5-5.3l12.9,1.8
		l0.5,5.3l13.8-0.4l-1.3-12l-33.3,1.3l-1.3-6.2l39.5-2.4v0.2l4.5,112.9c0.2,1.4,0.3,2.7,0.3,3.8h-19.3v8.9l16.9-0.4
		c-3.5,5.2-9.5,6.3-9.5,6.3L478.8,674.6z M321.8,431.7l-18.5,19.5l17.6-44.7L321.8,431.7z M177.6,440.2c-0.7-7.7-1.1-15.2-1.2-21.9
		c1-11.3,6.1-41.9,31.4-56.6c0,0,7.2-5.3,22.5-6l3.1,108.5c-5.7,1-9.8-1.5-9.8-1.5l-21.3-15.1C190.9,441.5,182.9,440.1,177.6,440.2z
		 M554.1,323.5c-3.6,4.3-7.9,7.6-12.7,8.1l-23.6,0.7l-2.5-66l24.4-1.3c0,0,12.4,0.9,12,16L554.1,323.5z M475.1,504.4l-4-157.5
		l37.2-1.7l6.7,156.8L475.1,504.4z M444.9,506.2c-9.5,0-8.3-7.1-8.3-7.1l-1.1-150.6l28.8-1.3l3.4,157.6L444.9,506.2z M434.8,271
		c4.5,0.6,9.8,0.3,16.4-1.2l11.3-0.6l1.4,64.7l-28.6,0.9L434.8,271z M470.8,333.7l-1.7-64.9l35.9-2l2.8,65.8L470.8,333.7z
		 M551.7,194.7l-1.7,50.9l-9,0.2l-4.2,1.2l-22.2,1.8l-2.7-71.3c8.5-0.7,28.8-2.2,32.3-1.5C544.1,176,552.6,178.2,551.7,194.7z
		 M501.2,178.7l3,71l-35.6,2.9l-1.7-68.2C478.3,182.1,489.7,180.3,501.2,178.7z M460.7,185.5l1.5,67.6l-8.7,0.7
		c0,0-23.1,0-26.2-25.8l-1.3-22.2c0,0,0-6.2-3.4-11.4C435.1,191,447.8,188.1,460.7,185.5z M388,204.2c7,0.3,16.5,2.9,23.7,13.5
		l2.7,36c0,0,0.6,3.2,3,6.9l2.8,74.5l-42.8,1.3l-3.7-128.6C378.2,206.7,383,205.4,388,204.2z M366,209.9l4.2,126.8l-37.9,1.1
		l-3.3-92.9c0,0,2.2-6.2,11.1-9.3c0,0,12.1-13.2,14.3-22.3C358.2,212.1,362,211,366,209.9z M319.7,224.6l4.6,113.4l-39.7,1.2l0-0.6
		l-3.4-1.1c3.8-8,8.2-23.2,3.9-47.6c0,0-6.9-30,17.6-58.8C307.4,229.3,313.1,227,319.7,224.6z M273,305c0,0-0.9,29-27.6,34.4
		c0,0-2.9,0.6-7.2,1.2l-4.4-57c10-11.5,23.6-25.2,40.8-37.4C272.3,254.7,268.7,274.7,273,305z M223.6,296.3
		c2.2,1.2,5.2,4.1,5.4,11.7l1,33.6c-8.9,0.9-19.3,1.1-24.5-1.6c0,0-4.5-2.5-5.5-8.7c4.1-7.2,8.8-14.4,14.4-21.5
		C214.3,309.8,217.5,304.4,223.6,296.3z M239.3,355.7c0.2,0,0.4,0,0.5,0c0,0,13.3,1.2,24.7-2.9l12.6-0.6l3.8,122.4
		c-3.4,2.3-6.5-0.4-6.5-0.4l-8-11.5c-9.3-13.8-21.8-4.9-21.8-4.9c-1,1.1-2.1,2-3.1,2.8L239.3,355.7z M285.7,458.4l-1-106.4l42.5-2
		L285.7,458.4z M420.6,349.2l2.9,151.7c-1.9,16.4-11,40-17.5,55.3l-20.2,12.8l-5.2-218L420.6,349.2z M408.7,573.8
		c10.7-28.5,26.1-28.5,26.1-28.5l1.8-0.1v17.5l-21.3,10.2l-12,26.2L389,632.4l-7.1,15.1l11.5,17.8l12-8l1.7,2.7L393,672.4
		c-8.7-4.8-14.3-13.7-15-23.5L408.7,573.8z M566.7,305.1L562,264h2.6c0,0,2.7-8,10.2-8.4l19.5-0.9v18.2c-14.1,5.4-24.2,19-24.4,35.1
		L566.7,305.1z M618.3,255.1l28.8-0.6l3.5,58.4c-1.9-2.3-3.6-4.5-5-6.7c-1-16.1-11.9-29.6-26.7-34.2L618.3,255.1z M690.6,226.7
		c-2.3,4.2-5.4,8.3-8.7,8.9l-24.6,1l0.2-64.4l9.2,0.7c0,0,23.1,7.1,24,38.2L690.6,226.7z M178.9,453.5l0.8-0.6
		c12.7-0.6,34.4,17.8,34.4,17.8c5.9,9.1,13.9,9.7,19.8,8.5l3.9,136.5c-16.1-22.6-43.9-67.5-52.3-116.6
		C185.4,499.1,181.6,477.4,178.9,453.5z M249.4,631.1c0,0-1.7-2-4.5-5.7l-3.1-149.2l9.3-7c3.6-4.5,8.6-1.2,8.6-1.2l8.9,11.6
		c8,16.9,27.5,1.3,27.5,1.3l26.4-31.2l4.3,110.7l10.7-13.3l-4.7-170.9l1.1-2.8l8-12.4c0,0,6.1-9.6,29-9.9l7.8,222.4l-18.2,11.5
		c-6.4,4.2-14,8.5-21.9,12.5l-1.7-47.1l-6.2,13.3l-0.1,37.8c-14.5,7-28.7,12.8-36.5,15.9L290.8,496l-7.6-7.6l0.9,130.3l-2.2-0.5
		l-17.3,12c6.4,0.1,13.1-0.9,19.6-2.4l0.3,46.1C275.1,664.8,259.8,648.7,249.4,631.1z M296,683.8l-1.6-58.8
		c13.3-4.2,23.5-9.5,23.5-9.5c4.1-1.1,8.4-2.6,12.7-4.3l-0.3,71.7l-9.8,12.1C320.6,695.1,305.5,689.7,296,683.8z M347.7,679.6
		l-6.3-5.6l-2.3-66.4c20.7-9.9,39.3-23.5,39.3-23.5l-1.6,35.3l-27.4,58.3L347.7,679.6z M343.5,733.2l11.9-29.1l10.5-6.4l33.3-7.6
		l1,48.2l-14.1,0.7l-2.4-16.6l-21.5,3l0.2,23.1l24.3-0.6v-4.7l13.6,0.3l0.6,28.1l27.3-1.2l0.4,7.2l-12.9,2.5
		C350,771.9,343.5,733.2,343.5,733.2z M531.7,781.8l-78.2-8.9l-7.5,1.4l3.6-1.4l8.3-8.9v-27.8c0,0,4.5-8.7,10.7-13.8
		c7.1,27.4,23.1,24.7,23.1,24.7h40V781.8z M568.5,498.9l-3.4-155.1l25.3-0.3l3.6,153.7L568.5,498.9z M736.1,324l-30.2,0.4
		l-1.8-130.2c0,0-1.8-24.9,24.9-24l45.3-0.9c0,0,18.7-2.7,13.3,15.1c0,0-42.7,27.6-43.6,128l2.4-0.1
		C741.6,321.3,736.1,324,736.1,324z M1761,486.7c8.9-35-5.3-118.5-5.3-118.5C1733.2,255.6,1617,191.6,1617,191.6l-41.5-20.7
		l-20.6-21.5c40.1,12.9,64.8,27.1,64.8,27.1c91.6,38.2,139.6,151.1,139.6,151.1c21.3,38.2,17.8,120,17.8,120
		c-9.4,10.6-9.3,20.4-6.2,28L1761,486.7z"/>
	<path class="st1" d="M1434.5,768.4l11.3-2.6c0,0,22.6-81.3,33.7-100l-12.3-2.8C1467.1,663,1434.5,758.2,1434.5,768.4z"/>
	<polygon class="st1" points="563.4,33.2 582.3,49.2 617.9,47.4 625,20.7 630.3,3.5 547.4,5.9 552.1,32.6 	"/>
</g>
<g id="Buildings">
	<path class="st2" d="M1919.2,360.4l0.9-120.9l-0.9-27.6l-81.8,39.1c0,0,81.8,158.2,18.7,345.8l49.8,20.4l16-47.1L1919.2,360.4z"/>
	<path class="st2" d="M1841.9,598.7c0,0-44.4,100.4-125.3,155.5c0,0-64.9,54.2-157.3,85.3l-269.3,102.2c0,0-74.7,32.9-160,29.3
		l-384,0.9c0,0-51.6,3.6-142.2-31.1l-256-92.5l-72-28.4c0,0-122.7-64.9-159.1-129.8l-14.2-18.7L44.6,716l-5.3,6.2l51.6,61.3l60.4,56
		l152.9,95.1l48,16.9l17.8-46.2l6.2,3.6L363.7,948l218.7,73.3c0,0,68.5,32.5,160.9,36l365.3-1.8l0.9,8h89.8l-0.9-13.3l35.6-3.6
		l6.2,16l32.9,1.8l48-15.1l-9.8-32l8.9-4.4l10.7,31.1l244.4-95.1l-24-57.8l-4.4-18.7l16,21.3l33.8-19.6l11.5,17.8l8-4.4l5.3,8
		l134.2-86.2l17.8-11.5l5.3,4.4l51.6-62.2l-7.1-3.6l33.8-32l16-24l28.4-52.4l-51.6-24.9L1841.9,598.7z"/>
	<rect x="802.8" y="556" class="st2" width="36.4" height="205.3"/>
	<rect x="680.1" y="612.9" class="st2" width="37.3" height="82.7"/>
	<path class="st2" d="M1017,657.8h11.5c12.9-24.5-1.8-36-1.8-36l-9.7-0.4v-44.9h-45.3v119.1h45.3V657.8z"/>
	<rect x="943.2" y="603.1" class="st2" width="22.2" height="41.8"/>
	<rect x="1153" y="558.7" class="st2" width="40" height="208"/>
	<rect x="534.3" y="802.2" class="st2" width="769.8" height="16.9"/>
	<rect x="940.3" y="716.6" class="st2" width="65.2" height="19.6"/>
	<rect x="974" y="748.6" class="st2" width="33.8" height="13.6"/>
	<ellipse class="st2" cx="1032.1" cy="735" rx="19" ry="17.2"/>
	<polygon class="st2" points="1053.4,520.4 1000.6,503.6 995.7,520 1050.8,535.1 	"/>
	<polygon class="st2" points="851.2,400.4 842.8,393.8 825.4,414.7 833.4,420 	"/>
	<rect x="398.8" y="723.1" class="st2" width="48.4" height="32"/>
	<rect x="505.4" y="699.1" class="st2" width="103.6" height="27.6"/>
	<rect x="561.4" y="753.8" class="st2" width="49.8" height="12.9"/>
	<rect x="555.7" y="744" class="st2" width="26.2" height="4.9"/>
	<rect x="1068.6" y="526.7" class="st2" width="8" height="7.6"/>
	<rect x="954.3" y="558.2" class="st2" width="6.2" height="18.2"/>
	<rect x="1221.2" y="343.8" class="st2" width="39.1" height="65.2"/>
	<rect x="1337.3" y="759.3" class="st2" width="17.2" height="20.2"/>
	<polygon class="st2" points="397.4,985.3 324.6,960.4 310.3,1001.3 307.7,1008.4 322.8,1012.9 327.2,1008.4 398.3,1033.3 
		403.7,1023.6 385.9,1018.2 	"/>
</g>
</svg>
