<?xml version="1.0" encoding="utf-8"?>
<!-- Generator: Adobe Illustrator 24.0.1, SVG Export Plug-In . SVG Version: 6.00 Build 0)  -->
<svg version="1.1" id="Background_Details" xmlns="http://www.w3.org/2000/svg" xmlns:xlink="http://www.w3.org/1999/xlink" x="0px"
	 y="0px" viewBox="0 0 1920 1080" style="enable-background:new 0 0 1920 1080;" xml:space="preserve">
<style type="text/css">
	.st0{fill:none;}
	.st1{fill:#636466;}
	.st2{fill:#C7C8CA;}
</style>
<title>background</title>
<g id="Bridge_1_">
	
		<rect x="1572" y="732.9" transform="matrix(0.32 -0.9474 0.9474 0.32 389.5068 2018.5833)" class="st0" width="57.8" height="10.1"/>
	
		<rect x="1534.9" y="720.5" transform="matrix(0.3489 -0.9371 0.9371 0.3489 338.265 1937.9598)" class="st0" width="57.9" height="10.1"/>
</g>
<g id="Pavement">
	<polygon class="st1" points="273,944.6 240.6,898.3 250.1,976.1 141.4,975.7 146.1,995.9 367.9,997 313.4,977.9 	"/>
	<path class="st1" d="M324.1,734.3l-20.4,4.7l-23.3,12.4l-18.4,22.2L249,800.8l-5.3,42.7l1.8,7.3C245.4,850.8,245.7,759,324.1,734.3
		z"/>
	<polygon class="st1" points="930.3,1011.7 930.3,994.8 914.8,997 922.8,1011.2 929.4,1041.9 931.7,1082.3 940.6,1082.8 
		937.4,1042.3 	"/>
	<path class="st1" d="M1805.4,504.1c-1.8-1.3-9.8-8.9-9.8-8.9s4.4-8-16.4-5.8c-20.9,2.2-28.4,4.5-32.9,3.1l-13.3-4l-8.4-10.7
		l-12.9-9.8l-17.8-11.5l-9.3-6.2l-3.3,1.8l-1.2-2.4l-25.5,10.4l-18.4,11.3l-39.4,31.7c0,0-29.4,13.5-51.8,15.7
		c6.8-11.2,10.7-24.3,10.7-38.4c0-41.3-33.7-74.8-75.3-74.8c-41.6,0-75.3,33.5-75.3,74.8c0,1.4,0,2.8,0.1,4.2
		c-2.6,8.7-6.6,17.4-12.3,22l-59,40.8c-61.2-0.1-107.2,27.1-107.2,27.1c-2.3,1-4.5,2.1-6.6,3.4l-11.5-0.8l-23.4-4.2l-58.3-12.7
		l-82.1-27.8l-41.5-18.4l-9.2-7.4l-44.8-91.6l19.6-61.6l5.6-7.7l9.5-6.5l90.4-43.8l-2.8,42.8c-16.5,7.6-22.3,16.8-22.3,16.8
		c-23.3,34.4-3.8,60.9-3.8,60.9c26.4,30.2,63.6,10.7,63.6,10.7l19.3-15.3c19.1-6,29.6,0,29.6,0c7.8,5.1,2.4,14.7,2.4,14.7l-9.3,10
		c-27.1,22.7-6.2,63.3-6.2,63.3c32.4,45.6,92.4-0.7,92.4-0.7l107.1-99.6c35.5-40.2,3.5-68,3.5-68c-39.3-33.3-70.2,0.2-70.2,0.2
		l-22.5,17.8c-16.7,9.6-25.1,0-25.1,0c-8.2-8.7,2.4-20.2,2.4-20.2l18.2-16.9c17.6-17.1,7.1-48.9,7.1-48.9
		c-9.8-33.8-46.2-31.3-46.2-31.3c-46.2,0.7-52.2,32.2-52.2,32.2l-10.8,38.3c-5,20.1-23.4,25.2-23.4,25.2l-28,3.2
		c-4.7,0.8-8.9,1.8-12.8,2.9l0.5-48.4c0-8.3-10.7-4.1-10.7-4.1l-8.6,5l-85.3,38.5l-16.3,8.9l-11.8,16.6l-12.7,32.3L932,413l-1.5,11
		l6.5,10l16.6,34.1l32.6,58.1l1.5,6.2l-35,49.8l-34.4,44.7l-31.1,37.6l0.1,0l-0.1,0l-7,9.1l-1-3.8l-5.9-14.8l-3.6-18.1l-4.2-24.9
		l-7.7-4.7l4.4,32.9c0,0,3,19.5,3.9,19.8s3,10.4,4.4,11.6s3.8,7.7,5.6,8.6c0.4,0.2,0.9,0.1,1.4-0.2l10.7,10.3l-1.5,14.2l6.5-0.5
		l10.3,11.2l16.9,14.5l9.8,7.1l24.3,8.6c0,0,26.1,9.2,27.6,9.8s24,10.1,26.4,10.1c1.7,0,9,3.5,13.2,5.6c0,19.5-0.2,38.5-0.2,38.5
		l7.7-0.3l-2.5-73.6l9.9-27.6l10-20.5l18.2-26.2l8.9-11.5l9.8-7.1l15.3-6.5l76.9-18.9l7.5,4.2l-18.6,40.9l-10.9,31.1l-10.9,36.7
		l-4.5,24.9l-9.1,40.9l-8.9,27.5l-11.3,28.5c-14.7,32.4-38.2,45.1-38.2,45.1c-24.9,14.9-56.5,14.2-56.5,14.2
		c-23.3-0.7-58.9-13.1-58.9-13.1l-17.8-7.3l-2.7-0.9l-3.1,1.5c0,0-2.2,2-3.3,2.2s-3.6-0.5-4.2-0.5s-6-2.4-6-2.4l-9.1-3.1l2.9-2.7
		l3.1-8c2.7-13.6-10-19.6-10-19.6l-9.3-4.9l-9.8-3.8l-21.1-8.2l-3.3,6.7l-1.3,5.6l-3.3,2l-41.6-20.7c-31.1-17.8-46.2-36.4-46.2-36.4
		l0.2,34.2l-26.2-0.2v13.5l-22.7,0.5l-62.9,0.4l-21.3,0.7l-19.5-3.1c-44.2-11.3-95.1-18.9-95.1-18.9c-66.4-7.3-129.3-7.8-129.3-7.8
		c-33.5-1.6-38.4,12.4-38.4,12.4l-0.9,6.9l0.2,17.3c4.5,21.8,10.2,31.8,10.2,31.8C372.1,907.2,401,905,401,905l20.4-0.2h60.9l112-2
		c7.6-0.2,8.5,5.1,8.5,5.1l-1.1,12l-4.5,21.8l-1.8,0.4v-5.8c0,0-4.2-0.2-6.4-0.2s-6.2-1.5-6.2-1.5l-11.6-1.1l-1.1,13.8
		c-7.3,10.9-16.7,14.7-16.7,14.7c-21.8,6.7-71.8,14.4-71.8,14.4l-103.8-0.7l-20.2,6l124.7,4.9l113.8-2.9l0.2-1.8l293.8,0.4l0,0.9
		l110,2.2l64.7-1.1l-5.1-3.6l24.4,0.5l32.2,12.2l234.4,1.8l2.9-13.8l-95.3-1.1l-67.6,0.5l-9.8-7.8l-100.7-0.2
		c-18.1,0.2-25.3-7.6-27.7-11.5l0.9-0.9l2.4-4l10.7-6.9l12.2-6.2l10.4-3.7l7.1-0.6l22.9-1.6l68.7-0.9l-0.4-40l41.3-1.8l131.6-1.1
		l42.9-1.8c31.3-4.7,26.9-34.9,26.9-34.9l-0.9-60.4c0.7-5.3,6.9-6,6.9-6l21.3-0.2l10.2-2c24.7-6,25.8-32.4,25.8-32.4l-15.6-25.3
		l-6.4,4.2l-19.3-29.1l-10.9,5.1c-10.7,0.4-21.1-12.7-21.1-12.7c-12.2-14.7-26.7-12.9-26.7-12.9l-18-0.4l-119.8,2.4
		c-30,3.1-40.9,20.5-40.9,20.5l-9.3,12.2l-7.6,11.3c-4.7,4.7-7.6,2.5-7.6,2.5c-2.4-5.6-7.3,0.2-7.3,0.2l-4.4,16.2l-2,13.1l-1.3,24.9
		c-7.6,25.8-14.9,44-14.9,44l-21.3,35.6l-12.4,18.7c-9.1,10-13.8,6.9-14.4,6.7c-6.7-9.8,8-31.8,8-31.8c6.2-11.3,12.4-33.8,12.4-33.8
		l13.8-61.8l6.9-35.8l3.1-12.9l20.2-56.9c12.9-34,57.1-63.1,57.1-63.1c44.2-31.6,104.7-32.9,104.7-32.9
		c56.4-1.1,100.7,23.6,100.7,23.6c23.3,10.9,50.9,57.8,50.9,57.8l21.1,41.3c6.4,16,23.8,30,23.8,30l5.1-15.6
		c-7.1,3.3-13.8-6.9-13.8-6.9l-32.2-66.9c-13.8-26.7-33.1-40.4-33.1-40.4c-1.7-1.3-3.4-2.5-5.2-3.6c10.7,0.2,28.9,0.5,29.9,0.5
		c1.3,0,27.3,1.8,45.1-10.2c0,0,18.9-11.8,32.2-26.2l16.2-18l14.7-14.9l5.3-5.1l13.3-7.5l11.1-5.6c0,0,7.8-2,8.4-2s12-0.2,12-0.2
		l11.3-19.1l6.4-5.1l19-10c0.7,0.2,1.5,0.4,2.2,0.6c10.3,2.8,31.1,11,28.7,31.2l-1.8,14.7l-4.9,19.6l-34.7,97.8l-32.9,62.2l-16,33.8
		l-7.6,14.2l-8,0.4l-4.9,15.1c0,0,8.9,5.8,10.2,5.8s16.4-2.7,17.8-2.7s9.3-7.6,9.3-7.6s5.8-13.3,7.1-14.2s48.4-87.1,48.4-87.1
		s20-46.2,23.1-48.9s7.6-18.7,12-25.8s22.2-45.8,24-48s3.1-12.9,8.9-15.1s10.2-6.7,15.1-6.7s13.3-1.8,15.6,1.3s2.2,7.5,6.2,8
		s16,6.7,16,6.7S1807.2,505.4,1805.4,504.1z M1259.2,369l29.6-20.2c0,0,28.4-21.3,46-1.8c0,0,14.4,14.7-5.6,37.1h0l-63.1,56.7
		l-56,49.1c0,0-28.9,21.3-46.9,3.5c0,0-16.7-21.1-0.2-42.9l38-34L1259.2,369z M1234.6,367l-0.4,1.3L1181,409c0,0,1.3-15.3-34.4-13.6
		l62.7-49.5C1209.2,345.9,1207,367.7,1234.6,367z M1117,346.8l16.7-3.8c0,0,20-3.1,28.2-20.7l9.8-30l7.8-22.2
		c0,0,8.9-22.2,41.3-18.9c0,0,24.7,2.9,20.7,31.8c0,0,2.7,8.7-17.1,28.4l-28.4,24.2l-74.9,58.9l-24.2,17.8c0,0-27.1,12-36.7-12.7
		c0,0-9.6-27.6,19.3-45.8C1079.4,353.9,1086.3,349.9,1117,346.8z M1430.3,718.8l15.8,28h-15.8V718.8z M1430.1,769.9v-18.7l16.7,0.5
		l10.4,24.2l12.2-6.9l2.7,3.6l2.7,3.3l-13.1,8.4l-3.1-4.4l-20.4-0.7C1429.4,777.7,1430.1,769.9,1430.1,769.9z M1042.8,971.7
		L1042.8,971.7l9.2,7.5l-19.6-0.1l7.3-10L1042.8,971.7z M669,911.7l0.2,7.3h-23.7l3.8-6.9L669,911.7z M596.9,977l0.1-0.9l-0.2-18.7
		l97.3-0.4l196.2,0.2l-0.2,20.4L596.9,977z M988.3,978.8l-36.9-12.2l0.9-7.1l78.7,2.5l2.7,2.3l-15.4,14.8L988.3,978.8z
		 M1042.3,929.9l-0.7-2.9c6.3-0.5,24.2-4.5,32.3-6.4l12.5,0.2C1072.6,928.4,1042.3,929.9,1042.3,929.9z M1418.3,851.9l-0.2,10.2
		c0,0-1.8,16.7-31.8,18l-137.1,2.2c0,0-23.3-5.1-26.7-20c0,0-0.4-17.5,18.9-21.1l53.1-1.5c0,0,21.1,13.8,33.8,12.9
		c0,0,10.9-0.9,29.6-14l46.2-0.7C1404.1,837.9,1419.4,837.7,1418.3,851.9z M1247.2,710.8c0,0,8-13.8,27.1-12.9l116.2-0.7
		c0,0,20.2-0.4,21.6,16l2.4,13.8c0,0,0.9,11.6-12,12.9h-171.8L1247.2,710.8z M1223.7,752.8l182.7-0.7c0,0,8,0.5,8.7,7.6l0.9,9.8
		c0,0-0.7,6.7-8.7,6.9l-199.1,6.5l0-2L1223.7,752.8z M1184.3,825l13.6-25.8c0,0,1.8-4.9,3.8-4.4l205.3-4.9c0,0,8,0.9,10.4,8.2v19.6
		c0,0-1.6,7.8-17.8,7.5l-213.1,5.1C1186.6,830.3,1183.7,829.7,1184.3,825z M1155.4,880.8l20.7-39.3l36.9-0.4l-1.6,5.3
		c-3.5,11.6-1.7,24.1,4.9,34.2c0,0,0.4,3.3-5.6,3.5l-49.3,0.9C1161.4,885,1153.9,886.8,1155.4,880.8z M1139.4,906.3l-1.3,20.2
		l-31.1,4.7l-8.4,1.1l-11.6,3.6l0,0.2l-9.8,3.4l-3.3-0.7l6.2-3.3l20.7-9.3l9.6-5.8C1124.3,916.1,1139.4,906.3,1139.4,906.3z
		 M1480.1,440.8c22.3,0,40.3,17.8,40.3,39.7s-18,39.7-40.3,39.7c-22.3,0-40.3-17.8-40.3-39.7
		C1439.8,458.6,1457.8,440.8,1480.1,440.8z M997.7,755.5l-36.4-14.8c0,0-18.7-6.5-19.9-7.1l-18.1-8.9l-10.1-8l-9.5-13l-0.4-0.3
		l20.2-1.5l82.7,29.3l15.2,5c0.1,6.2,0.1,16,0.1,26.4c0,0.4,0,0.9,0,1.3L997.7,755.5z M1141.7,609.7l-101.3,28l-81.1,22.9l-26.7,6.7
		c0,0-15.9,5.2-16.3-7.7l1.7-0.3l2.5-7.4l11.8-21.6l55.7-80l18.3-16.9l32.3,11.8l72.3,24c0,0,50,13.6,51.6,14.2
		c1.2,0.5,28.3,6.7,40,9.4c-0.7,0.7-1.3,1.5-2,2.2L1141.7,609.7z M1552.5,541.3l-13.5,15.3l-14.4,7.5l-22,9.3l-10,2l-9.1-0.2
		c0,0-29.4-5.3-46.3-2.8c-24-12.3-48.5-18.6-67.6-21.8l30-20.9c0,0,10.8-3.2,24.9,0.7c13.8,15.2,33.7,24.8,56,24.8
		c24.9,0,47-12,60.7-30.5c5.7-0.1,18.7-0.8,27.9-4.4L1552.5,541.3z"/>
	<path class="st1" d="M1311.2,167.4l3,18.1l3.6,22.2l17.2,12.7l43,14.5l8-9.2l-34.4-37.3l-25.5-21l-0.6-12.4l-2.1-10.4l-10.4-11.3
		l-29.6-27.3c-12.4-12.1-34.4-14.5-34.4-14.5h-25.3l-18.1,2.7l-0.3,3.5l18.1,8.9L1311.2,167.4z"/>
</g>
<g id="Buildings">
	<polygon class="st2" points="857.4,613.9 853.4,593.4 842.8,595.2 847.7,615.7 	"/>
	<polygon class="st2" points="948,476.4 944.4,468.4 947.1,466.9 935.2,445.9 923.4,451.8 937.6,480.8 	"/>
	<polygon class="st2" points="1112.7,301 1116.8,306.9 1123.7,301 1119.5,294.8 	"/>
	<polygon class="st2" points="788.6,802.3 780.6,787.8 772.6,791.4 781.7,806.5 	"/>
	<polygon class="st2" points="897.9,746.3 899.1,749.9 911.5,756.1 914.5,749 919.2,751.1 921.3,746.6 898.5,734.2 895.2,739.5 
		898.8,741.3 	"/>
	<polygon class="st2" points="1039.2,823.7 1037.4,805.9 1012.8,807.1 1014.3,824.8 	"/>
	<polygon class="st2" points="882.2,868.7 879.8,876.7 889.9,879.7 894,869 900.3,871.1 902.3,864.3 861.4,850.3 858.8,859.2 	"/>
	<polygon class="st2" points="897,853.2 889.9,851.2 888.7,855.1 896.3,857 	"/>
	<polygon class="st2" points="898.3,857.7 903,859 903.9,854.8 899.4,853.7 	"/>
	<polygon class="st2" points="806.8,816.6 809.4,817.5 804.6,824.3 812.3,829.3 814,827.2 819.1,831.1 817.3,833.2 824.4,837.9 
		828.8,833.2 844.8,844.1 846,841.2 852.3,844.1 854.6,840.8 857.3,842.3 859.1,840.3 857,837.9 858.8,833.4 817.9,805.9 
		811.2,815.1 806.1,813 801.7,819.4 803,821 	"/>
	<rect x="577.4" y="853.4" class="st2" width="11.3" height="20"/>
	<rect x="620.6" y="889.2" class="st2" width="36.9" height="4.2"/>
	<rect x="608.6" y="911.7" class="st2" width="13.1" height="9.3"/>
	<polygon class="st2" points="713.2,924.8 714.1,927.7 769,927.7 769.2,925.2 773,924.8 779.9,918.8 846.6,918.8 845.7,911.7 
		675,911.4 674.6,919.2 704.8,919 	"/>
	<rect x="852.1" y="910.8" class="st2" width="59.1" height="9.6"/>
	<polygon class="st2" points="605,941 912.1,941 912.1,958.5 923.9,958.5 923.9,941 1048.1,941 1048.1,929.4 605,929.4 	"/>
	<rect x="558.6" y="914" class="st2" width="12.2" height="25.5"/>
	<rect x="590.6" y="927.4" class="st2" width="4.2" height="9.2"/>
	<rect x="578.5" y="920" class="st2" width="3.8" height="10.7"/>
	<rect x="509.7" y="927.7" class="st2" width="25.8" height="13"/>
	<rect x="489" y="912.3" class="st2" width="14.2" height="12.2"/>
	<rect x="743.2" y="832" class="st2" width="27" height="13.3"/>
	<rect x="1133.2" y="920.3" class="st2" width="4.7" height="5.3"/>
	<rect x="1246.9" y="727.1" class="st2" width="22.2" height="12.2"/>
	<polygon class="st2" points="1675.7,629.9 1692,637.9 1695.8,630.8 1679.5,623.1 	"/>
	<polygon class="st2" points="1684.3,590.8 1676.6,587.5 1673,597 1681,600 	"/>
	<polygon class="st2" points="1735.8,472.6 1729.6,479.4 1737,486.2 1743.2,478.8 	"/>
	<polygon class="st2" points="1746.2,482.3 1740.3,489.1 1748.6,495.4 1753.6,488.3 	"/>
	<rect x="738.8" y="957" class="st2" width="5.6" height="5"/>
	<polygon class="st2" points="1366,504 1368.4,510.8 1375.8,508.7 1373.7,501.6 	"/>
</g>
</svg>
