<?xml version="1.0" encoding="utf-8"?>
<!-- Generator: Adobe Illustrator 24.0.1, SVG Export Plug-In . SVG Version: 6.00 Build 0)  -->
<svg version="1.1" id="Inactive_Configs" xmlns="http://www.w3.org/2000/svg" xmlns:xlink="http://www.w3.org/1999/xlink" x="0px"
	 y="0px" viewBox="0 0 1920 1080" style="enable-background:new 0 0 1920 1080;" xml:space="preserve">
<style type="text/css">
	.st0{fill:#A7A9AC;}
</style>
<title>inactive</title>
<path class="st0" d="M1601.6,394.1c-36.6-31.3-97.7-82.8-151.9-128.5c0,0,0,0,0,0c-7.3-6.5-13.3-11.6-18.5-15.6
	c-22.7-19.1-43.4-36.5-59.6-50c-22.2-18.6-40.9-33.6-57.5-46c-2.4-2.2-5.1-4-7.8-5.8c-21.8-15.9-40-27.3-58.5-36.9
	c-25.1-13-52.1-16.8-80.1-11c-23.5,4.8-43.8,15.4-58.9,24c-8.3,4.8-19.2,11.2-30.7,18c-18.8,11.1-38.3,22.5-51,29.5
	c-66.7,36.9-116.4,59.1-161.2,72c-8.1,2.3-21.1,5.2-33.7,7.9c-9.7,2.1-18.9,4.1-25.3,5.8c-42.1,10.9-69.9,37.2-90.1,56.3
	c-2.6,2.5-5.1,4.9-7.5,7.1c-24.1,22.2-71.4,69.2-93.8,96c-18.7,22.5-26.3,45.5-23.3,70.3c2.6,20.8,12.1,38.5,19.8,52.7
	c1.2,2.1,2.3,4.2,3.3,6.1c2.1,4.1,4.9,9.2,7.9,14.5c9.1,16.6,21.7,39.4,26,52.7c17.2,52.6-9.3,78.4-28.7,97.3l-1.2,1.1
	c-32.9,32-87.7,30.4-109.8,28.3c-20.7-2-47-5.5-72.3-8.8c-4.5-0.6-8.9-1.2-13.3-1.7c-13.6-1.8-24.8-3.4-33.8-4.6
	c-25.8-3.7-37.6-5.3-55.1-4.3c-35.2,2.1-62,16.5-79.6,42.6c-28.9,42.8-24.3,105.1-14.6,134.2c23.8,71.4,90.8,97.5,145.6,98.1
	c66.1,0.7,180.6,0.3,272.7-0.1c29.2-0.1,55.8-0.2,77.2-0.3c60.3-0.1,153.5,0.7,243.5,1.5c72.6,0.6,141.2,1.2,190.2,1.3l25.5,0.1
	c13.4,0,25.6,0.1,36.8,0.1c0.7,0,1.1,0.1,1.2,0.1c0.1,0,0.2,0,0.3,0c0.3,0,0.6,0,0.9-0.1c2.9,0,5.7,0,8.5,0
	c67.5,0,96.5-0.9,139.8-6.2c35.7-4.4,67.7-19.5,95.1-45c18.2-16.9,34.4-38.4,49.5-65.5c14.2-25.4,31.5-71.7,42.9-102.2
	c1.8-4.8,3.4-9.2,4.9-13.1c20.6-54.1,58.9-165.8,75.6-223.5C1667.4,485.9,1650.7,436,1601.6,394.1z M1365.1,207.6
	c6.9,5.8,14.7,12.3,23.1,19.3c-15.4-6.4-34.8-14.1-47.5-18.4c-13.9-4.7-13.8-11.4-13.8-13.6c0.1-7.9-0.4-14.4-1.5-19.8
	C1337.3,184.6,1350.4,195.3,1365.1,207.6z M979.7,986.5c-83.9-0.7-170.5-1.5-230.8-1.5c-4.4,0-8.7,0-12.8,0
	c-21.4,0-47.9,0.2-77.2,0.3c-40.6,0.2-85.5,0.3-128.7,0.4c18.9-5.2,34.3-12.3,52.7-21.9c4.1-2.1,7.1-4,9.6-5.5
	c2.6-1.6,4.6-2.9,5.6-2.9c71.4-1.9,188.9-0.7,292.6,0.4c41.4,0.4,80.5,0.8,111.2,1c25.2,0.1,27.4,1.7,33.9,6.6c3,2.2,9,7.8,11.3,9.9
	c10.3,9.5,17.7,10.5,23.7,11.2l1,0.1c7,1,16,1.9,26.1,2.9C1061.7,987.2,1021.4,986.8,979.7,986.5z M1641.4,539.6
	c-16.6,57.4-54.8,168.8-75.3,222.7c-1.5,3.9-3.1,8.3-4.9,13.1c-11.4,30.3-28.5,76.1-42.3,100.9c-35.6,64-80.5,98.5-137.1,105.5
	c-45,5.5-74.4,6.2-149.2,6.1c-13.9-0.9-119.1-7.9-159.5-13.3l-1-0.1c-5.3-0.7-10.3-1.3-18.2-8.7c-4-3.7-9.1-8.3-12.1-10.6
	c-8.6-6.4-12.6-8.4-39.8-8.5c-30.8-0.1-69.8-0.5-111.2-1c-103.8-1.1-221.4-2.3-293-0.4c-3.7,0.1-6.6,1.9-10.6,4.4
	c-2.3,1.4-5.1,3.2-8.9,5.2c-36.4,19-60.8,28.2-127.2,30.8c0,0-0.1,0-0.1,0c-24.2,0-46.2-0.2-64.5-0.4
	c-17.7-0.2-107.6-5.5-136.2-91.2c-9.1-27.4-13.5-85.6,13.4-125.5c15.8-23.4,40-36.2,72-38.2c16.5-1,28,0.6,53.1,4.2
	c9,1.3,20.2,2.9,33.9,4.7c4.4,0.6,8.9,1.2,13.3,1.7c25.4,3.3,51.7,6.8,72.6,8.8c29.1,2.9,83.2,2.6,117.8-31.1l1.2-1.1
	c20-19.5,50.3-49,31.2-107.5c-4.6-14.2-16.9-36.5-26.7-54.4c-2.9-5.3-5.7-10.4-7.8-14.4c-1-2-2.2-4.1-3.3-6.2
	c-15.1-27.9-35.8-66,2.3-111.8c20.2-24.3,65.2-69.6,92.9-95.1c2.5-2.3,5-4.6,7.6-7.2c19.5-18.4,46.1-43.6,85.8-53.9
	c6.3-1.6,15.3-3.6,25-5.7c12.7-2.8,25.9-5.7,34.3-8.1c45.5-13.2,95.9-35.7,163.2-72.9c12.8-7.1,32.3-18.6,51.2-29.7
	c11.5-6.8,22.4-13.2,30.6-17.9c34-19.6,79.4-38.7,129.4-12.8c18,9.3,35.9,20.5,57.2,36.1c0.1,0,0.1,0.1,0.1,0.1c0,0,0,0,0.1,0
	c2.5,1.8,5,3.7,7.5,5.6c5.2,5.2,9.1,13.6,8.8,32.9c-0.1,7.4,3.4,17.4,20.6,23.2c13.7,4.6,37.1,14,54.2,21.2c1.5,0.6,2.9,1.2,4.3,1.8
	c8.4,3.5,15.6,6.4,29.1,16.9c58.2,48.9,129.3,109,170.1,143.8C1641,440.9,1656.6,487.3,1641.4,539.6z"/>
</svg>
