<svg width="1920" height="1080" viewBox="0 0 1920 1080" fill="none" xmlns="http://www.w3.org/2000/svg">
<path d="M1023.79 175.788C1023.79 175.788 656.86 313.6 646.86 319.1C636.86 324.6 634.304 327.171 630.86 333.147C627.417 339.124 627.911 344.858 628.295 350.912C628.679 356.966 638.119 369.465 638.119 369.465L723.5 466.5C723.5 466.5 742.5 486.5 763.5 490C785 492.5 797 487.5 807.5 475C818 462.5 821 454.5 823 447C825 439.5 825 430 821 413C814 388.5 813.5 393 812.5 383.5C811.5 374 819.786 356.602 826.5 352C833.5 346.5 840.09 342.819 846.5 341L974.68 320.8L1102.86 300.6L1223.36 278.6C1223.36 278.6 1241.06 276.081 1253.36 270.6C1265.66 265.119 1273.61 260.8 1282.86 252.6C1292.11 244.4 1302.84 234.201 1310.36 221.1C1317.88 208 1322.22 191.036 1327.46 175.173C1332.69 159.311 1333.39 142.407 1335.36 126.6C1337.33 110.794 1337.36 100.6 1337.36 89.6001C1335.54 79.2025 1335.97 76.4866 1332.1 72.0212C1328.22 67.5557 1323.82 64.9505 1317.64 63.825C1311.46 62.6995 1296.88 67.0442 1296.88 67.0442M1023.79 175.788L1160.34 121.416L1296.88 67.0442M1023.79 175.788L1296.88 67.0442" stroke="black" stroke-width="25"/>
<path d="M1023.79 175.788C1023.79 175.788 656.86 313.6 646.86 319.1C636.86 324.6 634.304 327.171 630.86 333.147C627.417 339.124 627.911 344.858 628.295 350.912C628.679 356.966 638.119 369.465 638.119 369.465L723.5 466.5C723.5 466.5 742.5 486.5 763.5 490C785 492.5 797 487.5 807.5 475C818 462.5 821 454.5 823 447C825 439.5 825 430 821 413C814 388.5 813.5 393 812.5 383.5C811.5 374 819.786 356.602 826.5 352C833.5 346.5 840.09 342.819 846.5 341L974.68 320.8L1102.86 300.6L1223.36 278.6C1223.36 278.6 1241.06 276.081 1253.36 270.6C1265.66 265.119 1273.61 260.8 1282.86 252.6C1292.11 244.4 1302.84 234.201 1310.36 221.1C1317.88 208 1322.22 191.036 1327.46 175.173C1332.69 159.311 1333.39 142.407 1335.36 126.6C1337.33 110.794 1337.36 100.6 1337.36 89.6001C1335.54 79.2025 1335.97 76.4866 1332.1 72.0212C1328.22 67.5557 1323.82 64.9505 1317.64 63.825C1311.46 62.6995 1296.88 67.0442 1296.88 67.0442M1023.79 175.788L1160.34 121.416L1296.88 67.0442M1023.79 175.788L1296.88 67.0442" stroke="white" stroke-width="15"/>
<path d="M1160.34 121.416L1296.88 67.0442C1296.88 67.0442 1311.46 62.6995 1317.64 63.825C1323.82 64.9505 1328.22 67.5557 1332.1 72.0212C1335.97 76.4866 1335.54 79.2025 1337.36 89.6001C1337.36 100.6 1337.33 110.794 1335.36 126.6C1333.39 142.407 1332.69 159.311 1327.46 175.173C1322.22 191.036 1317.88 208 1310.36 221.1C1302.84 234.201 1292.11 244.4 1282.86 252.6C1273.61 260.8 1265.66 265.119 1253.36 270.6C1241.06 276.081 1223.36 278.6 1223.36 278.6L1102.86 300.6L974.68 320.8" stroke="white" stroke-width="15"/>
<path d="M1160.34 121.416L1023.79 175.788C1023.79 175.788 656.86 313.6 646.86 319.1C636.86 324.6 634.304 327.171 630.86 333.147C627.417 339.124 627.911 344.858 628.295 350.912C628.679 356.966 638.119 369.465 638.119 369.465L723.5 466.5C723.5 466.5 742.5 486.5 763.5 490C785 492.5 797 487.5 807.5 475C818 462.5 821 454.5 823 447C825 439.5 825 430 821 413C814 388.5 813.5 393 812.5 383.5C811.5 374 819.786 356.602 826.5 352C833.5 346.5 840.09 342.819 846.5 341L974.68 320.8" stroke="white" stroke-width="15"/>
<g filter="url(#filter0_d_6_68)">
<path d="M1152.86 104L1167.19 137.076" stroke="#B8DC02" stroke-width="10" stroke-linecap="round"/>
</g>
<g filter="url(#filter1_d_6_68)">
<path d="M972.112 303L978.142 338.537" stroke="black" stroke-width="10" stroke-linecap="round"/>
</g>
<defs>
<filter id="filter0_d_6_68" x="1143.86" y="98.9987" width="32.3278" height="51.0787" filterUnits="userSpaceOnUse" color-interpolation-filters="sRGB">
<feFlood flood-opacity="0" result="BackgroundImageFix"/>
<feColorMatrix in="SourceAlpha" type="matrix" values="0 0 0 0 0 0 0 0 0 0 0 0 0 0 0 0 0 0 127 0" result="hardAlpha"/>
<feOffset dy="4"/>
<feGaussianBlur stdDeviation="2"/>
<feComposite in2="hardAlpha" operator="out"/>
<feColorMatrix type="matrix" values="0 0 0 0 0 0 0 0 0 0 0 0 0 0 0 0 0 0 0.25 0"/>
<feBlend mode="normal" in2="BackgroundImageFix" result="effect1_dropShadow_6_68"/>
<feBlend mode="normal" in="SourceGraphic" in2="effect1_dropShadow_6_68" result="shape"/>
</filter>
<filter id="filter1_d_6_68" x="963.111" y="297.999" width="24.0313" height="53.5388" filterUnits="userSpaceOnUse" color-interpolation-filters="sRGB">
<feFlood flood-opacity="0" result="BackgroundImageFix"/>
<feColorMatrix in="SourceAlpha" type="matrix" values="0 0 0 0 0 0 0 0 0 0 0 0 0 0 0 0 0 0 127 0" result="hardAlpha"/>
<feOffset dy="4"/>
<feGaussianBlur stdDeviation="2"/>
<feComposite in2="hardAlpha" operator="out"/>
<feColorMatrix type="matrix" values="0 0 0 0 0 0 0 0 0 0 0 0 0 0 0 0 0 0 0.25 0"/>
<feBlend mode="normal" in2="BackgroundImageFix" result="effect1_dropShadow_6_68"/>
<feBlend mode="normal" in="SourceGraphic" in2="effect1_dropShadow_6_68" result="shape"/>
</filter>
</defs>
</svg>
