<?xml version="1.0" encoding="utf-8"?>
<!-- Generator: Adobe Illustrator 24.0.1, SVG Export Plug-In . SVG Version: 6.00 Build 0)  -->
<svg version="1.1" id="Inactive_Configs" xmlns="http://www.w3.org/2000/svg" xmlns:xlink="http://www.w3.org/1999/xlink" x="0px"
	 y="0px" viewBox="0 0 1920 1080" style="enable-background:new 0 0 1920 1080;" xml:space="preserve">
<style type="text/css">
	.st0{fill:#A7A9AC;}
</style>
<title>inactive</title>
<g>
	<path class="st0" d="M314.2,669.1c1.7,0.3,3.5,0.5,5.3,0.5c10.8,0,23.2-6,37.6-18.2l0.4-0.4l0.3-0.4c2-2.6,49.2-64.4,64.2-87.4
		c10.9-16.6,35-43.8,74.3-38.7l47.2,6.2c0.9,0.1,21.8,2.4,32.7-9.1c5.4-5.7,7.3-13.5,5.7-23.1l-1.8-30.8l0-0.4
		c-0.1-0.5-1.9-12.9-12-18.4c-7-3.9-15.8-3.4-26.1,1.2l-0.5,0.2l-19.7,14.3c-1.6,0.8-12.4,5.8-21.3,0.1l-0.3-0.2
		c-14.6-8.2-46.1-16.8-60.8,8.6l-52.6,61.4c-7.9,5.5-22.3,12.5-29.1,8.9c-4.3-2.3-5.2-9.1-5.2-14.9l40.6-104l0.2-0.5
		c0.2-0.8,5.8-20,33.1-18.5l0.2,0l150-3.6c2.2,0.3,9.3,0.7,15.8-4.1c6.1-4.5,9.7-12.1,10.8-22.6l0-0.3l-0.9-35.9l-0.1-0.6
		c-1.2-7.7-9.9-21.9-34.6-20.3l-73.6,4.4c-2.3-0.1-17.1-1.1-17.1-18c0.1-2.1,0.6-24-11.6-34.9c-5.7-5.1-13-7-21.7-5.7l-0.4,0.1
		L355,293.6l0,0c-3.2,1-30.4,11.2-20.2,53.9l0.1,0.4c0.1,0.3,9.1,28-3.3,43.7c-7,8.9-20,12.7-38.6,11c-19.9-1.8-47.4,2.6-56.1,60.2
		c-9,59.6,33.4,147.6,52.1,182.6C293.2,653.4,300.1,666.4,314.2,669.1z M246.8,464.4c6.6-43.8,23.3-52,39.9-52
		c1.8,0,3.6,0.1,5.4,0.3c22.2,1.9,38.1-3.1,47.4-14.9c15.2-19.4,6-49.6,5-52.8c-8.3-35.1,12.5-41.6,13.4-41.8l87.9-29.3
		c5.5-0.7,9.8,0.3,13.1,3.3c7.5,6.7,8.5,21.9,8.3,27.2l0,0.2c0,22.2,17.8,28.1,27.2,28.1l74.1-4.5c20.2-1.3,23.6,9.5,24,11.5
		l0.9,34.8c-0.8,7.3-3.1,12.4-6.7,15.2c-4,3.1-8.6,2.3-8.7,2.3l-0.5-0.1l-150.6,3.6c-28.1-1.5-40.4,15.9-43.1,25.7l-41.1,105.5
		l0,0.9c-0.3,12.6,3.3,21,10.5,24.8c14.6,7.7,37.5-8.1,40.1-9.9l0.5-0.4l54.1-63.1l0.2-0.4c13.1-23.3,44.8-6.6,47.3-5.3
		c14.8,9.4,31,0.4,31.7,0.1l19.6-14.2c7.1-3.1,12.7-3.6,16.7-1.4c5.3,2.9,6.7,9.9,6.9,10.9l1.8,30.9l0.1,0.6
		c1.1,6.6,0.1,11.4-3.1,14.8c-6.2,6.5-19.6,6.6-24.2,6.1l-47.1-6.2c-46.4-6.1-74.2,28.1-83.9,43.1c-14.2,21.7-59.1,80.7-63.5,86.4
		c-14,11.7-25.5,16.8-34.2,15.1c-9.4-1.8-14.5-11.4-18.2-18.5C260,569.7,240.9,503.7,246.8,464.4z"/>
	<path class="st0" d="M1782.9,429.7c-8.3-41.5-32.2-120.8-98.6-186.2c-31.2-30.8-68.3-54.9-110.3-71.6c-47.6-19-102.1-28.8-162-29.1
		c-129.1-0.7-344.1,4.3-533.9,8.6c-112.5,2.6-218.7,5-294.6,6C473.1,158.8,380,179.1,307,217.6c-113,59.7-172.5,160.8-176.7,300.6
		c-2,65.8,12.3,122.2,43.7,172.2c41,65.3,112.3,119.4,211.7,160.6c142.3,59,205,77.8,265.6,95.9c9.2,2.7,18.6,5.6,28.2,8.5
		c2.4,1,9.3,3.6,22.2,6.6c2.2,0.6,4.5,1.2,6.8,1.8c20.4,5.1,44.8,9.1,74.8,9.1c0,0,0,0,0,0c0,0,0,0,0,0c0.6,0,1.2,0,1.7,0h0
		c3.8,0,7.7,0,11.8-0.1c11.5,0.4,24,0.7,37.5,0.7c15.3,0,32-0.3,50-1c87.3-0.4,187.4-1.2,246.7-3.9c4-0.2,7.9-0.3,11.7-0.4
		c7.7-0.2,15.2-0.5,23.6-1.2c33.3-2.1,72.5-7.1,98.2-23.9c71.1-24.7,278.5-109.2,280.7-110c0.6-0.3,58-25,116.5-75.6
		c9.9-8.2,19.9-17.1,29.6-26.9c36.7-36.7,63.6-77.7,80-121.8C1791.7,553.4,1795.6,493.2,1782.9,429.7z M140.3,518.5
		c9.2-300.6,281.7-349,443.4-351.2c75.9-1,182.1-3.4,294.7-6c177.7-4.1,377.7-8.7,508.3-8.7c8.8,0,17.2,0,25.3,0.1
		c3.4,0,6.8,0.1,10.1,0.2c0.2,0,0.4,0,0.6,0c172.6,4.4,275,93.9,323.3,196.5c14.2,30.7,22,58.3,26,76.9c0.4,1.8,0.8,3.6,1.1,5.4
		c22.4,111.9-9.6,211.8-95.2,296.9c-7.5,7.5-15.1,14.5-22.7,21.1c-50,41.3-97.1,61.4-100.6,62.9c-26.8,7.8-49.3-2.9-63.5-13.3
		c-19.5-14.3-55.4-38.8-81.6-56.8c-6.4-4.4-12.3-8.4-17.2-11.8c-21.6-14.8-46.9-36.1-50.2-69.3c-7.6-76,38.2-108.9,73.7-122.8
		c4.2-1,8.3-2.1,12.4-3.3c22-6.3,66.4-22.6,88.5-33.3c28.4-13.8,46.4-32.7,53.6-56.2c2.6-8.4,3.6-16.7,3.5-24.5
		c-0.2-23.4-10-42.4-13.7-49c-3.1-5.3-6.3-10.9-9.7-16.5c-14.9-25.1-36.6-60.1-59.5-86.6c-0.2-0.2-0.3-0.4-0.5-0.5
		c-0.7-0.8-1.4-1.6-2.1-2.4c-0.4-0.5-0.9-1-1.3-1.5c-0.5-0.5-0.9-1-1.4-1.5c-3-3.3-6-6.4-9.1-9.4c-26.2-25.3-50.1-26.2-67.9-26.3
		c-1.3,0-2.6,0-3.9,0c-0.6,0-1.3,0-1.9,0c-53.7-0.4-124.9,0-197.5,0.6c-9.5-1.9-28.5-4.4-44.6,0.4c-47.6,0.5-94.4,1.1-135.8,1.6
		c-21.7-1.9-66.1,0.7-69.4,0.9c-0.9,0-1.7,0.1-2.5,0.1c-0.7,0-1.5,0-2.2,0.1c-0.8,0-1.6,0.1-2.5,0.2c-0.7,0.1-1.5,0.1-2.2,0.2
		c-0.8,0.1-1.5,0.2-2.3,0.3c-0.7,0.1-1.5,0.1-2.2,0.2c-0.7,0.1-1.4,0.2-2.1,0.3c-0.7,0.1-1.5,0.2-2.2,0.3c-0.7,0.1-1.3,0.3-2,0.4
		c-0.8,0.1-1.5,0.3-2.3,0.4c-0.6,0.1-1.2,0.3-1.8,0.4c-0.8,0.2-1.5,0.4-2.3,0.6c-0.6,0.2-1.1,0.3-1.7,0.5c-0.8,0.2-1.5,0.4-2.3,0.7
		c-0.5,0.2-1,0.4-1.5,0.5c-0.8,0.3-1.5,0.5-2.3,0.8c-0.5,0.2-0.9,0.4-1.4,0.6c-0.8,0.3-1.5,0.6-2.3,0.9c-0.4,0.2-0.8,0.4-1.2,0.6
		c-0.8,0.4-1.5,0.7-2.3,1.1c-0.4,0.2-0.7,0.4-1.1,0.6c-0.8,0.4-1.5,0.8-2.3,1.2c-0.3,0.2-0.7,0.4-1,0.6c-0.8,0.5-1.5,0.9-2.2,1.4
		c-0.3,0.2-0.6,0.4-0.9,0.6c-0.7,0.5-1.5,1-2.2,1.5c-0.3,0.2-0.5,0.4-0.8,0.6c-0.7,0.6-1.5,1.1-2.2,1.7c-0.2,0.2-0.5,0.4-0.7,0.6
		c-0.7,0.6-1.4,1.2-2.1,1.9c-0.2,0.2-0.4,0.4-0.6,0.6c-0.7,0.7-1.4,1.3-2.1,2c-0.2,0.2-0.3,0.4-0.5,0.5c-0.7,0.7-1.4,1.5-2,2.2
		c-0.1,0.2-0.3,0.3-0.4,0.5c-0.7,0.8-1.3,1.6-2,2.4c-0.1,0.2-0.3,0.4-0.4,0.5c-0.6,0.8-1.2,1.7-1.8,2.5c-0.1,0.2-0.2,0.3-0.3,0.5
		c-0.6,0.9-1.2,1.8-1.7,2.8c-0.1,0.2-0.2,0.4-0.3,0.6c-0.5,0.9-1.1,1.9-1.6,2.8c-0.1,0.2-0.2,0.3-0.3,0.5c-0.5,1-1,2-1.5,3
		c-0.1,0.2-0.2,0.4-0.2,0.6c-0.5,1-0.9,2.1-1.4,3.1c-0.1,0.2-0.2,0.5-0.3,0.7c-0.4,1-0.8,2.1-1.2,3.2c-0.1,0.2-0.1,0.5-0.2,0.7
		c-0.4,1.1-0.7,2.2-1.1,3.3c-0.1,0.3-0.2,0.7-0.3,1.1c-0.3,1-0.6,2-0.8,3.1c-0.1,0.5-0.2,1.1-0.4,1.6c-0.2,0.9-0.4,1.8-0.6,2.7
		c-0.2,0.8-0.3,1.6-0.4,2.4c-0.1,0.7-0.3,1.4-0.4,2.1c-0.2,1.2-0.4,2.5-0.5,3.8c0,0.3-0.1,0.5-0.1,0.8c-0.6,4.7-0.9,9.5-1,14.6
		c-0.3,14.8-0.7,51.3,1.1,69.8c0,0.2,0,0.3,0,0.4c4.7,47.4,14.3,78.7,30.2,98.5c14.9,18.6,34.7,26.4,59.7,32.5
		c33,8,78.5,15.7,115.1,21.9c12.7,2.2,24.8,4.2,34.5,6c59.2,10.7,104.7,33.1,135.4,66.7c32.6,35.7,37.7,72.7,37.8,91.5
		c0.2,34.6-3.1,93-6.1,140c-54.3,0.5-107.8,0.4-198.4,0.2c-0.8,0-1.6,0-2.5,0c-40.3-0.7-124.4-1.9-189.6-1
		c-60.2-0.1-283.4-0.6-364.7-1.6c-6.6-0.1-15.7-0.4-25.2-0.8c-3-0.1-6-0.2-9.1-0.3c-58.9-5.4-104.8-16.1-136.2-25.7
		c-49.2-14.9-74.8-30.3-75.2-30.5c-0.5-0.3-1-0.5-1.5-0.6C182.7,716.1,137,628.8,140.3,518.5z M1291.3,853.2
		c35.2-0.4,71.7-1.1,119.6-2.2c0.5,0,45.9-1.5,99.6-14.9c-54.9,22.2-169.5,68.2-231.3,90.9c5.2-9.2,8.4-21,9.4-35.3
		C1289.4,881.1,1290.3,867.9,1291.3,853.2z M1298,703.3c-0.2-35-14.6-69.9-40.5-98.2c-32.2-35.2-79.6-58.7-141-69.8
		c-9.8-1.8-21.9-3.8-34.6-6c-12.8-2.2-26.8-4.5-40.9-7c8.1-3.4,13.6-8,13.9-8.3l0.1-0.1c25.5-23.8,36-27.8,49.9-27.7
		c23.5,0.1,28.8,11.3,34,22.2c3.2,6.9,6.6,14,14.5,16.3c50.1,15.2,100.1,23.2,148.5,23.8c3.7,0,7.3,0.1,10.9,0.1
		c27.2,0,49.7-1.2,69.9-3.9c-7.4,5-14.6,11-21.2,18.1c-23.5,25.4-33.4,58.9-29.4,99.6c3.7,37.2,31.1,60.5,54.5,76.5
		c4.9,3.4,10.8,7.4,17.2,11.8c26.2,17.9,62,42.4,81.3,56.6c7.5,5.5,19.6,12.7,34.6,16c-57.5,16-108.6,17.7-109.1,17.7
		c-47.5,1.1-83.8,1.8-118.7,2.2C1295,796.3,1298.2,738,1298,703.3z M953,241.2c0.9,0,1.8-0.1,2.7-0.1l19.3-0.3c0,0.1,0,0.2,0,0.4
		l3.6,266.1c0,0.9,0.3,1.7,0.7,2.4c-6.4-1.1-11-2-11.8-2.1c0,0,0,0,0,0c-49-11.9-75.1-50.9-82.2-122.5c0,0,0-0.1,0-0.1
		c-1.8-18-1.3-54-1.1-68.6c0.2-10.6,1.6-21.8,5.2-32.3C897,261.5,914.9,242.5,953,241.2z M1133.4,295.3c0.2,22.2,0.5,49.8,0.9,65.7
		c0.5,19.3-3.3,33.2-11.2,41.2c-5.9,6-14.4,8.9-25.2,8.8c-18.8-0.3-36.7-5.7-40.7-42.9c-1.8-16.7-1-46.1-0.4-69.8
		c0.2-8.5,0.4-16.5,0.5-22.7c0.1-15.9-3.4-28-10.2-35.7c30.3-0.4,62.9-0.8,96.2-1.1c-6.9,7.1-10.3,16.9-10.1,29.1
		C1133.2,275,1133.3,284.7,1133.4,295.3z M1028.8,240.7c15.4,2.6,18.5,20.4,18.4,34.7c0,6.1-0.3,14.1-0.5,22.5
		c-0.6,24-1.4,53.8,0.5,71.1c2.2,20.7,9.1,35.4,20.5,43.6c9.8,7.1,21.2,8.2,30.1,8.3c13.7,0.2,24.6-3.7,32.4-11.7
		c10.1-10.2,14.7-26.1,14.1-48.5c-0.4-15.8-0.7-43.4-0.9-65.5c-0.1-10.6-0.2-20.3-0.3-27.4c-0.1-10.8,2.9-18.6,9.3-23.9
		c2.8-2.3,6.2-4.1,9.8-5.3c14-0.1,28.1-0.3,42.1-0.4c15,3.2,25.9,19.5,35.7,33.8c4.3,6.4,8.4,12.5,12.5,16.7
		c9.2,9.6,19.3,14.2,30,13.9c18.3-0.6,33.1-15.6,42.6-26.8c29.9-35.1,49-37.4,77.8-38.2c0.5,0,1.1,0,1.6,0c0.7,0,1.4,0,2.1,0
		c0.6,0,1.3,0,1.9,0c18.2,0.3,41.9,5.1,61,23.5c2.3,2.2,4.6,4.5,6.9,7c16.4,17.5,32.6,40.5,46.3,61.8c0.2,0.3,0.4,0.6,0.5,0.8
		c0.5,0.8,1,1.6,1.5,2.3c10.9,17.2,20.2,33.2,26.6,44.3c3.4,5.9,12.1,22.9,12.4,43.7c0.1,6.9-0.8,14.2-3,21.7
		c-6.4,20.8-22.7,37.7-48.4,50.2c-21.4,10.4-64.7,25-86.9,31.7c-3.9,1.2-8.1,2.6-12.5,4.3c-30.2,7.2-63.5,10-110.8,9.5
		c-47.5-0.5-96.5-8.4-145.7-23.3c-3.5-1.1-5.4-4.9-8.4-11.1c-5.5-11.7-13.1-27.7-42.9-27.9c-0.2,0-0.4,0-0.7,0
		c-16,0-28.7,4.7-56,30.3c-0.9,0.7-12.2,9.9-24.9,9.4c-8.1-0.3-23.9-2.7-36.6-4.9c1.1-0.9,1.8-2.3,1.7-3.8L985,241.1
		c0-0.1,0-0.2,0-0.4c12.5-0.2,25.8-0.3,39.7-0.5C1026.2,240.4,1027.6,240.5,1028.8,240.7z M1225,238c45.8-0.4,90.4-0.6,129.8-0.6
		c-11.6,6-23.6,15.8-37.3,32c-8.3,9.8-21,22.8-35.3,23.3c-7.7,0.2-15.3-3.4-22.5-10.9c-3.5-3.6-7.4-9.3-11.5-15.4
		C1241.8,256.8,1234.4,245.8,1225,238z M689.1,947.9c-2.1-0.6-4.1-1.3-6.2-1.9c-0.1,0-0.1-0.1-0.1-0.1l-0.5-0.2
		c-1.1-0.4-110.1-37.4-150-50.4c-3.6-1.2-7.6-2.4-11.7-3.8c-24.3-7.7-57.6-18.3-75.1-30.4c-5.1-3.6-6.1-6-5.9-6.7
		c0.6-2.2,6.6-4.9,10.2-5.1c10.3-0.6,26.3-0.1,41.9,0.5c26.5,2.4,55.5,3.8,87,3.5c94.7-0.2,175.2-0.2,244.3-0.2
		c-12.4,9.1-23.1,25.7-23.5,54c-0.2,17.3,13.7,47.1,42.1,55.4c-3.6,0-7.2,0-10.8,0c-4.2,0-8.3,0-12.3,0c-6.9,0-13.6,0.1-20,0.1
		c-48.8-1.8-79.7-7.1-97.2-11.2C697.1,950.3,693.1,949.1,689.1,947.9z M855.2,954.7c-17.2-0.8-28.1-10.2-34.3-18.1
		c-8.5-10.8-11.5-22.6-11.4-29.3c0.2-17.9,5.3-32.4,14.5-41.9c7-7.2,16.5-11.5,26-11.9c3.7-0.1,7.5-0.3,11.4-0.4
		c93.7,0.1,164.3,0.2,219.4,0.3c0.8,0,1.7,0,2.5,0h0c41,0.7,41.5,47.7,41.5,48.1c0,47.3-36.4,52.5-47.6,53
		C1015.9,957.4,914.2,957.4,855.2,954.7z M343.2,820.6c3.1,1,6.3,2,9.5,3c21.7,6.6,50.2,13.8,85,19.4c-3.5,2-6.5,4.8-7.6,8.7
		c-0.6,2.2-0.6,4.4,0.2,6.6c-12.8-5.2-26.3-10.7-40.7-16.6C373.3,835,357.9,827.9,343.2,820.6z M1100.7,959.6
		c4.4-1.9,9-4.4,13.3-7.9c13.9-11.1,20.9-28,20.9-50c0-15.4-6.2-36-21.6-48.1c29.8,0.1,55.3,0.1,78.3,0.1c33.3,0,61.4-0.1,89.7-0.4
		c-1,14.4-1.8,27.3-2.6,37.7c-1.4,20.9-7.7,35.3-18.7,42.9c-46.6,16.1-72.9,21.1-94,22.9c-9.5,0.6-18.4,1-26.1,1.3
		c-3.3,0.1-6.5,0.3-9.4,0.4C1121.5,958.9,1111.5,959.2,1100.7,959.6z"/>
</g>
</svg>
