<svg width="1920" height="1080" viewBox="0 0 1920 1080" fill="none" xmlns="http://www.w3.org/2000/svg">
<g id="track">
<path id="out" d="M509.36 743.1C509.36 743.1 488.693 742.895 475.36 736.1C462.028 729.305 453.405 723.587 442.36 712.1C429.86 699.1 320.36 566.6 310.86 556.1C306.832 551.648 302.764 550.005 297.602 548.313C292.441 546.622 290.494 545.932 284.803 546.611C279.86 548.1 277.36 548.6 272.076 553.24C267.323 558.448 268.236 569.393 268.236 569.393C268.236 569.393 265.86 664.1 266.36 674.1C266.86 684.1 270.798 691.1 274.86 697.6C279.86 705.6 292.86 714.1 292.86 714.1C292.86 714.1 455.36 820.6 466.86 826.6C481.136 834.048 493.087 838.712 505.86 842.1C518.634 845.488 532.86 845.805 532.86 845.805L1094.92 845.796L1690.36 845.795C1690.36 845.795 1703.76 845.839 1708.86 843.1C1713.96 840.362 1717.34 836.889 1718.86 832.6C1720.38 828.311 1722.6 823.299 1721.36 818.6C1720.12 813.901 1718.33 809.708 1712.36 803.1C1679.86 767.1 1565.86 661.1 1545.86 639.1C1538.53 631.033 1534.45 621.261 1531.29 615.286C1528.13 609.312 1526.57 599.071 1526.57 599.071L1509.99 290.405C1509.99 290.405 1508.69 280.074 1506.36 275.92C1504.03 271.767 1497.89 266.118 1494.1 264.376C1490.31 262.634 1482.96 262.22 1476.83 262.901C1470.7 263.582 1463.84 269.167 1463.84 269.167M509.36 743.1L683.36 758.35L845.5 771.5M509.36 743.1L845.5 771.5M845.5 771.5C845.5 771.5 878.5 774.5 892 771.5C905.582 769.965 922 764.666 936.5 759C951 753.334 983.5 735.5 995 724L1263 461.5M1263 461.5L1329.5 398.863L1463.84 269.167M1263 461.5L1463.84 269.167" stroke="black" stroke-width="25"/>
<path id="full" d="M509.36 743.1C509.36 743.1 488.693 742.895 475.36 736.1C462.028 729.305 453.405 723.587 442.36 712.1C429.86 699.1 320.36 566.6 310.86 556.1C306.832 551.648 302.764 550.005 297.602 548.313C292.441 546.622 290.494 545.932 284.803 546.611C279.86 548.1 277.36 548.6 272.076 553.24C267.323 558.448 268.236 569.393 268.236 569.393C268.236 569.393 265.86 664.1 266.36 674.1C266.86 684.1 270.798 691.1 274.86 697.6C279.86 705.6 292.86 714.1 292.86 714.1C292.86 714.1 455.36 820.6 466.86 826.6C481.136 834.048 493.087 838.712 505.86 842.1C518.634 845.488 532.86 845.805 532.86 845.805L1094.92 845.796L1690.36 845.795C1690.36 845.795 1703.76 845.839 1708.86 843.1C1713.96 840.362 1717.34 836.889 1718.86 832.6C1720.38 828.311 1722.6 823.299 1721.36 818.6C1720.12 813.901 1718.33 809.708 1712.36 803.1C1679.86 767.1 1565.86 661.1 1545.86 639.1C1538.53 631.033 1534.45 621.261 1531.29 615.286C1528.13 609.312 1526.57 599.071 1526.57 599.071L1509.99 290.405C1509.99 290.405 1508.69 280.074 1506.36 275.92C1504.03 271.767 1497.89 266.118 1494.1 264.376C1490.31 262.634 1482.96 262.22 1476.83 262.901C1470.7 263.582 1463.84 269.167 1463.84 269.167M509.36 743.1L683.36 758.35L845.5 771.5M509.36 743.1L845.5 771.5M845.5 771.5C845.5 771.5 878.5 774.5 892 771.5C905.582 769.965 922 764.666 936.5 759C951 753.334 983.5 735.5 995 724L1263 461.5M1263 461.5L1329.5 398.863L1463.84 269.167M1263 461.5L1463.84 269.167" stroke="white" stroke-width="15"/>
<path id="sec-2" d="M1094.92 845.796L1690.36 845.795C1690.36 845.795 1703.76 845.839 1708.86 843.1C1713.96 840.362 1717.34 836.889 1718.86 832.6C1720.38 828.311 1722.6 823.299 1721.36 818.6C1720.12 813.901 1718.33 809.708 1712.36 803.1C1679.86 767.1 1565.86 661.1 1545.86 639.1C1538.53 631.033 1534.45 621.261 1531.29 615.286C1528.13 609.312 1526.57 599.071 1526.57 599.071L1509.99 290.405C1509.99 290.405 1508.69 280.074 1506.36 275.92C1504.03 271.767 1497.89 266.118 1494.1 264.376C1490.31 262.634 1482.96 262.22 1476.83 262.901C1470.7 263.582 1463.84 269.167 1463.84 269.167M1463.84 269.167L1329.5 398.863L1263 461.5L1463.84 269.167Z" stroke="white" stroke-width="15"/>
<path id="sec-1" d="M1094.92 845.796L532.86 845.805C532.86 845.805 518.634 845.488 505.86 842.1C493.087 838.712 481.136 834.048 466.86 826.6C455.36 820.6 292.86 714.1 292.86 714.1C292.86 714.1 279.86 705.6 274.86 697.6C270.798 691.1 266.86 684.1 266.36 674.1C265.86 664.1 268.236 569.393 268.236 569.393C268.236 569.393 267.323 558.448 272.076 553.24C277.36 548.6 279.86 548.1 284.803 546.611C290.494 545.932 292.441 546.622 297.602 548.313C302.764 550.005 306.832 551.647 310.86 556.1C320.36 566.6 429.86 699.1 442.36 712.1C453.405 723.587 462.028 729.305 475.36 736.1C488.693 742.895 509.36 743.1 509.36 743.1M509.36 743.1L683.36 758.35L845.5 771.5M509.36 743.1L845.5 771.5M845.5 771.5C845.5 771.5 878.5 774.5 892 771.5C905.582 769.965 922 764.666 936.5 759C951 753.334 983.5 735.5 995 724L1263 461.5" stroke="white" stroke-width="15"/>
<g id="sec-2-start" filter="url(#filter0_d_6_37)">
<path d="M1249.84 448.855L1276.55 473.06" stroke="#B8DC02" stroke-width="10" stroke-linecap="round"/>
</g>
<g id="set-1-start" filter="url(#filter1_d_6_37)">
<path d="M1093.19 828L1093.69 864.042" stroke="black" stroke-width="10" stroke-linecap="round"/>
</g>
</g>
<defs>
<filter id="filter0_d_6_37" x="1240.84" y="443.855" width="44.7083" height="42.2059" filterUnits="userSpaceOnUse" color-interpolation-filters="sRGB">
<feFlood flood-opacity="0" result="BackgroundImageFix"/>
<feColorMatrix in="SourceAlpha" type="matrix" values="0 0 0 0 0 0 0 0 0 0 0 0 0 0 0 0 0 0 127 0" result="hardAlpha"/>
<feOffset dy="4"/>
<feGaussianBlur stdDeviation="2"/>
<feComposite in2="hardAlpha" operator="out"/>
<feColorMatrix type="matrix" values="0 0 0 0 0 0 0 0 0 0 0 0 0 0 0 0 0 0 0.25 0"/>
<feBlend mode="normal" in2="BackgroundImageFix" result="effect1_dropShadow_6_37"/>
<feBlend mode="normal" in="SourceGraphic" in2="effect1_dropShadow_6_37" result="shape"/>
</filter>
<filter id="filter1_d_6_37" x="1084.19" y="823" width="18.4944" height="54.0417" filterUnits="userSpaceOnUse" color-interpolation-filters="sRGB">
<feFlood flood-opacity="0" result="BackgroundImageFix"/>
<feColorMatrix in="SourceAlpha" type="matrix" values="0 0 0 0 0 0 0 0 0 0 0 0 0 0 0 0 0 0 127 0" result="hardAlpha"/>
<feOffset dy="4"/>
<feGaussianBlur stdDeviation="2"/>
<feComposite in2="hardAlpha" operator="out"/>
<feColorMatrix type="matrix" values="0 0 0 0 0 0 0 0 0 0 0 0 0 0 0 0 0 0 0.25 0"/>
<feBlend mode="normal" in2="BackgroundImageFix" result="effect1_dropShadow_6_37"/>
<feBlend mode="normal" in="SourceGraphic" in2="effect1_dropShadow_6_37" result="shape"/>
</filter>
</defs>
</svg>
